<mxfile host="app.diagrams.net" agent="Mozilla/5.0 (Windows NT 10.0; Win64; x64) AppleWebKit/537.36 (KHTML, like Gecko) Chrome/136.0.0.0 Safari/537.36" version="27.0.6">
  <diagram name="第 1 页" id="VOvnJu582EQEMQTP1Gb8">
    <mxGraphModel dx="2873" dy="955" grid="0" gridSize="10" guides="1" tooltips="1" connect="1" arrows="1" fold="1" page="1" pageScale="1" pageWidth="827" pageHeight="1169" math="0" shadow="0">
      <root>
        <mxCell id="0" />
        <mxCell id="1" parent="0" />
        <mxCell id="rmAro9_Zei-ayIsxM9XY-2" value="&lt;p class=&quot;MsoNormal&quot;&gt;&lt;font style=&quot;font-size: 11px;&quot;&gt;&lt;span style=&quot;letter-spacing: 0pt; background-image: initial; background-position: initial; background-size: initial; background-repeat: initial; background-attachment: initial; background-origin: initial; background-clip: initial;&quot;&gt;Н&lt;/span&gt;&lt;span style=&quot;letter-spacing: 0pt; background-image: initial; background-position: initial; background-size: initial; background-repeat: initial; background-attachment: initial; background-origin: initial; background-clip: initial;&quot;&gt;ачинать&lt;/span&gt;&lt;/font&gt;&lt;span style=&quot;mso-spacerun:&#39;yes&#39;;font-family:Calibri;mso-fareast-font-family:宋体;&lt;br/&gt;mso-bidi-font-family:&#39;Times New Roman&#39;;font-size:10.5000pt;mso-font-kerning:1.0000pt;&quot;&gt;&lt;/span&gt;&lt;/p&gt;" style="rounded=1;whiteSpace=wrap;html=1;fontFamily=Times New Roman;" parent="1" vertex="1">
          <mxGeometry x="305" y="20" width="120" height="30" as="geometry" />
        </mxCell>
        <mxCell id="rmAro9_Zei-ayIsxM9XY-3" value="&lt;p class=&quot;MsoNormal&quot;&gt;&lt;font style=&quot;font-size: 11px;&quot;&gt;&lt;span style=&quot;letter-spacing: 0pt; background-image: initial; background-position: initial; background-size: initial; background-repeat: initial; background-attachment: initial; background-origin: initial; background-clip: initial;&quot;&gt;К&lt;/span&gt;&lt;span style=&quot;letter-spacing: 0pt; background-image: initial; background-position: initial; background-size: initial; background-repeat: initial; background-attachment: initial; background-origin: initial; background-clip: initial;&quot;&gt;онец&lt;/span&gt;&lt;/font&gt;&lt;span style=&quot;mso-spacerun:&#39;yes&#39;;font-family:Calibri;mso-fareast-font-family:宋体;&lt;br/&gt;mso-bidi-font-family:&#39;Times New Roman&#39;;font-size:10.5000pt;mso-font-kerning:1.0000pt;&quot;&gt;&lt;/span&gt;&lt;/p&gt;" style="rounded=1;whiteSpace=wrap;html=1;fontFamily=Times New Roman;" parent="1" vertex="1">
          <mxGeometry x="305" y="857.79" width="120" height="30" as="geometry" />
        </mxCell>
        <mxCell id="rmAro9_Zei-ayIsxM9XY-4" value="&lt;div style=&quot;line-height: 110%;&quot;&gt;&lt;font&gt;Посмотреть информацию о продукте&lt;/font&gt;&lt;/div&gt;" style="shape=manualInput;whiteSpace=wrap;html=1;fontFamily=Times New Roman;" parent="1" vertex="1">
          <mxGeometry x="64" y="11" width="80" height="96" as="geometry" />
        </mxCell>
        <mxCell id="rmAro9_Zei-ayIsxM9XY-5" value="&lt;font&gt;Каталог продукции&lt;/font&gt;" style="shape=display;whiteSpace=wrap;html=1;fontFamily=Times New Roman;" parent="1" vertex="1">
          <mxGeometry x="59" y="110" width="80" height="40" as="geometry" />
        </mxCell>
        <mxCell id="rmAro9_Zei-ayIsxM9XY-7" value="Посмотреть список продуктов" style="rounded=0;whiteSpace=wrap;html=1;fontFamily=Times New Roman;" parent="1" vertex="1">
          <mxGeometry x="305" y="86" width="120" height="60" as="geometry" />
        </mxCell>
        <mxCell id="rmAro9_Zei-ayIsxM9XY-8" value="" style="endArrow=none;html=1;rounded=0;fontFamily=Times New Roman;" parent="1" source="rmAro9_Zei-ayIsxM9XY-7" target="rmAro9_Zei-ayIsxM9XY-2" edge="1">
          <mxGeometry width="50" height="50" relative="1" as="geometry">
            <mxPoint x="249" y="119" as="sourcePoint" />
            <mxPoint x="299" y="69" as="targetPoint" />
          </mxGeometry>
        </mxCell>
        <mxCell id="rmAro9_Zei-ayIsxM9XY-9" value="БД" style="shape=datastore;whiteSpace=wrap;html=1;fontFamily=Times New Roman;" parent="1" vertex="1">
          <mxGeometry x="528" y="77" width="60" height="78" as="geometry" />
        </mxCell>
        <mxCell id="rmAro9_Zei-ayIsxM9XY-10" value="" style="endArrow=classic;html=1;rounded=0;exitX=1;exitY=0.25;exitDx=0;exitDy=0;entryX=0;entryY=0.3;entryDx=0;entryDy=0;fontFamily=Times New Roman;" parent="1" source="rmAro9_Zei-ayIsxM9XY-7" target="rmAro9_Zei-ayIsxM9XY-9" edge="1">
          <mxGeometry width="50" height="50" relative="1" as="geometry">
            <mxPoint x="447" y="98" as="sourcePoint" />
            <mxPoint x="497" y="48" as="targetPoint" />
          </mxGeometry>
        </mxCell>
        <mxCell id="rmAro9_Zei-ayIsxM9XY-11" value="" style="endArrow=classic;html=1;rounded=0;exitX=0;exitY=0.7;exitDx=0;exitDy=0;entryX=1;entryY=0.75;entryDx=0;entryDy=0;fontFamily=Times New Roman;" parent="1" source="rmAro9_Zei-ayIsxM9XY-9" target="rmAro9_Zei-ayIsxM9XY-7" edge="1">
          <mxGeometry width="50" height="50" relative="1" as="geometry">
            <mxPoint x="403" y="318" as="sourcePoint" />
            <mxPoint x="453" y="268" as="targetPoint" />
          </mxGeometry>
        </mxCell>
        <mxCell id="rmAro9_Zei-ayIsxM9XY-12" value="" style="endArrow=none;html=1;rounded=0;entryX=0;entryY=0.25;entryDx=0;entryDy=0;exitX=0.987;exitY=0.938;exitDx=0;exitDy=0;exitPerimeter=0;fontFamily=Times New Roman;" parent="1" source="rmAro9_Zei-ayIsxM9XY-4" target="rmAro9_Zei-ayIsxM9XY-7" edge="1">
          <mxGeometry width="50" height="50" relative="1" as="geometry">
            <mxPoint x="146" y="101" as="sourcePoint" />
            <mxPoint x="212" y="117" as="targetPoint" />
          </mxGeometry>
        </mxCell>
        <mxCell id="rmAro9_Zei-ayIsxM9XY-13" value="" style="endArrow=none;html=1;rounded=0;entryX=0;entryY=0.75;entryDx=0;entryDy=0;fontFamily=Times New Roman;" parent="1" source="rmAro9_Zei-ayIsxM9XY-5" target="rmAro9_Zei-ayIsxM9XY-7" edge="1">
          <mxGeometry width="50" height="50" relative="1" as="geometry">
            <mxPoint x="403" y="318" as="sourcePoint" />
            <mxPoint x="453" y="268" as="targetPoint" />
          </mxGeometry>
        </mxCell>
        <mxCell id="rmAro9_Zei-ayIsxM9XY-15" value="Информация для входа" style="shape=manualInput;whiteSpace=wrap;html=1;fontFamily=Times New Roman;" parent="1" vertex="1">
          <mxGeometry x="64" y="161" width="80" height="81" as="geometry" />
        </mxCell>
        <mxCell id="rmAro9_Zei-ayIsxM9XY-16" value="сообщение об ошибке" style="shape=display;whiteSpace=wrap;html=1;fontFamily=Times New Roman;" parent="1" vertex="1">
          <mxGeometry x="45" y="245" width="94" height="40" as="geometry" />
        </mxCell>
        <mxCell id="rmAro9_Zei-ayIsxM9XY-17" value="&lt;p class=&quot;MsoNormal&quot;&gt;&lt;font style=&quot;font-size: 11px;&quot;&gt;&lt;span style=&quot;letter-spacing: 0pt; background-image: initial; background-position: initial; background-size: initial; background-repeat: initial; background-attachment: initial; background-origin: initial; background-clip: initial;&quot;&gt;В&lt;/span&gt;&lt;span style=&quot;letter-spacing: 0pt; background-image: initial; background-position: initial; background-size: initial; background-repeat: initial; background-attachment: initial; background-origin: initial; background-clip: initial;&quot;&gt;ойти в&lt;/span&gt;&lt;span style=&quot;letter-spacing: 0pt; background-image: initial; background-position: initial; background-size: initial; background-repeat: initial; background-attachment: initial; background-origin: initial; background-clip: initial;&quot;&gt;&amp;nbsp;&lt;font face=&quot;Times New Roman&quot;&gt;с&lt;/font&gt;&lt;/span&gt;&lt;span style=&quot;letter-spacing: 0pt; background-image: initial; background-position: initial; background-size: initial; background-repeat: initial; background-attachment: initial; background-origin: initial; background-clip: initial;&quot;&gt;истему&lt;/span&gt;&lt;/font&gt;&lt;span style=&quot;mso-spacerun:&#39;yes&#39;;font-family:Calibri;mso-fareast-font-family:宋体;&lt;br/&gt;mso-bidi-font-family:&#39;Times New Roman&#39;;font-size:10.5000pt;mso-font-kerning:1.0000pt;&quot;&gt;&lt;/span&gt;&lt;/p&gt;" style="rounded=0;whiteSpace=wrap;html=1;fontFamily=Times New Roman;" parent="1" vertex="1">
          <mxGeometry x="305" y="221" width="120" height="60" as="geometry" />
        </mxCell>
        <mxCell id="rmAro9_Zei-ayIsxM9XY-18" value="" style="endArrow=none;html=1;rounded=0;entryX=0.5;entryY=1;entryDx=0;entryDy=0;fontFamily=Times New Roman;" parent="1" source="rmAro9_Zei-ayIsxM9XY-17" target="rmAro9_Zei-ayIsxM9XY-7" edge="1">
          <mxGeometry width="50" height="50" relative="1" as="geometry">
            <mxPoint x="249" y="254" as="sourcePoint" />
            <mxPoint x="365" y="185" as="targetPoint" />
          </mxGeometry>
        </mxCell>
        <mxCell id="rmAro9_Zei-ayIsxM9XY-19" value="&lt;b&gt;БД&lt;/b&gt;" style="shape=datastore;whiteSpace=wrap;html=1;fontFamily=Times New Roman;" parent="1" vertex="1">
          <mxGeometry x="528" y="212" width="60" height="78" as="geometry" />
        </mxCell>
        <mxCell id="rmAro9_Zei-ayIsxM9XY-20" value="" style="endArrow=classic;html=1;rounded=0;exitX=1;exitY=0.25;exitDx=0;exitDy=0;entryX=0;entryY=0.3;entryDx=0;entryDy=0;fontFamily=Times New Roman;" parent="1" source="rmAro9_Zei-ayIsxM9XY-17" target="rmAro9_Zei-ayIsxM9XY-19" edge="1">
          <mxGeometry width="50" height="50" relative="1" as="geometry">
            <mxPoint x="447" y="233" as="sourcePoint" />
            <mxPoint x="497" y="183" as="targetPoint" />
          </mxGeometry>
        </mxCell>
        <mxCell id="rmAro9_Zei-ayIsxM9XY-21" value="" style="endArrow=classic;html=1;rounded=0;exitX=0;exitY=0.7;exitDx=0;exitDy=0;entryX=1;entryY=0.75;entryDx=0;entryDy=0;fontFamily=Times New Roman;" parent="1" source="rmAro9_Zei-ayIsxM9XY-19" target="rmAro9_Zei-ayIsxM9XY-17" edge="1">
          <mxGeometry width="50" height="50" relative="1" as="geometry">
            <mxPoint x="403" y="453" as="sourcePoint" />
            <mxPoint x="453" y="403" as="targetPoint" />
          </mxGeometry>
        </mxCell>
        <mxCell id="rmAro9_Zei-ayIsxM9XY-22" value="" style="endArrow=none;html=1;rounded=0;entryX=0;entryY=0.25;entryDx=0;entryDy=0;fontFamily=Times New Roman;" parent="1" target="rmAro9_Zei-ayIsxM9XY-17" edge="1">
          <mxGeometry width="50" height="50" relative="1" as="geometry">
            <mxPoint x="146" y="236" as="sourcePoint" />
            <mxPoint x="212" y="252" as="targetPoint" />
          </mxGeometry>
        </mxCell>
        <mxCell id="rmAro9_Zei-ayIsxM9XY-23" value="" style="endArrow=none;html=1;rounded=0;entryX=0;entryY=0.75;entryDx=0;entryDy=0;fontFamily=Times New Roman;" parent="1" source="rmAro9_Zei-ayIsxM9XY-16" target="rmAro9_Zei-ayIsxM9XY-17" edge="1">
          <mxGeometry width="50" height="50" relative="1" as="geometry">
            <mxPoint x="403" y="453" as="sourcePoint" />
            <mxPoint x="453" y="403" as="targetPoint" />
          </mxGeometry>
        </mxCell>
        <mxCell id="rmAro9_Zei-ayIsxM9XY-24" value="Сохранить информацию о корзине" style="shape=manualInput;whiteSpace=wrap;html=1;fontFamily=Times New Roman;" parent="1" vertex="1">
          <mxGeometry x="62" y="330" width="80" height="94" as="geometry" />
        </mxCell>
        <mxCell id="rmAro9_Zei-ayIsxM9XY-26" value="Добавить товар в корзину" style="rounded=0;whiteSpace=wrap;html=1;fontFamily=Times New Roman;" parent="1" vertex="1">
          <mxGeometry x="305" y="355" width="120" height="60" as="geometry" />
        </mxCell>
        <mxCell id="rmAro9_Zei-ayIsxM9XY-27" value="" style="endArrow=none;html=1;rounded=0;entryX=0.5;entryY=1;entryDx=0;entryDy=0;fontFamily=Times New Roman;" parent="1" source="rmAro9_Zei-ayIsxM9XY-26" target="rmAro9_Zei-ayIsxM9XY-17" edge="1">
          <mxGeometry width="50" height="50" relative="1" as="geometry">
            <mxPoint x="247" y="388" as="sourcePoint" />
            <mxPoint x="365" y="305" as="targetPoint" />
          </mxGeometry>
        </mxCell>
        <mxCell id="rmAro9_Zei-ayIsxM9XY-28" value="БД" style="shape=datastore;whiteSpace=wrap;html=1;fontFamily=Times New Roman;" parent="1" vertex="1">
          <mxGeometry x="526" y="346" width="60" height="78" as="geometry" />
        </mxCell>
        <mxCell id="rmAro9_Zei-ayIsxM9XY-29" value="" style="endArrow=classic;html=1;rounded=0;exitX=1;exitY=0.25;exitDx=0;exitDy=0;entryX=0;entryY=0.3;entryDx=0;entryDy=0;fontFamily=Times New Roman;" parent="1" source="rmAro9_Zei-ayIsxM9XY-26" target="rmAro9_Zei-ayIsxM9XY-28" edge="1">
          <mxGeometry width="50" height="50" relative="1" as="geometry">
            <mxPoint x="445" y="367" as="sourcePoint" />
            <mxPoint x="495" y="317" as="targetPoint" />
          </mxGeometry>
        </mxCell>
        <mxCell id="rmAro9_Zei-ayIsxM9XY-30" value="" style="endArrow=classic;html=1;rounded=0;exitX=0;exitY=0.7;exitDx=0;exitDy=0;entryX=1;entryY=0.75;entryDx=0;entryDy=0;fontFamily=Times New Roman;" parent="1" source="rmAro9_Zei-ayIsxM9XY-28" target="rmAro9_Zei-ayIsxM9XY-26" edge="1">
          <mxGeometry width="50" height="50" relative="1" as="geometry">
            <mxPoint x="401" y="587" as="sourcePoint" />
            <mxPoint x="451" y="537" as="targetPoint" />
          </mxGeometry>
        </mxCell>
        <mxCell id="rmAro9_Zei-ayIsxM9XY-31" value="" style="endArrow=none;html=1;rounded=0;entryX=0;entryY=0.25;entryDx=0;entryDy=0;exitX=0.994;exitY=0.407;exitDx=0;exitDy=0;exitPerimeter=0;fontFamily=Times New Roman;" parent="1" source="rmAro9_Zei-ayIsxM9XY-24" target="rmAro9_Zei-ayIsxM9XY-26" edge="1">
          <mxGeometry width="50" height="50" relative="1" as="geometry">
            <mxPoint x="144" y="370" as="sourcePoint" />
            <mxPoint x="210" y="386" as="targetPoint" />
          </mxGeometry>
        </mxCell>
        <mxCell id="rmAro9_Zei-ayIsxM9XY-33" value="&lt;p class=&quot;MsoNormal&quot;&gt;&lt;font style=&quot;font-size: 11px;&quot;&gt;&lt;span style=&quot;letter-spacing: 0pt; background-image: initial; background-position: initial; background-size: initial; background-repeat: initial; background-attachment: initial; background-origin: initial; background-clip: initial;&quot;&gt;О&lt;/span&gt;&lt;span style=&quot;letter-spacing: 0pt; background-image: initial; background-position: initial; background-size: initial; background-repeat: initial; background-attachment: initial; background-origin: initial; background-clip: initial;&quot;&gt;нлайн-платеж&lt;/span&gt;&lt;/font&gt;&lt;span style=&quot;mso-spacerun:&#39;yes&#39;;font-family:Calibri;mso-fareast-font-family:宋体;&lt;br/&gt;mso-bidi-font-family:&#39;Times New Roman&#39;;font-size:10.5000pt;mso-font-kerning:1.0000pt;&quot;&gt;&lt;/span&gt;&lt;/p&gt;" style="rhombus;whiteSpace=wrap;html=1;fontFamily=Times New Roman;" parent="1" vertex="1">
          <mxGeometry x="285" y="468" width="160" height="80" as="geometry" />
        </mxCell>
        <mxCell id="rmAro9_Zei-ayIsxM9XY-39" value="" style="endArrow=none;html=1;rounded=0;entryX=0.5;entryY=1;entryDx=0;entryDy=0;fontFamily=Times New Roman;" parent="1" source="rmAro9_Zei-ayIsxM9XY-33" target="rmAro9_Zei-ayIsxM9XY-26" edge="1">
          <mxGeometry width="50" height="50" relative="1" as="geometry">
            <mxPoint x="249" y="484" as="sourcePoint" />
            <mxPoint x="299" y="434" as="targetPoint" />
          </mxGeometry>
        </mxCell>
        <mxCell id="rmAro9_Zei-ayIsxM9XY-40" value="Оплата" style="rounded=0;whiteSpace=wrap;html=1;fontFamily=Times New Roman;" parent="1" vertex="1">
          <mxGeometry x="305" y="598" width="120" height="60" as="geometry" />
        </mxCell>
        <mxCell id="rmAro9_Zei-ayIsxM9XY-41" value="" style="endArrow=none;html=1;rounded=0;entryX=0.5;entryY=1;entryDx=0;entryDy=0;fontFamily=Times New Roman;" parent="1" source="rmAro9_Zei-ayIsxM9XY-40" target="rmAro9_Zei-ayIsxM9XY-33" edge="1">
          <mxGeometry width="50" height="50" relative="1" as="geometry">
            <mxPoint x="227" y="590" as="sourcePoint" />
            <mxPoint x="277" y="540" as="targetPoint" />
          </mxGeometry>
        </mxCell>
        <mxCell id="rmAro9_Zei-ayIsxM9XY-42" value="是" style="edgeLabel;html=1;align=center;verticalAlign=middle;resizable=0;points=[];fontFamily=Times New Roman;" parent="rmAro9_Zei-ayIsxM9XY-41" vertex="1" connectable="0">
          <mxGeometry x="0.043" y="4" relative="1" as="geometry">
            <mxPoint as="offset" />
          </mxGeometry>
        </mxCell>
        <mxCell id="cvwyiPOw1aJitjmrE1KZ-2" value="да" style="edgeLabel;html=1;align=center;verticalAlign=middle;resizable=0;points=[];" parent="rmAro9_Zei-ayIsxM9XY-41" vertex="1" connectable="0">
          <mxGeometry x="0.1717" y="6" relative="1" as="geometry">
            <mxPoint as="offset" />
          </mxGeometry>
        </mxCell>
        <mxCell id="rmAro9_Zei-ayIsxM9XY-43" value="БД" style="shape=datastore;whiteSpace=wrap;html=1;fontFamily=Times New Roman;" parent="1" vertex="1">
          <mxGeometry x="528" y="589" width="60" height="78" as="geometry" />
        </mxCell>
        <mxCell id="rmAro9_Zei-ayIsxM9XY-44" value="" style="endArrow=classic;html=1;rounded=0;exitX=1;exitY=0.25;exitDx=0;exitDy=0;entryX=0;entryY=0.3;entryDx=0;entryDy=0;fontFamily=Times New Roman;" parent="1" target="rmAro9_Zei-ayIsxM9XY-43" edge="1">
          <mxGeometry width="50" height="50" relative="1" as="geometry">
            <mxPoint x="427" y="613" as="sourcePoint" />
            <mxPoint x="497" y="560" as="targetPoint" />
          </mxGeometry>
        </mxCell>
        <mxCell id="rmAro9_Zei-ayIsxM9XY-45" value="" style="endArrow=classic;html=1;rounded=0;exitX=0;exitY=0.7;exitDx=0;exitDy=0;entryX=1;entryY=0.75;entryDx=0;entryDy=0;fontFamily=Times New Roman;" parent="1" source="rmAro9_Zei-ayIsxM9XY-43" edge="1">
          <mxGeometry width="50" height="50" relative="1" as="geometry">
            <mxPoint x="403" y="830" as="sourcePoint" />
            <mxPoint x="427" y="643" as="targetPoint" />
          </mxGeometry>
        </mxCell>
        <mxCell id="rmAro9_Zei-ayIsxM9XY-46" value="Создавайте заказы" style="shape=manualInput;whiteSpace=wrap;html=1;fontFamily=Times New Roman;" parent="1" vertex="1">
          <mxGeometry x="64" y="589" width="80" height="79" as="geometry" />
        </mxCell>
        <mxCell id="rmAro9_Zei-ayIsxM9XY-47" value="Посмотреть заказ" style="rounded=0;whiteSpace=wrap;html=1;fontFamily=Times New Roman;" parent="1" vertex="1">
          <mxGeometry x="305" y="742" width="120" height="60" as="geometry" />
        </mxCell>
        <mxCell id="rmAro9_Zei-ayIsxM9XY-49" value="БД" style="shape=datastore;whiteSpace=wrap;html=1;fontFamily=Times New Roman;" parent="1" vertex="1">
          <mxGeometry x="528" y="733" width="60" height="78" as="geometry" />
        </mxCell>
        <mxCell id="rmAro9_Zei-ayIsxM9XY-50" value="" style="endArrow=classic;html=1;rounded=0;exitX=1;exitY=0.25;exitDx=0;exitDy=0;entryX=0;entryY=0.3;entryDx=0;entryDy=0;fontFamily=Times New Roman;" parent="1" target="rmAro9_Zei-ayIsxM9XY-49" edge="1">
          <mxGeometry width="50" height="50" relative="1" as="geometry">
            <mxPoint x="427" y="757" as="sourcePoint" />
            <mxPoint x="497" y="704" as="targetPoint" />
          </mxGeometry>
        </mxCell>
        <mxCell id="rmAro9_Zei-ayIsxM9XY-51" value="" style="endArrow=classic;html=1;rounded=0;exitX=0;exitY=0.7;exitDx=0;exitDy=0;entryX=1;entryY=0.75;entryDx=0;entryDy=0;fontFamily=Times New Roman;" parent="1" source="rmAro9_Zei-ayIsxM9XY-49" edge="1">
          <mxGeometry width="50" height="50" relative="1" as="geometry">
            <mxPoint x="403" y="974" as="sourcePoint" />
            <mxPoint x="427" y="787" as="targetPoint" />
          </mxGeometry>
        </mxCell>
        <mxCell id="rmAro9_Zei-ayIsxM9XY-52" value="" style="endArrow=none;html=1;rounded=0;entryX=0.5;entryY=1;entryDx=0;entryDy=0;exitX=0.5;exitY=0;exitDx=0;exitDy=0;fontFamily=Times New Roman;" parent="1" source="rmAro9_Zei-ayIsxM9XY-47" target="rmAro9_Zei-ayIsxM9XY-40" edge="1">
          <mxGeometry width="50" height="50" relative="1" as="geometry">
            <mxPoint x="375" y="478" as="sourcePoint" />
            <mxPoint x="375" y="425" as="targetPoint" />
          </mxGeometry>
        </mxCell>
        <mxCell id="rmAro9_Zei-ayIsxM9XY-53" value="" style="endArrow=none;html=1;rounded=0;entryX=0;entryY=0.5;entryDx=0;entryDy=0;exitX=1;exitY=0.5;exitDx=0;exitDy=0;fontFamily=Times New Roman;" parent="1" source="rmAro9_Zei-ayIsxM9XY-46" target="rmAro9_Zei-ayIsxM9XY-40" edge="1">
          <mxGeometry width="50" height="50" relative="1" as="geometry">
            <mxPoint x="159" y="628" as="sourcePoint" />
            <mxPoint x="315" y="380" as="targetPoint" />
          </mxGeometry>
        </mxCell>
        <mxCell id="rmAro9_Zei-ayIsxM9XY-54" value="" style="endArrow=none;html=1;rounded=0;entryX=0.5;entryY=1;entryDx=0;entryDy=0;exitX=0.5;exitY=0;exitDx=0;exitDy=0;fontFamily=Times New Roman;" parent="1" source="rmAro9_Zei-ayIsxM9XY-3" target="rmAro9_Zei-ayIsxM9XY-47" edge="1">
          <mxGeometry width="50" height="50" relative="1" as="geometry">
            <mxPoint x="188" y="841.79" as="sourcePoint" />
            <mxPoint x="238" y="791.79" as="targetPoint" />
          </mxGeometry>
        </mxCell>
        <mxCell id="rmAro9_Zei-ayIsxM9XY-55" value="" style="endArrow=none;html=1;rounded=0;exitX=1;exitY=0.5;exitDx=0;exitDy=0;fontFamily=Times New Roman;" parent="1" source="rmAro9_Zei-ayIsxM9XY-33" edge="1">
          <mxGeometry width="50" height="50" relative="1" as="geometry">
            <mxPoint x="505" y="531" as="sourcePoint" />
            <mxPoint x="365" y="835" as="targetPoint" />
            <Array as="points">
              <mxPoint x="656" y="508" />
              <mxPoint x="656" y="835" />
            </Array>
          </mxGeometry>
        </mxCell>
        <mxCell id="rmAro9_Zei-ayIsxM9XY-56" value="нет" style="edgeLabel;html=1;align=center;verticalAlign=middle;resizable=0;points=[];fontFamily=Times New Roman;" parent="rmAro9_Zei-ayIsxM9XY-55" vertex="1" connectable="0">
          <mxGeometry x="-0.8514" y="2" relative="1" as="geometry">
            <mxPoint as="offset" />
          </mxGeometry>
        </mxCell>
        <mxCell id="rmAro9_Zei-ayIsxM9XY-58" value="Получить информацию о заказе" style="shape=manualInput;whiteSpace=wrap;html=1;fontFamily=Times New Roman;" parent="1" vertex="1">
          <mxGeometry x="59" y="679" width="80" height="92" as="geometry" />
        </mxCell>
        <mxCell id="rmAro9_Zei-ayIsxM9XY-59" value="" style="endArrow=none;html=1;rounded=0;entryX=0;entryY=0.157;entryDx=0;entryDy=0;entryPerimeter=0;exitX=1;exitY=0.75;exitDx=0;exitDy=0;fontFamily=Times New Roman;" parent="1" source="rmAro9_Zei-ayIsxM9XY-58" target="rmAro9_Zei-ayIsxM9XY-47" edge="1">
          <mxGeometry width="50" height="50" relative="1" as="geometry">
            <mxPoint x="144" y="753" as="sourcePoint" />
            <mxPoint x="255" y="724" as="targetPoint" />
          </mxGeometry>
        </mxCell>
        <mxCell id="rmAro9_Zei-ayIsxM9XY-60" value="Каталог заказов" style="shape=display;whiteSpace=wrap;html=1;fontFamily=Times New Roman;" parent="1" vertex="1">
          <mxGeometry x="59" y="774" width="80" height="40" as="geometry" />
        </mxCell>
        <mxCell id="rmAro9_Zei-ayIsxM9XY-61" value="" style="endArrow=none;html=1;rounded=0;exitX=1;exitY=0.5;exitDx=0;exitDy=0;entryX=0.014;entryY=0.856;entryDx=0;entryDy=0;exitPerimeter=0;entryPerimeter=0;fontFamily=Times New Roman;" parent="1" source="rmAro9_Zei-ayIsxM9XY-60" target="rmAro9_Zei-ayIsxM9XY-47" edge="1">
          <mxGeometry width="50" height="50" relative="1" as="geometry">
            <mxPoint x="149" y="768" as="sourcePoint" />
            <mxPoint x="315" y="767" as="targetPoint" />
          </mxGeometry>
        </mxCell>
        <UserObject label="" plantUmlData="{&#xa;  &quot;data&quot;: &quot;@startuml\n&#39; Appearance settings\nhide circle\nskinparam linetype ortho\nskinparam classAttributeIconSize 0\nskinparam ArrowColor #505050\nskinparam ClassBackgroundColor #F8F8F8\nskinparam ClassBorderColor #505050\nskinparam ClassHeaderBackgroundColor #E0E0E0\n\n&#39; Entity Definitions (Tables)\nentity users {\n  + user_id : int &lt;&lt;PK&gt;&gt;\n  --\n  first_name : varchar(50)\n  last_name : varchar(50)\n  email : varchar(100) &lt;&lt;unique&gt;&gt;\n  password : varchar(255)\n  address : longtext\n  phone_number : varchar(15)\n  created_at : timestamp\n}\n\nentity admin {\n  + admin_id : int &lt;&lt;PK&gt;&gt;\n  --\n  # user_id : int &lt;&lt;FK&gt;&gt;\n}\n\nentity merchant {\n  + merchant_id : int &lt;&lt;PK&gt;&gt;\n  --\n  # user_id : int &lt;&lt;FK&gt;&gt;\n  shop_name : varchar(100)\n  shop_phone : varchar(100)\n  shop_description : longtext\n}\n\nentity carts {\n  + cart_id : int &lt;&lt;PK&gt;&gt;\n  --\n  # user_id : int &lt;&lt;FK&gt;&gt;\n  created_at : timestamp\n}\n\nentity products {\n  + product_id : int &lt;&lt;PK&gt;&gt;\n  --\n  # category_id : int &lt;&lt;FK&gt;&gt;\n  # supplier_id : int &lt;&lt;FK&gt;&gt; {nullable}\n  product_name : varchar(255)\n  product_image_url : varchar(255)\n  description : longtext\n  price : decimal(12, 2)\n  stock_quantity : int\n  sales : int\n  product_status : varchar(255)\n}\n\nentity category {\n  + category_id : int &lt;&lt;PK&gt;&gt;\n  --\n  category_name : varchar(50) &lt;&lt;unique&gt;&gt;\n}\n\nentity suppliers {\n  + supplier_id : int &lt;&lt;PK&gt;&gt;\n  --\n  supplier_name : varchar(100) &lt;&lt;unique&gt;&gt;\n  contact_person : varchar(50)\n  email : varchar(100)\n  phone_number : varchar(20)\n  address : longtext\n  created_at : timestamp\n  updated_at : timestamp\n}\n\nentity cart_items {\n  + cart_item_id : int &lt;&lt;PK&gt;&gt;\n  --\n  # cart_id : int &lt;&lt;FK&gt;&gt;\n  # product_id : int &lt;&lt;FK&gt;&gt;\n  quantity : int\n}\n\nentity orders {\n  + order_id : int &lt;&lt;PK&gt;&gt;\n  --\n  # user_id : int &lt;&lt;FK&gt;&gt;\n  order_date : timestamp\n  total_amount : decimal(12, 2)\n  order_status : varchar(255)\n}\n\nentity order_detail {\n  + order_detail_id : int &lt;&lt;PK&gt;&gt;\n  --\n  # order_id : int &lt;&lt;FK&gt;&gt;\n  # product_id : int &lt;&lt;FK&gt;&gt;\n  cart_quantity : int\n  price : decimal(12, 2)\n}\n\nentity user_reviews {\n  + review_id : int &lt;&lt;PK&gt;&gt;\n  --\n  # product_id : int &lt;&lt;FK&gt;&gt;\n  # user_id : int &lt;&lt;FK&gt;&gt;\n  review_text : longtext\n  rating : tinyint {nullable}\n  review_date : timestamp\n}\n\n\n&#39; Relationships\nusers \&quot;1\&quot; ||--o{ \&quot;0..1\&quot; admin : \&quot;has role\&quot;\nusers \&quot;1\&quot; ||--o{ \&quot;0..1\&quot; merchant : \&quot;has role\&quot;\nusers \&quot;1\&quot; ||--|| \&quot;1\&quot; carts : \&quot;owns\&quot;\nusers \&quot;1\&quot; }o--|| \&quot;0..N\&quot; orders : \&quot;places\&quot;\nusers \&quot;1\&quot; }o--|| \&quot;0..N\&quot; user_reviews : \&quot;writes\&quot;\n\ncarts \&quot;1\&quot; }o--|| \&quot;0..N\&quot; cart_items : \&quot;contains\&quot;\nproducts \&quot;1\&quot; }o--|| \&quot;0..N\&quot; cart_items : \&quot;is item in\&quot;\n\ncategory \&quot;1\&quot; }o--|| \&quot;0..N\&quot; products : \&quot;groups\&quot;\nsuppliers \&quot;1\&quot; }o--|| \&quot;0..N\&quot; products : \&quot;supplies\&quot; &#39; \n&#39; products \&quot;0..1\&quot;--|| \&quot;1\&quot; suppliers : \&quot;supplied by\&quot; &#39; \n\norders \&quot;1\&quot; }o--|| \&quot;1..N\&quot; order_detail : \&quot;contains\&quot; &#39;\nproducts \&quot;1\&quot; }o--|| \&quot;0..N\&quot; order_detail : \&quot;is item in\&quot;\n\nproducts \&quot;1\&quot; }o--|| \&quot;0..N\&quot; user_reviews : \&quot;receives\&quot;\n\n\n@enduml&quot;,&#xa;  &quot;format&quot;: &quot;svg&quot;&#xa;}" id="6DKaOPzmzB-6SQNTmBMJ-1">
          <mxCell style="shape=image;noLabel=1;verticalAlign=top;aspect=fixed;imageAspect=0;image=data:image/svg+xml,PHN2ZyB4bWxucz0iaHR0cDovL3d3dy53My5vcmcvMjAwMC9zdmciIHhtbG5zOnhsaW5rPSJodHRwOi8vd3d3LnczLm9yZy8xOTk5L3hsaW5rIiBjb250ZW50U3R5bGVUeXBlPSJ0ZXh0L2NzcyIgZGF0YS1kaWFncmFtLXR5cGU9IkNMQVNTIiBoZWlnaHQ9IjYxNnB4IiBwcmVzZXJ2ZUFzcGVjdFJhdGlvPSJub25lIiBzdHlsZT0id2lkdGg6MTM3MnB4O2hlaWdodDo2MTZweDtiYWNrZ3JvdW5kOiNGRkZGRkY7IiB2ZXJzaW9uPSIxLjEiIHZpZXdCb3g9IjAgMCAxMzcyIDYxNiIgd2lkdGg9IjEzNzJweCIgem9vbUFuZFBhbj0ibWFnbmlmeSI+PGRlZnMvPjxnPjwhLS1jbGFzcyB1c2Vycy0tPjxnIGNsYXNzPSJlbnRpdHkiIGRhdGEtZW50aXR5PSJ1c2VycyIgZGF0YS1zb3VyY2UtbGluZT0iMTEiIGRhdGEtdWlkPSJlbnQwMDAyIiBpZD0iZW50aXR5X3VzZXJzIj48cmVjdCBmaWxsPSIjRjhGOEY4IiBoZWlnaHQ9IjE2MC44NTk0IiByeD0iMi41IiByeT0iMi41IiBzdHlsZT0ic3Ryb2tlOiM1MDUwNTA7c3Ryb2tlLXdpZHRoOjAuNTsiIHdpZHRoPSIyMTUiIHg9IjM0MSIgeT0iNyIvPjxyZWN0IGZpbGw9IiNFMEUwRTAiIGhlaWdodD0iMjQuOTg0NCIgcng9IjIuNSIgcnk9IjIuNSIgc3R5bGU9InN0cm9rZTojRTBFMEUwO3N0cm9rZS13aWR0aDowLjU7IiB3aWR0aD0iMjE1IiB4PSIzNDEiIHk9IjciLz48cmVjdCBmaWxsPSIjRTBFMEUwIiBoZWlnaHQ9IjIuNSIgc3R5bGU9InN0cm9rZTojRTBFMEUwO3N0cm9rZS13aWR0aDowLjU7IiB3aWR0aD0iMjE1IiB4PSIzNDEiIHk9IjI5LjQ4NDQiLz48cmVjdCBmaWxsPSJub25lIiBoZWlnaHQ9IjE2MC44NTk0IiByeD0iMi41IiByeT0iMi41IiBzdHlsZT0ic3Ryb2tlOiM1MDUwNTA7c3Ryb2tlLXdpZHRoOjAuNTsiIHdpZHRoPSIyMTUiIHg9IjM0MSIgeT0iNyIvPjx0ZXh0IGZpbGw9IiMwMDAwMDAiIGZvbnQtZmFtaWx5PSJzYW5zLXNlcmlmIiBmb250LXNpemU9IjE0IiBsZW5ndGhBZGp1c3Q9InNwYWNpbmciIHRleHRMZW5ndGg9IjM1IiB4PSI0MzEiIHk9IjI1LjIzNDQiPnVzZXJzPC90ZXh0PjxsaW5lIHN0eWxlPSJzdHJva2U6IzUwNTA1MDtzdHJva2Utd2lkdGg6MC41OyIgeDE9IjM0MiIgeDI9IjU1NSIgeTE9IjMxLjk4NDQiIHkyPSIzMS45ODQ0Ii8+PHRleHQgZmlsbD0iIzAwMDAwMCIgZm9udC1mYW1pbHk9InNhbnMtc2VyaWYiIGZvbnQtc2l6ZT0iMTQiIGxlbmd0aEFkanVzdD0ic3BhY2luZyIgdGV4dExlbmd0aD0iMTMzIiB4PSIzNDciIHk9IjQ5LjIxODgiPit1c2VyX2lkIDogaW50ICYjMTcxO1BLJiMxODc7PC90ZXh0PjxsaW5lIHN0eWxlPSJzdHJva2U6IzUwNTA1MDtzdHJva2Utd2lkdGg6MTsiIHgxPSIzNDIiIHgyPSI1NTUiIHkxPSI1NC45Njg4IiB5Mj0iNTQuOTY4OCIvPjx0ZXh0IGZpbGw9IiMwMDAwMDAiIGZvbnQtZmFtaWx5PSJzYW5zLXNlcmlmIiBmb250LXNpemU9IjE0IiBsZW5ndGhBZGp1c3Q9InNwYWNpbmciIHRleHRMZW5ndGg9IjE2OCIgeD0iMzQ3IiB5PSI3Mi4yMDMxIj5maXJzdF9uYW1lIDogdmFyY2hhcig1MCk8L3RleHQ+PHRleHQgZmlsbD0iIzAwMDAwMCIgZm9udC1mYW1pbHk9InNhbnMtc2VyaWYiIGZvbnQtc2l6ZT0iMTQiIGxlbmd0aEFkanVzdD0ic3BhY2luZyIgdGV4dExlbmd0aD0iMTYxIiB4PSIzNDciIHk9Ijg3LjE4NzUiPmxhc3RfbmFtZSA6IHZhcmNoYXIoNTApPC90ZXh0Pjx0ZXh0IGZpbGw9IiMwMDAwMDAiIGZvbnQtZmFtaWx5PSJzYW5zLXNlcmlmIiBmb250LXNpemU9IjE0IiBsZW5ndGhBZGp1c3Q9InNwYWNpbmciIHRleHRMZW5ndGg9IjIwMyIgeD0iMzQ3IiB5PSIxMDIuMTcxOSI+ZW1haWwgOiB2YXJjaGFyKDEwMCkgJiMxNzE7dW5pcXVlJiMxODc7PC90ZXh0Pjx0ZXh0IGZpbGw9IiMwMDAwMDAiIGZvbnQtZmFtaWx5PSJzYW5zLXNlcmlmIiBmb250LXNpemU9IjE0IiBsZW5ndGhBZGp1c3Q9InNwYWNpbmciIHRleHRMZW5ndGg9IjE2MSIgeD0iMzQ3IiB5PSIxMTcuMTU2MyI+cGFzc3dvcmQgOiB2YXJjaGFyKDI1NSk8L3RleHQ+PHRleHQgZmlsbD0iIzAwMDAwMCIgZm9udC1mYW1pbHk9InNhbnMtc2VyaWYiIGZvbnQtc2l6ZT0iMTQiIGxlbmd0aEFkanVzdD0ic3BhY2luZyIgdGV4dExlbmd0aD0iMTI2IiB4PSIzNDciIHk9IjEzMi4xNDA2Ij5hZGRyZXNzIDogbG9uZ3RleHQ8L3RleHQ+PHRleHQgZmlsbD0iIzAwMDAwMCIgZm9udC1mYW1pbHk9InNhbnMtc2VyaWYiIGZvbnQtc2l6ZT0iMTQiIGxlbmd0aEFkanVzdD0ic3BhY2luZyIgdGV4dExlbmd0aD0iMTgyIiB4PSIzNDciIHk9IjE0Ny4xMjUiPnBob25lX251bWJlciA6IHZhcmNoYXIoMTUpPC90ZXh0Pjx0ZXh0IGZpbGw9IiMwMDAwMDAiIGZvbnQtZmFtaWx5PSJzYW5zLXNlcmlmIiBmb250LXNpemU9IjE0IiBsZW5ndGhBZGp1c3Q9InNwYWNpbmciIHRleHRMZW5ndGg9IjE1NCIgeD0iMzQ3IiB5PSIxNjIuMTA5NCI+Y3JlYXRlZF9hdCA6IHRpbWVzdGFtcDwvdGV4dD48L2c+PCEtLWNsYXNzIGFkbWluLS0+PGcgY2xhc3M9ImVudGl0eSIgZGF0YS1lbnRpdHk9ImFkbWluIiBkYXRhLXNvdXJjZS1saW5lPSIyMyIgZGF0YS11aWQ9ImVudDAwMDMiIGlkPSJlbnRpdHlfYWRtaW4iPjxyZWN0IGZpbGw9IiNGOEY4RjgiIGhlaWdodD0iNzAuOTUzMSIgcng9IjIuNSIgcnk9IjIuNSIgc3R5bGU9InN0cm9rZTojNTA1MDUwO3N0cm9rZS13aWR0aDowLjU7IiB3aWR0aD0iMTUyIiB4PSIyNDMuNSIgeT0iMjg4Ii8+PHJlY3QgZmlsbD0iI0UwRTBFMCIgaGVpZ2h0PSIyNC45ODQ0IiByeD0iMi41IiByeT0iMi41IiBzdHlsZT0ic3Ryb2tlOiNFMEUwRTA7c3Ryb2tlLXdpZHRoOjAuNTsiIHdpZHRoPSIxNTIiIHg9IjI0My41IiB5PSIyODgiLz48cmVjdCBmaWxsPSIjRTBFMEUwIiBoZWlnaHQ9IjIuNSIgc3R5bGU9InN0cm9rZTojRTBFMEUwO3N0cm9rZS13aWR0aDowLjU7IiB3aWR0aD0iMTUyIiB4PSIyNDMuNSIgeT0iMzEwLjQ4NDQiLz48cmVjdCBmaWxsPSJub25lIiBoZWlnaHQ9IjcwLjk1MzEiIHJ4PSIyLjUiIHJ5PSIyLjUiIHN0eWxlPSJzdHJva2U6IzUwNTA1MDtzdHJva2Utd2lkdGg6MC41OyIgd2lkdGg9IjE1MiIgeD0iMjQzLjUiIHk9IjI4OCIvPjx0ZXh0IGZpbGw9IiMwMDAwMDAiIGZvbnQtZmFtaWx5PSJzYW5zLXNlcmlmIiBmb250LXNpemU9IjE0IiBsZW5ndGhBZGp1c3Q9InNwYWNpbmciIHRleHRMZW5ndGg9IjM1IiB4PSIzMDIiIHk9IjMwNi4yMzQ0Ij5hZG1pbjwvdGV4dD48bGluZSBzdHlsZT0ic3Ryb2tlOiM1MDUwNTA7c3Ryb2tlLXdpZHRoOjAuNTsiIHgxPSIyNDQuNSIgeDI9IjM5NC41IiB5MT0iMzEyLjk4NDQiIHkyPSIzMTIuOTg0NCIvPjx0ZXh0IGZpbGw9IiMwMDAwMDAiIGZvbnQtZmFtaWx5PSJzYW5zLXNlcmlmIiBmb250LXNpemU9IjE0IiBsZW5ndGhBZGp1c3Q9InNwYWNpbmciIHRleHRMZW5ndGg9IjE0MCIgeD0iMjQ5LjUiIHk9IjMzMC4yMTg4Ij4rYWRtaW5faWQgOiBpbnQgJiMxNzE7UEsmIzE4Nzs8L3RleHQ+PGxpbmUgc3R5bGU9InN0cm9rZTojNTA1MDUwO3N0cm9rZS13aWR0aDoxOyIgeDE9IjI0NC41IiB4Mj0iMzk0LjUiIHkxPSIzMzUuOTY4OCIgeTI9IjMzNS45Njg4Ii8+PHRleHQgZmlsbD0iIzAwMDAwMCIgZm9udC1mYW1pbHk9InNhbnMtc2VyaWYiIGZvbnQtc2l6ZT0iMTQiIGxlbmd0aEFkanVzdD0ic3BhY2luZyIgdGV4dExlbmd0aD0iMTMzIiB4PSIyNDkuNSIgeT0iMzUzLjIwMzEiPiN1c2VyX2lkIDogaW50ICYjMTcxO0ZLJiMxODc7PC90ZXh0PjwvZz48IS0tY2xhc3MgbWVyY2hhbnQtLT48ZyBjbGFzcz0iZW50aXR5IiBkYXRhLWVudGl0eT0ibWVyY2hhbnQiIGRhdGEtc291cmNlLWxpbmU9IjI5IiBkYXRhLXVpZD0iZW50MDAwNCIgaWQ9ImVudGl0eV9tZXJjaGFudCI+PHJlY3QgZmlsbD0iI0Y4RjhGOCIgaGVpZ2h0PSIxMTUuOTA2MyIgcng9IjIuNSIgcnk9IjIuNSIgc3R5bGU9InN0cm9rZTojNTA1MDUwO3N0cm9rZS13aWR0aDowLjU7IiB3aWR0aD0iMjAxIiB4PSI3IiB5PSIyNjUuNSIvPjxyZWN0IGZpbGw9IiNFMEUwRTAiIGhlaWdodD0iMjQuOTg0NCIgcng9IjIuNSIgcnk9IjIuNSIgc3R5bGU9InN0cm9rZTojRTBFMEUwO3N0cm9rZS13aWR0aDowLjU7IiB3aWR0aD0iMjAxIiB4PSI3IiB5PSIyNjUuNSIvPjxyZWN0IGZpbGw9IiNFMEUwRTAiIGhlaWdodD0iMi41IiBzdHlsZT0ic3Ryb2tlOiNFMEUwRTA7c3Ryb2tlLXdpZHRoOjAuNTsiIHdpZHRoPSIyMDEiIHg9IjciIHk9IjI4Ny45ODQ0Ii8+PHJlY3QgZmlsbD0ibm9uZSIgaGVpZ2h0PSIxMTUuOTA2MyIgcng9IjIuNSIgcnk9IjIuNSIgc3R5bGU9InN0cm9rZTojNTA1MDUwO3N0cm9rZS13aWR0aDowLjU7IiB3aWR0aD0iMjAxIiB4PSI3IiB5PSIyNjUuNSIvPjx0ZXh0IGZpbGw9IiMwMDAwMDAiIGZvbnQtZmFtaWx5PSJzYW5zLXNlcmlmIiBmb250LXNpemU9IjE0IiBsZW5ndGhBZGp1c3Q9InNwYWNpbmciIHRleHRMZW5ndGg9IjU2IiB4PSI3OS41IiB5PSIyODMuNzM0NCI+bWVyY2hhbnQ8L3RleHQ+PGxpbmUgc3R5bGU9InN0cm9rZTojNTA1MDUwO3N0cm9rZS13aWR0aDowLjU7IiB4MT0iOCIgeDI9IjIwNyIgeTE9IjI5MC40ODQ0IiB5Mj0iMjkwLjQ4NDQiLz48dGV4dCBmaWxsPSIjMDAwMDAwIiBmb250LWZhbWlseT0ic2Fucy1zZXJpZiIgZm9udC1zaXplPSIxNCIgbGVuZ3RoQWRqdXN0PSJzcGFjaW5nIiB0ZXh0TGVuZ3RoPSIxNjEiIHg9IjEzIiB5PSIzMDcuNzE4OCI+K21lcmNoYW50X2lkIDogaW50ICYjMTcxO1BLJiMxODc7PC90ZXh0PjxsaW5lIHN0eWxlPSJzdHJva2U6IzUwNTA1MDtzdHJva2Utd2lkdGg6MTsiIHgxPSI4IiB4Mj0iMjA3IiB5MT0iMzEzLjQ2ODgiIHkyPSIzMTMuNDY4OCIvPjx0ZXh0IGZpbGw9IiMwMDAwMDAiIGZvbnQtZmFtaWx5PSJzYW5zLXNlcmlmIiBmb250LXNpemU9IjE0IiBsZW5ndGhBZGp1c3Q9InNwYWNpbmciIHRleHRMZW5ndGg9IjEzMyIgeD0iMTMiIHk9IjMzMC43MDMxIj4jdXNlcl9pZCA6IGludCAmIzE3MTtGSyYjMTg3OzwvdGV4dD48dGV4dCBmaWxsPSIjMDAwMDAwIiBmb250LWZhbWlseT0ic2Fucy1zZXJpZiIgZm9udC1zaXplPSIxNCIgbGVuZ3RoQWRqdXN0PSJzcGFjaW5nIiB0ZXh0TGVuZ3RoPSIxNjgiIHg9IjEzIiB5PSIzNDUuNjg3NSI+c2hvcF9uYW1lIDogdmFyY2hhcigxMDApPC90ZXh0Pjx0ZXh0IGZpbGw9IiMwMDAwMDAiIGZvbnQtZmFtaWx5PSJzYW5zLXNlcmlmIiBmb250LXNpemU9IjE0IiBsZW5ndGhBZGp1c3Q9InNwYWNpbmciIHRleHRMZW5ndGg9IjE3NSIgeD0iMTMiIHk9IjM2MC42NzE5Ij5zaG9wX3Bob25lIDogdmFyY2hhcigxMDApPC90ZXh0Pjx0ZXh0IGZpbGw9IiMwMDAwMDAiIGZvbnQtZmFtaWx5PSJzYW5zLXNlcmlmIiBmb250LXNpemU9IjE0IiBsZW5ndGhBZGp1c3Q9InNwYWNpbmciIHRleHRMZW5ndGg9IjE4OSIgeD0iMTMiIHk9IjM3NS42NTYzIj5zaG9wX2Rlc2NyaXB0aW9uIDogbG9uZ3RleHQ8L3RleHQ+PC9nPjwhLS1jbGFzcyBjYXJ0cy0tPjxnIGNsYXNzPSJlbnRpdHkiIGRhdGEtZW50aXR5PSJjYXJ0cyIgZGF0YS1zb3VyY2UtbGluZT0iMzgiIGRhdGEtdWlkPSJlbnQwMDA1IiBpZD0iZW50aXR5X2NhcnRzIj48cmVjdCBmaWxsPSIjRjhGOEY4IiBoZWlnaHQ9Ijg1LjkzNzUiIHJ4PSIyLjUiIHJ5PSIyLjUiIHN0eWxlPSJzdHJva2U6IzUwNTA1MDtzdHJva2Utd2lkdGg6MC41OyIgd2lkdGg9IjE2NiIgeD0iNTAxLjUiIHk9IjI4MC41Ii8+PHJlY3QgZmlsbD0iI0UwRTBFMCIgaGVpZ2h0PSIyNC45ODQ0IiByeD0iMi41IiByeT0iMi41IiBzdHlsZT0ic3Ryb2tlOiNFMEUwRTA7c3Ryb2tlLXdpZHRoOjAuNTsiIHdpZHRoPSIxNjYiIHg9IjUwMS41IiB5PSIyODAuNSIvPjxyZWN0IGZpbGw9IiNFMEUwRTAiIGhlaWdodD0iMi41IiBzdHlsZT0ic3Ryb2tlOiNFMEUwRTA7c3Ryb2tlLXdpZHRoOjAuNTsiIHdpZHRoPSIxNjYiIHg9IjUwMS41IiB5PSIzMDIuOTg0NCIvPjxyZWN0IGZpbGw9Im5vbmUiIGhlaWdodD0iODUuOTM3NSIgcng9IjIuNSIgcnk9IjIuNSIgc3R5bGU9InN0cm9rZTojNTA1MDUwO3N0cm9rZS13aWR0aDowLjU7IiB3aWR0aD0iMTY2IiB4PSI1MDEuNSIgeT0iMjgwLjUiLz48dGV4dCBmaWxsPSIjMDAwMDAwIiBmb250LWZhbWlseT0ic2Fucy1zZXJpZiIgZm9udC1zaXplPSIxNCIgbGVuZ3RoQWRqdXN0PSJzcGFjaW5nIiB0ZXh0TGVuZ3RoPSIzNSIgeD0iNTY3IiB5PSIyOTguNzM0NCI+Y2FydHM8L3RleHQ+PGxpbmUgc3R5bGU9InN0cm9rZTojNTA1MDUwO3N0cm9rZS13aWR0aDowLjU7IiB4MT0iNTAyLjUiIHgyPSI2NjYuNSIgeTE9IjMwNS40ODQ0IiB5Mj0iMzA1LjQ4NDQiLz48dGV4dCBmaWxsPSIjMDAwMDAwIiBmb250LWZhbWlseT0ic2Fucy1zZXJpZiIgZm9udC1zaXplPSIxNCIgbGVuZ3RoQWRqdXN0PSJzcGFjaW5nIiB0ZXh0TGVuZ3RoPSIxMzMiIHg9IjUwNy41IiB5PSIzMjIuNzE4OCI+K2NhcnRfaWQgOiBpbnQgJiMxNzE7UEsmIzE4Nzs8L3RleHQ+PGxpbmUgc3R5bGU9InN0cm9rZTojNTA1MDUwO3N0cm9rZS13aWR0aDoxOyIgeDE9IjUwMi41IiB4Mj0iNjY2LjUiIHkxPSIzMjguNDY4OCIgeTI9IjMyOC40Njg4Ii8+PHRleHQgZmlsbD0iIzAwMDAwMCIgZm9udC1mYW1pbHk9InNhbnMtc2VyaWYiIGZvbnQtc2l6ZT0iMTQiIGxlbmd0aEFkanVzdD0ic3BhY2luZyIgdGV4dExlbmd0aD0iMTMzIiB4PSI1MDcuNSIgeT0iMzQ1LjcwMzEiPiN1c2VyX2lkIDogaW50ICYjMTcxO0ZLJiMxODc7PC90ZXh0Pjx0ZXh0IGZpbGw9IiMwMDAwMDAiIGZvbnQtZmFtaWx5PSJzYW5zLXNlcmlmIiBmb250LXNpemU9IjE0IiBsZW5ndGhBZGp1c3Q9InNwYWNpbmciIHRleHRMZW5ndGg9IjE1NCIgeD0iNTA3LjUiIHk9IjM2MC42ODc1Ij5jcmVhdGVkX2F0IDogdGltZXN0YW1wPC90ZXh0PjwvZz48IS0tY2xhc3MgcHJvZHVjdHMtLT48ZyBjbGFzcz0iZW50aXR5IiBkYXRhLWVudGl0eT0icHJvZHVjdHMiIGRhdGEtc291cmNlLWxpbmU9IjQ1IiBkYXRhLXVpZD0iZW50MDAwNiIgaWQ9ImVudGl0eV9wcm9kdWN0cyI+PHJlY3QgZmlsbD0iI0Y4RjhGOCIgaGVpZ2h0PSIxOTAuODI4MSIgcng9IjIuNSIgcnk9IjIuNSIgc3R5bGU9InN0cm9rZTojNTA1MDUwO3N0cm9rZS13aWR0aDowLjU7IiB3aWR0aD0iMjUwIiB4PSI5NTMuNSIgeT0iMjI4Ii8+PHJlY3QgZmlsbD0iI0UwRTBFMCIgaGVpZ2h0PSIyNC45ODQ0IiByeD0iMi41IiByeT0iMi41IiBzdHlsZT0ic3Ryb2tlOiNFMEUwRTA7c3Ryb2tlLXdpZHRoOjAuNTsiIHdpZHRoPSIyNTAiIHg9Ijk1My41IiB5PSIyMjgiLz48cmVjdCBmaWxsPSIjRTBFMEUwIiBoZWlnaHQ9IjIuNSIgc3R5bGU9InN0cm9rZTojRTBFMEUwO3N0cm9rZS13aWR0aDowLjU7IiB3aWR0aD0iMjUwIiB4PSI5NTMuNSIgeT0iMjUwLjQ4NDQiLz48cmVjdCBmaWxsPSJub25lIiBoZWlnaHQ9IjE5MC44MjgxIiByeD0iMi41IiByeT0iMi41IiBzdHlsZT0ic3Ryb2tlOiM1MDUwNTA7c3Ryb2tlLXdpZHRoOjAuNTsiIHdpZHRoPSIyNTAiIHg9Ijk1My41IiB5PSIyMjgiLz48dGV4dCBmaWxsPSIjMDAwMDAwIiBmb250LWZhbWlseT0ic2Fucy1zZXJpZiIgZm9udC1zaXplPSIxNCIgbGVuZ3RoQWRqdXN0PSJzcGFjaW5nIiB0ZXh0TGVuZ3RoPSI1NiIgeD0iMTA1MC41IiB5PSIyNDYuMjM0NCI+cHJvZHVjdHM8L3RleHQ+PGxpbmUgc3R5bGU9InN0cm9rZTojNTA1MDUwO3N0cm9rZS13aWR0aDowLjU7IiB4MT0iOTU0LjUiIHgyPSIxMjAyLjUiIHkxPSIyNTIuOTg0NCIgeTI9IjI1Mi45ODQ0Ii8+PHRleHQgZmlsbD0iIzAwMDAwMCIgZm9udC1mYW1pbHk9InNhbnMtc2VyaWYiIGZvbnQtc2l6ZT0iMTQiIGxlbmd0aEFkanVzdD0ic3BhY2luZyIgdGV4dExlbmd0aD0iMTU0IiB4PSI5NTkuNSIgeT0iMjcwLjIxODgiPitwcm9kdWN0X2lkIDogaW50ICYjMTcxO1BLJiMxODc7PC90ZXh0PjxsaW5lIHN0eWxlPSJzdHJva2U6IzUwNTA1MDtzdHJva2Utd2lkdGg6MTsiIHgxPSI5NTQuNSIgeDI9IjEyMDIuNSIgeTE9IjI3NS45Njg4IiB5Mj0iMjc1Ljk2ODgiLz48dGV4dCBmaWxsPSIjMDAwMDAwIiBmb250LWZhbWlseT0ic2Fucy1zZXJpZiIgZm9udC1zaXplPSIxNCIgbGVuZ3RoQWRqdXN0PSJzcGFjaW5nIiB0ZXh0TGVuZ3RoPSIxNjEiIHg9Ijk1OS41IiB5PSIyOTMuMjAzMSI+I2NhdGVnb3J5X2lkIDogaW50ICYjMTcxO0ZLJiMxODc7PC90ZXh0Pjx0ZXh0IGZpbGw9IiMwMDAwMDAiIGZvbnQtZmFtaWx5PSJzYW5zLXNlcmlmIiBmb250LXNpemU9IjE0IiBsZW5ndGhBZGp1c3Q9InNwYWNpbmciIHRleHRMZW5ndGg9IjIzOCIgeD0iOTU5LjUiIHk9IjMwOC4xODc1Ij4jc3VwcGxpZXJfaWQgOiBpbnQgJiMxNzE7RksmIzE4Nzsge251bGxhYmxlfTwvdGV4dD48dGV4dCBmaWxsPSIjMDAwMDAwIiBmb250LWZhbWlseT0ic2Fucy1zZXJpZiIgZm9udC1zaXplPSIxNCIgbGVuZ3RoQWRqdXN0PSJzcGFjaW5nIiB0ZXh0TGVuZ3RoPSIxODkiIHg9Ijk1OS41IiB5PSIzMjMuMTcxOSI+cHJvZHVjdF9uYW1lIDogdmFyY2hhcigyNTUpPC90ZXh0Pjx0ZXh0IGZpbGw9IiMwMDAwMDAiIGZvbnQtZmFtaWx5PSJzYW5zLXNlcmlmIiBmb250LXNpemU9IjE0IiBsZW5ndGhBZGp1c3Q9InNwYWNpbmciIHRleHRMZW5ndGg9IjIyNCIgeD0iOTU5LjUiIHk9IjMzOC4xNTYzIj5wcm9kdWN0X2ltYWdlX3VybCA6IHZhcmNoYXIoMjU1KTwvdGV4dD48dGV4dCBmaWxsPSIjMDAwMDAwIiBmb250LWZhbWlseT0ic2Fucy1zZXJpZiIgZm9udC1zaXplPSIxNCIgbGVuZ3RoQWRqdXN0PSJzcGFjaW5nIiB0ZXh0TGVuZ3RoPSIxNTQiIHg9Ijk1OS41IiB5PSIzNTMuMTQwNiI+ZGVzY3JpcHRpb24gOiBsb25ndGV4dDwvdGV4dD48dGV4dCBmaWxsPSIjMDAwMDAwIiBmb250LWZhbWlseT0ic2Fucy1zZXJpZiIgZm9udC1zaXplPSIxNCIgbGVuZ3RoQWRqdXN0PSJzcGFjaW5nIiB0ZXh0TGVuZ3RoPSIxNTQiIHg9Ijk1OS41IiB5PSIzNjguMTI1Ij5wcmljZSA6IGRlY2ltYWwoMTIsIDIpPC90ZXh0Pjx0ZXh0IGZpbGw9IiMwMDAwMDAiIGZvbnQtZmFtaWx5PSJzYW5zLXNlcmlmIiBmb250LXNpemU9IjE0IiBsZW5ndGhBZGp1c3Q9InNwYWNpbmciIHRleHRMZW5ndGg9IjE0MCIgeD0iOTU5LjUiIHk9IjM4My4xMDk0Ij5zdG9ja19xdWFudGl0eSA6IGludDwvdGV4dD48dGV4dCBmaWxsPSIjMDAwMDAwIiBmb250LWZhbWlseT0ic2Fucy1zZXJpZiIgZm9udC1zaXplPSIxNCIgbGVuZ3RoQWRqdXN0PSJzcGFjaW5nIiB0ZXh0TGVuZ3RoPSI3NyIgeD0iOTU5LjUiIHk9IjM5OC4wOTM4Ij5zYWxlcyA6IGludDwvdGV4dD48dGV4dCBmaWxsPSIjMDAwMDAwIiBmb250LWZhbWlseT0ic2Fucy1zZXJpZiIgZm9udC1zaXplPSIxNCIgbGVuZ3RoQWRqdXN0PSJzcGFjaW5nIiB0ZXh0TGVuZ3RoPSIyMDMiIHg9Ijk1OS41IiB5PSI0MTMuMDc4MSI+cHJvZHVjdF9zdGF0dXMgOiB2YXJjaGFyKDI1NSk8L3RleHQ+PC9nPjwhLS1jbGFzcyBjYXRlZ29yeS0tPjxnIGNsYXNzPSJlbnRpdHkiIGRhdGEtZW50aXR5PSJjYXRlZ29yeSIgZGF0YS1zb3VyY2UtbGluZT0iNTkiIGRhdGEtdWlkPSJlbnQwMDA3IiBpZD0iZW50aXR5X2NhdGVnb3J5Ij48cmVjdCBmaWxsPSIjRjhGOEY4IiBoZWlnaHQ9IjcwLjk1MzEiIHJ4PSIyLjUiIHJ5PSIyLjUiIHN0eWxlPSJzdHJva2U6IzUwNTA1MDtzdHJva2Utd2lkdGg6MC41OyIgd2lkdGg9IjI2NCIgeD0iNzk0LjUiIHk9IjUyIi8+PHJlY3QgZmlsbD0iI0UwRTBFMCIgaGVpZ2h0PSIyNC45ODQ0IiByeD0iMi41IiByeT0iMi41IiBzdHlsZT0ic3Ryb2tlOiNFMEUwRTA7c3Ryb2tlLXdpZHRoOjAuNTsiIHdpZHRoPSIyNjQiIHg9Ijc5NC41IiB5PSI1MiIvPjxyZWN0IGZpbGw9IiNFMEUwRTAiIGhlaWdodD0iMi41IiBzdHlsZT0ic3Ryb2tlOiNFMEUwRTA7c3Ryb2tlLXdpZHRoOjAuNTsiIHdpZHRoPSIyNjQiIHg9Ijc5NC41IiB5PSI3NC40ODQ0Ii8+PHJlY3QgZmlsbD0ibm9uZSIgaGVpZ2h0PSI3MC45NTMxIiByeD0iMi41IiByeT0iMi41IiBzdHlsZT0ic3Ryb2tlOiM1MDUwNTA7c3Ryb2tlLXdpZHRoOjAuNTsiIHdpZHRoPSIyNjQiIHg9Ijc5NC41IiB5PSI1MiIvPjx0ZXh0IGZpbGw9IiMwMDAwMDAiIGZvbnQtZmFtaWx5PSJzYW5zLXNlcmlmIiBmb250LXNpemU9IjE0IiBsZW5ndGhBZGp1c3Q9InNwYWNpbmciIHRleHRMZW5ndGg9IjU2IiB4PSI4OTguNSIgeT0iNzAuMjM0NCI+Y2F0ZWdvcnk8L3RleHQ+PGxpbmUgc3R5bGU9InN0cm9rZTojNTA1MDUwO3N0cm9rZS13aWR0aDowLjU7IiB4MT0iNzk1LjUiIHgyPSIxMDU3LjUiIHkxPSI3Ni45ODQ0IiB5Mj0iNzYuOTg0NCIvPjx0ZXh0IGZpbGw9IiMwMDAwMDAiIGZvbnQtZmFtaWx5PSJzYW5zLXNlcmlmIiBmb250LXNpemU9IjE0IiBsZW5ndGhBZGp1c3Q9InNwYWNpbmciIHRleHRMZW5ndGg9IjE2MSIgeD0iODAwLjUiIHk9Ijk0LjIxODgiPitjYXRlZ29yeV9pZCA6IGludCAmIzE3MTtQSyYjMTg3OzwvdGV4dD48bGluZSBzdHlsZT0ic3Ryb2tlOiM1MDUwNTA7c3Ryb2tlLXdpZHRoOjE7IiB4MT0iNzk1LjUiIHgyPSIxMDU3LjUiIHkxPSI5OS45Njg4IiB5Mj0iOTkuOTY4OCIvPjx0ZXh0IGZpbGw9IiMwMDAwMDAiIGZvbnQtZmFtaWx5PSJzYW5zLXNlcmlmIiBmb250LXNpemU9IjE0IiBsZW5ndGhBZGp1c3Q9InNwYWNpbmciIHRleHRMZW5ndGg9IjI1MiIgeD0iODAwLjUiIHk9IjExNy4yMDMxIj5jYXRlZ29yeV9uYW1lIDogdmFyY2hhcig1MCkgJiMxNzE7dW5pcXVlJiMxODc7PC90ZXh0PjwvZz48IS0tY2xhc3Mgc3VwcGxpZXJzLS0+PGcgY2xhc3M9ImVudGl0eSIgZGF0YS1lbnRpdHk9InN1cHBsaWVycyIgZGF0YS1zb3VyY2UtbGluZT0iNjUiIGRhdGEtdWlkPSJlbnQwMDA4IiBpZD0iZW50aXR5X3N1cHBsaWVycyI+PHJlY3QgZmlsbD0iI0Y4RjhGOCIgaGVpZ2h0PSIxNjAuODU5NCIgcng9IjIuNSIgcnk9IjIuNSIgc3R5bGU9InN0cm9rZTojNTA1MDUwO3N0cm9rZS13aWR0aDowLjU7IiB3aWR0aD0iMjcxIiB4PSIxMDk0IiB5PSI3Ii8+PHJlY3QgZmlsbD0iI0UwRTBFMCIgaGVpZ2h0PSIyNC45ODQ0IiByeD0iMi41IiByeT0iMi41IiBzdHlsZT0ic3Ryb2tlOiNFMEUwRTA7c3Ryb2tlLXdpZHRoOjAuNTsiIHdpZHRoPSIyNzEiIHg9IjEwOTQiIHk9IjciLz48cmVjdCBmaWxsPSIjRTBFMEUwIiBoZWlnaHQ9IjIuNSIgc3R5bGU9InN0cm9rZTojRTBFMEUwO3N0cm9rZS13aWR0aDowLjU7IiB3aWR0aD0iMjcxIiB4PSIxMDk0IiB5PSIyOS40ODQ0Ii8+PHJlY3QgZmlsbD0ibm9uZSIgaGVpZ2h0PSIxNjAuODU5NCIgcng9IjIuNSIgcnk9IjIuNSIgc3R5bGU9InN0cm9rZTojNTA1MDUwO3N0cm9rZS13aWR0aDowLjU7IiB3aWR0aD0iMjcxIiB4PSIxMDk0IiB5PSI3Ii8+PHRleHQgZmlsbD0iIzAwMDAwMCIgZm9udC1mYW1pbHk9InNhbnMtc2VyaWYiIGZvbnQtc2l6ZT0iMTQiIGxlbmd0aEFkanVzdD0ic3BhY2luZyIgdGV4dExlbmd0aD0iNjMiIHg9IjExOTgiIHk9IjI1LjIzNDQiPnN1cHBsaWVyczwvdGV4dD48bGluZSBzdHlsZT0ic3Ryb2tlOiM1MDUwNTA7c3Ryb2tlLXdpZHRoOjAuNTsiIHgxPSIxMDk1IiB4Mj0iMTM2NCIgeTE9IjMxLjk4NDQiIHkyPSIzMS45ODQ0Ii8+PHRleHQgZmlsbD0iIzAwMDAwMCIgZm9udC1mYW1pbHk9InNhbnMtc2VyaWYiIGZvbnQtc2l6ZT0iMTQiIGxlbmd0aEFkanVzdD0ic3BhY2luZyIgdGV4dExlbmd0aD0iMTYxIiB4PSIxMTAwIiB5PSI0OS4yMTg4Ij4rc3VwcGxpZXJfaWQgOiBpbnQgJiMxNzE7UEsmIzE4Nzs8L3RleHQ+PGxpbmUgc3R5bGU9InN0cm9rZTojNTA1MDUwO3N0cm9rZS13aWR0aDoxOyIgeDE9IjEwOTUiIHgyPSIxMzY0IiB5MT0iNTQuOTY4OCIgeTI9IjU0Ljk2ODgiLz48dGV4dCBmaWxsPSIjMDAwMDAwIiBmb250LWZhbWlseT0ic2Fucy1zZXJpZiIgZm9udC1zaXplPSIxNCIgbGVuZ3RoQWRqdXN0PSJzcGFjaW5nIiB0ZXh0TGVuZ3RoPSIyNTkiIHg9IjExMDAiIHk9IjcyLjIwMzEiPnN1cHBsaWVyX25hbWUgOiB2YXJjaGFyKDEwMCkgJiMxNzE7dW5pcXVlJiMxODc7PC90ZXh0Pjx0ZXh0IGZpbGw9IiMwMDAwMDAiIGZvbnQtZmFtaWx5PSJzYW5zLXNlcmlmIiBmb250LXNpemU9IjE0IiBsZW5ndGhBZGp1c3Q9InNwYWNpbmciIHRleHRMZW5ndGg9IjE5NiIgeD0iMTEwMCIgeT0iODcuMTg3NSI+Y29udGFjdF9wZXJzb24gOiB2YXJjaGFyKDUwKTwvdGV4dD48dGV4dCBmaWxsPSIjMDAwMDAwIiBmb250LWZhbWlseT0ic2Fucy1zZXJpZiIgZm9udC1zaXplPSIxNCIgbGVuZ3RoQWRqdXN0PSJzcGFjaW5nIiB0ZXh0TGVuZ3RoPSIxNDAiIHg9IjExMDAiIHk9IjEwMi4xNzE5Ij5lbWFpbCA6IHZhcmNoYXIoMTAwKTwvdGV4dD48dGV4dCBmaWxsPSIjMDAwMDAwIiBmb250LWZhbWlseT0ic2Fucy1zZXJpZiIgZm9udC1zaXplPSIxNCIgbGVuZ3RoQWRqdXN0PSJzcGFjaW5nIiB0ZXh0TGVuZ3RoPSIxODIiIHg9IjExMDAiIHk9IjExNy4xNTYzIj5waG9uZV9udW1iZXIgOiB2YXJjaGFyKDIwKTwvdGV4dD48dGV4dCBmaWxsPSIjMDAwMDAwIiBmb250LWZhbWlseT0ic2Fucy1zZXJpZiIgZm9udC1zaXplPSIxNCIgbGVuZ3RoQWRqdXN0PSJzcGFjaW5nIiB0ZXh0TGVuZ3RoPSIxMjYiIHg9IjExMDAiIHk9IjEzMi4xNDA2Ij5hZGRyZXNzIDogbG9uZ3RleHQ8L3RleHQ+PHRleHQgZmlsbD0iIzAwMDAwMCIgZm9udC1mYW1pbHk9InNhbnMtc2VyaWYiIGZvbnQtc2l6ZT0iMTQiIGxlbmd0aEFkanVzdD0ic3BhY2luZyIgdGV4dExlbmd0aD0iMTU0IiB4PSIxMTAwIiB5PSIxNDcuMTI1Ij5jcmVhdGVkX2F0IDogdGltZXN0YW1wPC90ZXh0Pjx0ZXh0IGZpbGw9IiMwMDAwMDAiIGZvbnQtZmFtaWx5PSJzYW5zLXNlcmlmIiBmb250LXNpemU9IjE0IiBsZW5ndGhBZGp1c3Q9InNwYWNpbmciIHRleHRMZW5ndGg9IjE1NCIgeD0iMTEwMCIgeT0iMTYyLjEwOTQiPnVwZGF0ZWRfYXQgOiB0aW1lc3RhbXA8L3RleHQ+PC9nPjwhLS1jbGFzcyBjYXJ0X2l0ZW1zLS0+PGcgY2xhc3M9ImVudGl0eSIgZGF0YS1lbnRpdHk9ImNhcnRfaXRlbXMiIGRhdGEtc291cmNlLWxpbmU9Ijc3IiBkYXRhLXVpZD0iZW50MDAwOSIgaWQ9ImVudGl0eV9jYXJ0X2l0ZW1zIj48cmVjdCBmaWxsPSIjRjhGOEY4IiBoZWlnaHQ9IjEwMC45MjE5IiByeD0iMi41IiByeT0iMi41IiBzdHlsZT0ic3Ryb2tlOiM1MDUwNTA7c3Ryb2tlLXdpZHRoOjAuNTsiIHdpZHRoPSIxODAiIHg9IjcxNy41IiB5PSI0OTQiLz48cmVjdCBmaWxsPSIjRTBFMEUwIiBoZWlnaHQ9IjI0Ljk4NDQiIHJ4PSIyLjUiIHJ5PSIyLjUiIHN0eWxlPSJzdHJva2U6I0UwRTBFMDtzdHJva2Utd2lkdGg6MC41OyIgd2lkdGg9IjE4MCIgeD0iNzE3LjUiIHk9IjQ5NCIvPjxyZWN0IGZpbGw9IiNFMEUwRTAiIGhlaWdodD0iMi41IiBzdHlsZT0ic3Ryb2tlOiNFMEUwRTA7c3Ryb2tlLXdpZHRoOjAuNTsiIHdpZHRoPSIxODAiIHg9IjcxNy41IiB5PSI1MTYuNDg0NCIvPjxyZWN0IGZpbGw9Im5vbmUiIGhlaWdodD0iMTAwLjkyMTkiIHJ4PSIyLjUiIHJ5PSIyLjUiIHN0eWxlPSJzdHJva2U6IzUwNTA1MDtzdHJva2Utd2lkdGg6MC41OyIgd2lkdGg9IjE4MCIgeD0iNzE3LjUiIHk9IjQ5NCIvPjx0ZXh0IGZpbGw9IiMwMDAwMDAiIGZvbnQtZmFtaWx5PSJzYW5zLXNlcmlmIiBmb250LXNpemU9IjE0IiBsZW5ndGhBZGp1c3Q9InNwYWNpbmciIHRleHRMZW5ndGg9IjcwIiB4PSI3NzIuNSIgeT0iNTEyLjIzNDQiPmNhcnRfaXRlbXM8L3RleHQ+PGxpbmUgc3R5bGU9InN0cm9rZTojNTA1MDUwO3N0cm9rZS13aWR0aDowLjU7IiB4MT0iNzE4LjUiIHgyPSI4OTYuNSIgeTE9IjUxOC45ODQ0IiB5Mj0iNTE4Ljk4NDQiLz48dGV4dCBmaWxsPSIjMDAwMDAwIiBmb250LWZhbWlseT0ic2Fucy1zZXJpZiIgZm9udC1zaXplPSIxNCIgbGVuZ3RoQWRqdXN0PSJzcGFjaW5nIiB0ZXh0TGVuZ3RoPSIxNjgiIHg9IjcyMy41IiB5PSI1MzYuMjE4OCI+K2NhcnRfaXRlbV9pZCA6IGludCAmIzE3MTtQSyYjMTg3OzwvdGV4dD48bGluZSBzdHlsZT0ic3Ryb2tlOiM1MDUwNTA7c3Ryb2tlLXdpZHRoOjE7IiB4MT0iNzE4LjUiIHgyPSI4OTYuNSIgeTE9IjU0MS45Njg4IiB5Mj0iNTQxLjk2ODgiLz48dGV4dCBmaWxsPSIjMDAwMDAwIiBmb250LWZhbWlseT0ic2Fucy1zZXJpZiIgZm9udC1zaXplPSIxNCIgbGVuZ3RoQWRqdXN0PSJzcGFjaW5nIiB0ZXh0TGVuZ3RoPSIxMzMiIHg9IjcyMy41IiB5PSI1NTkuMjAzMSI+I2NhcnRfaWQgOiBpbnQgJiMxNzE7RksmIzE4Nzs8L3RleHQ+PHRleHQgZmlsbD0iIzAwMDAwMCIgZm9udC1mYW1pbHk9InNhbnMtc2VyaWYiIGZvbnQtc2l6ZT0iMTQiIGxlbmd0aEFkanVzdD0ic3BhY2luZyIgdGV4dExlbmd0aD0iMTU0IiB4PSI3MjMuNSIgeT0iNTc0LjE4NzUiPiNwcm9kdWN0X2lkIDogaW50ICYjMTcxO0ZLJiMxODc7PC90ZXh0Pjx0ZXh0IGZpbGw9IiMwMDAwMDAiIGZvbnQtZmFtaWx5PSJzYW5zLXNlcmlmIiBmb250LXNpemU9IjE0IiBsZW5ndGhBZGp1c3Q9InNwYWNpbmciIHRleHRMZW5ndGg9Ijk4IiB4PSI3MjMuNSIgeT0iNTg5LjE3MTkiPnF1YW50aXR5IDogaW50PC90ZXh0PjwvZz48IS0tY2xhc3Mgb3JkZXJzLS0+PGcgY2xhc3M9ImVudGl0eSIgZGF0YS1lbnRpdHk9Im9yZGVycyIgZGF0YS1zb3VyY2UtbGluZT0iODUiIGRhdGEtdWlkPSJlbnQwMDEwIiBpZD0iZW50aXR5X29yZGVycyI+PHJlY3QgZmlsbD0iI0Y4RjhGOCIgaGVpZ2h0PSIxMTUuOTA2MyIgcng9IjIuNSIgcnk9IjIuNSIgc3R5bGU9InN0cm9rZTojNTA1MDUwO3N0cm9rZS13aWR0aDowLjU7IiB3aWR0aD0iMjE1IiB4PSI3MDMiIHk9IjI2NS41Ii8+PHJlY3QgZmlsbD0iI0UwRTBFMCIgaGVpZ2h0PSIyNC45ODQ0IiByeD0iMi41IiByeT0iMi41IiBzdHlsZT0ic3Ryb2tlOiNFMEUwRTA7c3Ryb2tlLXdpZHRoOjAuNTsiIHdpZHRoPSIyMTUiIHg9IjcwMyIgeT0iMjY1LjUiLz48cmVjdCBmaWxsPSIjRTBFMEUwIiBoZWlnaHQ9IjIuNSIgc3R5bGU9InN0cm9rZTojRTBFMEUwO3N0cm9rZS13aWR0aDowLjU7IiB3aWR0aD0iMjE1IiB4PSI3MDMiIHk9IjI4Ny45ODQ0Ii8+PHJlY3QgZmlsbD0ibm9uZSIgaGVpZ2h0PSIxMTUuOTA2MyIgcng9IjIuNSIgcnk9IjIuNSIgc3R5bGU9InN0cm9rZTojNTA1MDUwO3N0cm9rZS13aWR0aDowLjU7IiB3aWR0aD0iMjE1IiB4PSI3MDMiIHk9IjI2NS41Ii8+PHRleHQgZmlsbD0iIzAwMDAwMCIgZm9udC1mYW1pbHk9InNhbnMtc2VyaWYiIGZvbnQtc2l6ZT0iMTQiIGxlbmd0aEFkanVzdD0ic3BhY2luZyIgdGV4dExlbmd0aD0iNDIiIHg9Ijc4OS41IiB5PSIyODMuNzM0NCI+b3JkZXJzPC90ZXh0PjxsaW5lIHN0eWxlPSJzdHJva2U6IzUwNTA1MDtzdHJva2Utd2lkdGg6MC41OyIgeDE9IjcwNCIgeDI9IjkxNyIgeTE9IjI5MC40ODQ0IiB5Mj0iMjkwLjQ4NDQiLz48dGV4dCBmaWxsPSIjMDAwMDAwIiBmb250LWZhbWlseT0ic2Fucy1zZXJpZiIgZm9udC1zaXplPSIxNCIgbGVuZ3RoQWRqdXN0PSJzcGFjaW5nIiB0ZXh0TGVuZ3RoPSIxNDAiIHg9IjcwOSIgeT0iMzA3LjcxODgiPitvcmRlcl9pZCA6IGludCAmIzE3MTtQSyYjMTg3OzwvdGV4dD48bGluZSBzdHlsZT0ic3Ryb2tlOiM1MDUwNTA7c3Ryb2tlLXdpZHRoOjE7IiB4MT0iNzA0IiB4Mj0iOTE3IiB5MT0iMzEzLjQ2ODgiIHkyPSIzMTMuNDY4OCIvPjx0ZXh0IGZpbGw9IiMwMDAwMDAiIGZvbnQtZmFtaWx5PSJzYW5zLXNlcmlmIiBmb250LXNpemU9IjE0IiBsZW5ndGhBZGp1c3Q9InNwYWNpbmciIHRleHRMZW5ndGg9IjEzMyIgeD0iNzA5IiB5PSIzMzAuNzAzMSI+I3VzZXJfaWQgOiBpbnQgJiMxNzE7RksmIzE4Nzs8L3RleHQ+PHRleHQgZmlsbD0iIzAwMDAwMCIgZm9udC1mYW1pbHk9InNhbnMtc2VyaWYiIGZvbnQtc2l6ZT0iMTQiIGxlbmd0aEFkanVzdD0ic3BhY2luZyIgdGV4dExlbmd0aD0iMTU0IiB4PSI3MDkiIHk9IjM0NS42ODc1Ij5vcmRlcl9kYXRlIDogdGltZXN0YW1wPC90ZXh0Pjx0ZXh0IGZpbGw9IiMwMDAwMDAiIGZvbnQtZmFtaWx5PSJzYW5zLXNlcmlmIiBmb250LXNpemU9IjE0IiBsZW5ndGhBZGp1c3Q9InNwYWNpbmciIHRleHRMZW5ndGg9IjIwMyIgeD0iNzA5IiB5PSIzNjAuNjcxOSI+dG90YWxfYW1vdW50IDogZGVjaW1hbCgxMiwgMik8L3RleHQ+PHRleHQgZmlsbD0iIzAwMDAwMCIgZm9udC1mYW1pbHk9InNhbnMtc2VyaWYiIGZvbnQtc2l6ZT0iMTQiIGxlbmd0aEFkanVzdD0ic3BhY2luZyIgdGV4dExlbmd0aD0iMTg5IiB4PSI3MDkiIHk9IjM3NS42NTYzIj5vcmRlcl9zdGF0dXMgOiB2YXJjaGFyKDI1NSk8L3RleHQ+PC9nPjwhLS1jbGFzcyBvcmRlcl9kZXRhaWwtLT48ZyBjbGFzcz0iZW50aXR5IiBkYXRhLWVudGl0eT0ib3JkZXJfZGV0YWlsIiBkYXRhLXNvdXJjZS1saW5lPSI5NCIgZGF0YS11aWQ9ImVudDAwMTEiIGlkPSJlbnRpdHlfb3JkZXJfZGV0YWlsIj48cmVjdCBmaWxsPSIjRjhGOEY4IiBoZWlnaHQ9IjExNS45MDYzIiByeD0iMi41IiByeT0iMi41IiBzdHlsZT0ic3Ryb2tlOiM1MDUwNTA7c3Ryb2tlLXdpZHRoOjAuNTsiIHdpZHRoPSIyMDEiIHg9Ijk1NSIgeT0iNDg2LjUiLz48cmVjdCBmaWxsPSIjRTBFMEUwIiBoZWlnaHQ9IjI0Ljk4NDQiIHJ4PSIyLjUiIHJ5PSIyLjUiIHN0eWxlPSJzdHJva2U6I0UwRTBFMDtzdHJva2Utd2lkdGg6MC41OyIgd2lkdGg9IjIwMSIgeD0iOTU1IiB5PSI0ODYuNSIvPjxyZWN0IGZpbGw9IiNFMEUwRTAiIGhlaWdodD0iMi41IiBzdHlsZT0ic3Ryb2tlOiNFMEUwRTA7c3Ryb2tlLXdpZHRoOjAuNTsiIHdpZHRoPSIyMDEiIHg9Ijk1NSIgeT0iNTA4Ljk4NDQiLz48cmVjdCBmaWxsPSJub25lIiBoZWlnaHQ9IjExNS45MDYzIiByeD0iMi41IiByeT0iMi41IiBzdHlsZT0ic3Ryb2tlOiM1MDUwNTA7c3Ryb2tlLXdpZHRoOjAuNTsiIHdpZHRoPSIyMDEiIHg9Ijk1NSIgeT0iNDg2LjUiLz48dGV4dCBmaWxsPSIjMDAwMDAwIiBmb250LWZhbWlseT0ic2Fucy1zZXJpZiIgZm9udC1zaXplPSIxNCIgbGVuZ3RoQWRqdXN0PSJzcGFjaW5nIiB0ZXh0TGVuZ3RoPSI4NCIgeD0iMTAxMy41IiB5PSI1MDQuNzM0NCI+b3JkZXJfZGV0YWlsPC90ZXh0PjxsaW5lIHN0eWxlPSJzdHJva2U6IzUwNTA1MDtzdHJva2Utd2lkdGg6MC41OyIgeDE9Ijk1NiIgeDI9IjExNTUiIHkxPSI1MTEuNDg0NCIgeTI9IjUxMS40ODQ0Ii8+PHRleHQgZmlsbD0iIzAwMDAwMCIgZm9udC1mYW1pbHk9InNhbnMtc2VyaWYiIGZvbnQtc2l6ZT0iMTQiIGxlbmd0aEFkanVzdD0ic3BhY2luZyIgdGV4dExlbmd0aD0iMTg5IiB4PSI5NjEiIHk9IjUyOC43MTg4Ij4rb3JkZXJfZGV0YWlsX2lkIDogaW50ICYjMTcxO1BLJiMxODc7PC90ZXh0PjxsaW5lIHN0eWxlPSJzdHJva2U6IzUwNTA1MDtzdHJva2Utd2lkdGg6MTsiIHgxPSI5NTYiIHgyPSIxMTU1IiB5MT0iNTM0LjQ2ODgiIHkyPSI1MzQuNDY4OCIvPjx0ZXh0IGZpbGw9IiMwMDAwMDAiIGZvbnQtZmFtaWx5PSJzYW5zLXNlcmlmIiBmb250LXNpemU9IjE0IiBsZW5ndGhBZGp1c3Q9InNwYWNpbmciIHRleHRMZW5ndGg9IjE0MCIgeD0iOTYxIiB5PSI1NTEuNzAzMSI+I29yZGVyX2lkIDogaW50ICYjMTcxO0ZLJiMxODc7PC90ZXh0Pjx0ZXh0IGZpbGw9IiMwMDAwMDAiIGZvbnQtZmFtaWx5PSJzYW5zLXNlcmlmIiBmb250LXNpemU9IjE0IiBsZW5ndGhBZGp1c3Q9InNwYWNpbmciIHRleHRMZW5ndGg9IjE1NCIgeD0iOTYxIiB5PSI1NjYuNjg3NSI+I3Byb2R1Y3RfaWQgOiBpbnQgJiMxNzE7RksmIzE4Nzs8L3RleHQ+PHRleHQgZmlsbD0iIzAwMDAwMCIgZm9udC1mYW1pbHk9InNhbnMtc2VyaWYiIGZvbnQtc2l6ZT0iMTQiIGxlbmd0aEFkanVzdD0ic3BhY2luZyIgdGV4dExlbmd0aD0iMTMzIiB4PSI5NjEiIHk9IjU4MS42NzE5Ij5jYXJ0X3F1YW50aXR5IDogaW50PC90ZXh0Pjx0ZXh0IGZpbGw9IiMwMDAwMDAiIGZvbnQtZmFtaWx5PSJzYW5zLXNlcmlmIiBmb250LXNpemU9IjE0IiBsZW5ndGhBZGp1c3Q9InNwYWNpbmciIHRleHRMZW5ndGg9IjE1NCIgeD0iOTYxIiB5PSI1OTYuNjU2MyI+cHJpY2UgOiBkZWNpbWFsKDEyLCAyKTwvdGV4dD48L2c+PCEtLWNsYXNzIHVzZXJfcmV2aWV3cy0tPjxnIGNsYXNzPSJlbnRpdHkiIGRhdGEtZW50aXR5PSJ1c2VyX3Jldmlld3MiIGRhdGEtc291cmNlLWxpbmU9IjEwMyIgZGF0YS11aWQ9ImVudDAwMTIiIGlkPSJlbnRpdHlfdXNlcl9yZXZpZXdzIj48cmVjdCBmaWxsPSIjRjhGOEY4IiBoZWlnaHQ9IjEzMC44OTA2IiByeD0iMi41IiByeT0iMi41IiBzdHlsZT0ic3Ryb2tlOiM1MDUwNTA7c3Ryb2tlLXdpZHRoOjAuNTsiIHdpZHRoPSIyMDEiIHg9IjQzNyIgeT0iNDc5Ii8+PHJlY3QgZmlsbD0iI0UwRTBFMCIgaGVpZ2h0PSIyNC45ODQ0IiByeD0iMi41IiByeT0iMi41IiBzdHlsZT0ic3Ryb2tlOiNFMEUwRTA7c3Ryb2tlLXdpZHRoOjAuNTsiIHdpZHRoPSIyMDEiIHg9IjQzNyIgeT0iNDc5Ii8+PHJlY3QgZmlsbD0iI0UwRTBFMCIgaGVpZ2h0PSIyLjUiIHN0eWxlPSJzdHJva2U6I0UwRTBFMDtzdHJva2Utd2lkdGg6MC41OyIgd2lkdGg9IjIwMSIgeD0iNDM3IiB5PSI1MDEuNDg0NCIvPjxyZWN0IGZpbGw9Im5vbmUiIGhlaWdodD0iMTMwLjg5MDYiIHJ4PSIyLjUiIHJ5PSIyLjUiIHN0eWxlPSJzdHJva2U6IzUwNTA1MDtzdHJva2Utd2lkdGg6MC41OyIgd2lkdGg9IjIwMSIgeD0iNDM3IiB5PSI0NzkiLz48dGV4dCBmaWxsPSIjMDAwMDAwIiBmb250LWZhbWlseT0ic2Fucy1zZXJpZiIgZm9udC1zaXplPSIxNCIgbGVuZ3RoQWRqdXN0PSJzcGFjaW5nIiB0ZXh0TGVuZ3RoPSI4NCIgeD0iNDk1LjUiIHk9IjQ5Ny4yMzQ0Ij51c2VyX3Jldmlld3M8L3RleHQ+PGxpbmUgc3R5bGU9InN0cm9rZTojNTA1MDUwO3N0cm9rZS13aWR0aDowLjU7IiB4MT0iNDM4IiB4Mj0iNjM3IiB5MT0iNTAzLjk4NDQiIHkyPSI1MDMuOTg0NCIvPjx0ZXh0IGZpbGw9IiMwMDAwMDAiIGZvbnQtZmFtaWx5PSJzYW5zLXNlcmlmIiBmb250LXNpemU9IjE0IiBsZW5ndGhBZGp1c3Q9InNwYWNpbmciIHRleHRMZW5ndGg9IjE0NyIgeD0iNDQzIiB5PSI1MjEuMjE4OCI+K3Jldmlld19pZCA6IGludCAmIzE3MTtQSyYjMTg3OzwvdGV4dD48bGluZSBzdHlsZT0ic3Ryb2tlOiM1MDUwNTA7c3Ryb2tlLXdpZHRoOjE7IiB4MT0iNDM4IiB4Mj0iNjM3IiB5MT0iNTI2Ljk2ODgiIHkyPSI1MjYuOTY4OCIvPjx0ZXh0IGZpbGw9IiMwMDAwMDAiIGZvbnQtZmFtaWx5PSJzYW5zLXNlcmlmIiBmb250LXNpemU9IjE0IiBsZW5ndGhBZGp1c3Q9InNwYWNpbmciIHRleHRMZW5ndGg9IjE1NCIgeD0iNDQzIiB5PSI1NDQuMjAzMSI+I3Byb2R1Y3RfaWQgOiBpbnQgJiMxNzE7RksmIzE4Nzs8L3RleHQ+PHRleHQgZmlsbD0iIzAwMDAwMCIgZm9udC1mYW1pbHk9InNhbnMtc2VyaWYiIGZvbnQtc2l6ZT0iMTQiIGxlbmd0aEFkanVzdD0ic3BhY2luZyIgdGV4dExlbmd0aD0iMTMzIiB4PSI0NDMiIHk9IjU1OS4xODc1Ij4jdXNlcl9pZCA6IGludCAmIzE3MTtGSyYjMTg3OzwvdGV4dD48dGV4dCBmaWxsPSIjMDAwMDAwIiBmb250LWZhbWlseT0ic2Fucy1zZXJpZiIgZm9udC1zaXplPSIxNCIgbGVuZ3RoQWRqdXN0PSJzcGFjaW5nIiB0ZXh0TGVuZ3RoPSIxNTQiIHg9IjQ0MyIgeT0iNTc0LjE3MTkiPnJldmlld190ZXh0IDogbG9uZ3RleHQ8L3RleHQ+PHRleHQgZmlsbD0iIzAwMDAwMCIgZm9udC1mYW1pbHk9InNhbnMtc2VyaWYiIGZvbnQtc2l6ZT0iMTQiIGxlbmd0aEFkanVzdD0ic3BhY2luZyIgdGV4dExlbmd0aD0iMTg5IiB4PSI0NDMiIHk9IjU4OS4xNTYzIj5yYXRpbmcgOiB0aW55aW50IHtudWxsYWJsZX08L3RleHQ+PHRleHQgZmlsbD0iIzAwMDAwMCIgZm9udC1mYW1pbHk9InNhbnMtc2VyaWYiIGZvbnQtc2l6ZT0iMTQiIGxlbmd0aEFkanVzdD0ic3BhY2luZyIgdGV4dExlbmd0aD0iMTYxIiB4PSI0NDMiIHk9IjYwNC4xNDA2Ij5yZXZpZXdfZGF0ZSA6IHRpbWVzdGFtcDwvdGV4dD48L2c+PCEtLWxpbmsgdXNlcnMgdG8gYWRtaW4tLT48ZyBjbGFzcz0ibGluayIgZGF0YS1lbnRpdHktMT0idXNlcnMiIGRhdGEtZW50aXR5LTI9ImFkbWluIiBkYXRhLXNvdXJjZS1saW5lPSIxMTUiIGRhdGEtdWlkPSJsbmsxMyIgaWQ9ImxpbmtfdXNlcnNfYWRtaW4iPjxwYXRoIGNvZGVMaW5lPSIxMTUiIGQ9Ik0zNzcuMzMsMTc2LjA2IEMzNzcuMzMsMjE2Ljc4IDM3Ny4zMywyMzguMTUgMzc3LjMzLDI2OS43OSIgZmlsbD0ibm9uZSIgaWQ9InVzZXJzLWFkbWluIiBzdHlsZT0ic3Ryb2tlOiM1MDUwNTA7c3Ryb2tlLXdpZHRoOjE7Ii8+PGxpbmUgc3R5bGU9InN0cm9rZTojNTA1MDUwO3N0cm9rZS13aWR0aDoxOyIgeDE9IjM3My4zMyIgeDI9IjM4MS4zMyIgeTE9IjE3Mi4wNiIgeTI9IjE3Mi4wNiIvPjxsaW5lIHN0eWxlPSJzdHJva2U6IzUwNTA1MDtzdHJva2Utd2lkdGg6MTsiIHgxPSIzNzMuMzMiIHgyPSIzODEuMzMiIHkxPSIxNzUuMDYiIHkyPSIxNzUuMDYiLz48bGluZSBzdHlsZT0ic3Ryb2tlOiM1MDUwNTA7c3Ryb2tlLXdpZHRoOjE7IiB4MT0iMzc3LjMzIiB4Mj0iMzc3LjMzIiB5MT0iMTc2LjA2IiB5Mj0iMTY4LjA2Ii8+PGxpbmUgc3R5bGU9InN0cm9rZTojNTA1MDUwO3N0cm9rZS13aWR0aDoxOyIgeDE9IjM3Ny4zMyIgeDI9IjM4My4zMyIgeTE9IjI3OS43OSIgeTI9IjI4Ny43OSIvPjxsaW5lIHN0eWxlPSJzdHJva2U6IzUwNTA1MDtzdHJva2Utd2lkdGg6MTsiIHgxPSIzNzcuMzMiIHgyPSIzNzEuMzMiIHkxPSIyNzkuNzkiIHkyPSIyODcuNzkiLz48bGluZSBzdHlsZT0ic3Ryb2tlOiM1MDUwNTA7c3Ryb2tlLXdpZHRoOjE7IiB4MT0iMzc3LjMzIiB4Mj0iMzc3LjMzIiB5MT0iMjc5Ljc5IiB5Mj0iMjg3Ljc5Ii8+PGVsbGlwc2UgY3g9IjM3Ny4zMyIgY3k9IjI3My43OSIgZmlsbD0ibm9uZSIgcng9IjQiIHJ5PSI0IiBzdHlsZT0ic3Ryb2tlOiM1MDUwNTA7c3Ryb2tlLXdpZHRoOjE7Ii8+PHRleHQgZmlsbD0iIzAwMDAwMCIgZm9udC1mYW1pbHk9InNhbnMtc2VyaWYiIGZvbnQtc2l6ZT0iMTMiIGxlbmd0aEFkanVzdD0ic3BhY2luZyIgdGV4dExlbmd0aD0iNTIiIHg9IjMyNC4zMyIgeT0iMjI2LjIwOTEiPmhhcyByb2xlPC90ZXh0Pjx0ZXh0IGZpbGw9IiMwMDAwMDAiIGZvbnQtZmFtaWx5PSJzYW5zLXNlcmlmIiBmb250LXNpemU9IjEzIiBsZW5ndGhBZGp1c3Q9InNwYWNpbmciIHRleHRMZW5ndGg9IjYuNSIgeD0iMzY0Ljc0NjUiIHk9IjE4OC4xNDk4Ij4xPC90ZXh0Pjx0ZXh0IGZpbGw9IiMwMDAwMDAiIGZvbnQtZmFtaWx5PSJzYW5zLXNlcmlmIiBmb250LXNpemU9IjEzIiBsZW5ndGhBZGp1c3Q9InNwYWNpbmciIHRleHRMZW5ndGg9IjI2IiB4PSIzNjAuNTc2MiIgeT0iMjc4LjQ3MjMiPjAuLjE8L3RleHQ+PC9nPjwhLS1saW5rIHVzZXJzIHRvIG1lcmNoYW50LS0+PGcgY2xhc3M9ImxpbmsiIGRhdGEtZW50aXR5LTE9InVzZXJzIiBkYXRhLWVudGl0eS0yPSJtZXJjaGFudCIgZGF0YS1zb3VyY2UtbGluZT0iMTE2IiBkYXRhLXVpZD0ibG5rMTQiIGlkPSJsaW5rX3VzZXJzX21lcmNoYW50Ij48cGF0aCBjb2RlTGluZT0iMTE2IiBkPSJNMzU5LjE3LDE3Ni4yNiBDMzU5LjE3LDIyNy40MiAzNTkuMTcsMjc2IDM1OS4xNywyNzYgQzM1OS4xNywyNzYgMjk2LjE1LDI3NiAyMjYuMDUsMjc2IiBmaWxsPSJub25lIiBpZD0idXNlcnMtbWVyY2hhbnQiIHN0eWxlPSJzdHJva2U6IzUwNTA1MDtzdHJva2Utd2lkdGg6MTsiLz48bGluZSBzdHlsZT0ic3Ryb2tlOiM1MDUwNTA7c3Ryb2tlLXdpZHRoOjE7IiB4MT0iMzU1LjE3IiB4Mj0iMzYzLjE3IiB5MT0iMTcyLjI2IiB5Mj0iMTcyLjI2Ii8+PGxpbmUgc3R5bGU9InN0cm9rZTojNTA1MDUwO3N0cm9rZS13aWR0aDoxOyIgeDE9IjM1NS4xNyIgeDI9IjM2My4xNyIgeTE9IjE3NS4yNiIgeTI9IjE3NS4yNiIvPjxsaW5lIHN0eWxlPSJzdHJva2U6IzUwNTA1MDtzdHJva2Utd2lkdGg6MTsiIHgxPSIzNTkuMTciIHgyPSIzNTkuMTciIHkxPSIxNzYuMjYiIHkyPSIxNjguMjYiLz48bGluZSBzdHlsZT0ic3Ryb2tlOiM1MDUwNTA7c3Ryb2tlLXdpZHRoOjE7IiB4MT0iMjE2LjA1IiB4Mj0iMjA4LjA1IiB5MT0iMjc2IiB5Mj0iMjgyIi8+PGxpbmUgc3R5bGU9InN0cm9rZTojNTA1MDUwO3N0cm9rZS13aWR0aDoxOyIgeDE9IjIxNi4wNSIgeDI9IjIwOC4wNSIgeTE9IjI3NiIgeTI9IjI3MCIvPjxsaW5lIHN0eWxlPSJzdHJva2U6IzUwNTA1MDtzdHJva2Utd2lkdGg6MTsiIHgxPSIyMTYuMDUiIHgyPSIyMDguMDUiIHkxPSIyNzYiIHkyPSIyNzYiLz48ZWxsaXBzZSBjeD0iMjIyLjA1IiBjeT0iMjc2IiBmaWxsPSJub25lIiByeD0iNCIgcnk9IjQiIHN0eWxlPSJzdHJva2U6IzUwNTA1MDtzdHJva2Utd2lkdGg6MTsiLz48dGV4dCBmaWxsPSIjMDAwMDAwIiBmb250LWZhbWlseT0ic2Fucy1zZXJpZiIgZm9udC1zaXplPSIxMyIgbGVuZ3RoQWRqdXN0PSJzcGFjaW5nIiB0ZXh0TGVuZ3RoPSI1MiIgeD0iMjg0LjQ4IiB5PSIyNzQuMjg5MSI+aGFzIHJvbGU8L3RleHQ+PHRleHQgZmlsbD0iIzAwMDAwMCIgZm9udC1mYW1pbHk9InNhbnMtc2VyaWYiIGZvbnQtc2l6ZT0iMTMiIGxlbmd0aEFkanVzdD0ic3BhY2luZyIgdGV4dExlbmd0aD0iNi41IiB4PSIzNDUuMjU2OSIgeT0iMTg4LjA5MzMiPjE8L3RleHQ+PHRleHQgZmlsbD0iIzAwMDAwMCIgZm9udC1mYW1pbHk9InNhbnMtc2VyaWYiIGZvbnQtc2l6ZT0iMTMiIGxlbmd0aEFkanVzdD0ic3BhY2luZyIgdGV4dExlbmd0aD0iMjYiIHg9IjIxNi4wMzQiIHk9IjI3MS41Mjc2Ij4wLi4xPC90ZXh0PjwvZz48IS0tbGluayB1c2VycyB0byBjYXJ0cy0tPjxnIGNsYXNzPSJsaW5rIiBkYXRhLWVudGl0eS0xPSJ1c2VycyIgZGF0YS1lbnRpdHktMj0iY2FydHMiIGRhdGEtc291cmNlLWxpbmU9IjExNyIgZGF0YS11aWQ9ImxuazE1IiBpZD0ibGlua191c2Vyc19jYXJ0cyI+PHBhdGggY29kZUxpbmU9IjExNyIgZD0iTTUxOS42NywxNzYuMDYgQzUxOS42NywyMTMuNzEgNTE5LjY3LDI0MS4wNCA1MTkuNjcsMjcyLjM3IiBmaWxsPSJub25lIiBpZD0idXNlcnMtY2FydHMiIHN0eWxlPSJzdHJva2U6IzUwNTA1MDtzdHJva2Utd2lkdGg6MTsiLz48bGluZSBzdHlsZT0ic3Ryb2tlOiM1MDUwNTA7c3Ryb2tlLXdpZHRoOjE7IiB4MT0iNTE1LjY3IiB4Mj0iNTIzLjY3IiB5MT0iMTcyLjA2IiB5Mj0iMTcyLjA2Ii8+PGxpbmUgc3R5bGU9InN0cm9rZTojNTA1MDUwO3N0cm9rZS13aWR0aDoxOyIgeDE9IjUxNS42NyIgeDI9IjUyMy42NyIgeTE9IjE3NS4wNiIgeTI9IjE3NS4wNiIvPjxsaW5lIHN0eWxlPSJzdHJva2U6IzUwNTA1MDtzdHJva2Utd2lkdGg6MTsiIHgxPSI1MTkuNjciIHgyPSI1MTkuNjciIHkxPSIxNzYuMDYiIHkyPSIxNjguMDYiLz48bGluZSBzdHlsZT0ic3Ryb2tlOiM1MDUwNTA7c3Ryb2tlLXdpZHRoOjE7IiB4MT0iNTIzLjY3IiB4Mj0iNTE1LjY3IiB5MT0iMjc2LjM3IiB5Mj0iMjc2LjM3Ii8+PGxpbmUgc3R5bGU9InN0cm9rZTojNTA1MDUwO3N0cm9rZS13aWR0aDoxOyIgeDE9IjUyMy42NyIgeDI9IjUxNS42NyIgeTE9IjI3My4zNyIgeTI9IjI3My4zNyIvPjxsaW5lIHN0eWxlPSJzdHJva2U6IzUwNTA1MDtzdHJva2Utd2lkdGg6MTsiIHgxPSI1MTkuNjciIHgyPSI1MTkuNjciIHkxPSIyNzIuMzciIHkyPSIyODAuMzciLz48dGV4dCBmaWxsPSIjMDAwMDAwIiBmb250LWZhbWlseT0ic2Fucy1zZXJpZiIgZm9udC1zaXplPSIxMyIgbGVuZ3RoQWRqdXN0PSJzcGFjaW5nIiB0ZXh0TGVuZ3RoPSIyNiIgeD0iNDkyLjY3IiB5PSIyMjIuNTA5MSI+b3duczwvdGV4dD48dGV4dCBmaWxsPSIjMDAwMDAwIiBmb250LWZhbWlseT0ic2Fucy1zZXJpZiIgZm9udC1zaXplPSIxMyIgbGVuZ3RoQWRqdXN0PSJzcGFjaW5nIiB0ZXh0TGVuZ3RoPSI2LjUiIHg9IjUxOS43NjM3IiB5PSIxODguMTQ5OCI+MTwvdGV4dD48dGV4dCBmaWxsPSIjMDAwMDAwIiBmb250LWZhbWlseT0ic2Fucy1zZXJpZiIgZm9udC1zaXplPSIxMyIgbGVuZ3RoQWRqdXN0PSJzcGFjaW5nIiB0ZXh0TGVuZ3RoPSI2LjUiIHg9IjUwMS42MzIzIiB5PSIyNzAuOTA1NyI+MTwvdGV4dD48L2c+PCEtLWxpbmsgdXNlcnMgdG8gb3JkZXJzLS0+PGcgY2xhc3M9ImxpbmsiIGRhdGEtZW50aXR5LTE9InVzZXJzIiBkYXRhLWVudGl0eS0yPSJvcmRlcnMiIGRhdGEtc291cmNlLWxpbmU9IjExOCIgZGF0YS11aWQ9ImxuazE2IiBpZD0ibGlua191c2Vyc19vcmRlcnMiPjxwYXRoIGNvZGVMaW5lPSIxMTgiIGQ9Ik01MzcuODMsMTg2LjI1IEM1MzcuODMsMjM1LjQ4IDUzNy44MywyNzEgNTM3LjgzLDI3MSBDNTM3LjgzLDI3MSA2MTguNTIsMjcxIDY5NC43MywyNzEiIGZpbGw9Im5vbmUiIGlkPSJ1c2Vycy1vcmRlcnMiIHN0eWxlPSJzdHJva2U6IzUwNTA1MDtzdHJva2Utd2lkdGg6MTsiLz48bGluZSBzdHlsZT0ic3Ryb2tlOiM1MDUwNTA7c3Ryb2tlLXdpZHRoOjE7IiB4MT0iNTM3LjgzIiB4Mj0iNTMxLjgzIiB5MT0iMTc2LjI1IiB5Mj0iMTY4LjI1Ii8+PGxpbmUgc3R5bGU9InN0cm9rZTojNTA1MDUwO3N0cm9rZS13aWR0aDoxOyIgeDE9IjUzNy44MyIgeDI9IjU0My44MyIgeTE9IjE3Ni4yNSIgeTI9IjE2OC4yNSIvPjxsaW5lIHN0eWxlPSJzdHJva2U6IzUwNTA1MDtzdHJva2Utd2lkdGg6MTsiIHgxPSI1MzcuODMiIHgyPSI1MzcuODMiIHkxPSIxNzYuMjUiIHkyPSIxNjguMjUiLz48ZWxsaXBzZSBjeD0iNTM3LjgzIiBjeT0iMTgyLjI1IiBmaWxsPSJub25lIiByeD0iNCIgcnk9IjQiIHN0eWxlPSJzdHJva2U6IzUwNTA1MDtzdHJva2Utd2lkdGg6MTsiLz48bGluZSBzdHlsZT0ic3Ryb2tlOiM1MDUwNTA7c3Ryb2tlLXdpZHRoOjE7IiB4MT0iNjk4LjczIiB4Mj0iNjk4LjczIiB5MT0iMjY3IiB5Mj0iMjc1Ii8+PGxpbmUgc3R5bGU9InN0cm9rZTojNTA1MDUwO3N0cm9rZS13aWR0aDoxOyIgeDE9IjY5NS43MyIgeDI9IjY5NS43MyIgeTE9IjI2NyIgeTI9IjI3NSIvPjxsaW5lIHN0eWxlPSJzdHJva2U6IzUwNTA1MDtzdHJva2Utd2lkdGg6MTsiIHgxPSI2OTQuNzMiIHgyPSI3MDIuNzMiIHkxPSIyNzEiIHkyPSIyNzEiLz48dGV4dCBmaWxsPSIjMDAwMDAwIiBmb250LWZhbWlseT0ic2Fucy1zZXJpZiIgZm9udC1zaXplPSIxMyIgbGVuZ3RoQWRqdXN0PSJzcGFjaW5nIiB0ZXh0TGVuZ3RoPSIzOSIgeD0iNTI4LjkxIiB5PSIyNjkuMjg5MSI+cGxhY2VzPC90ZXh0Pjx0ZXh0IGZpbGw9IiMwMDAwMDAiIGZvbnQtZmFtaWx5PSJzYW5zLXNlcmlmIiBmb250LXNpemU9IjEzIiBsZW5ndGhBZGp1c3Q9InNwYWNpbmciIHRleHRMZW5ndGg9IjYuNSIgeD0iNTM5LjI3MDUiIHk9IjE4OC4wODI0Ij4xPC90ZXh0Pjx0ZXh0IGZpbGw9IiMwMDAwMDAiIGZvbnQtZmFtaWx5PSJzYW5zLXNlcmlmIiBmb250LXNpemU9IjEzIiBsZW5ndGhBZGp1c3Q9InNwYWNpbmciIHRleHRMZW5ndGg9IjI2IiB4PSI2NjguOTkzMiIgeT0iMjY2LjU0MTciPjAuLk48L3RleHQ+PC9nPjwhLS1saW5rIHVzZXJzIHRvIHVzZXJfcmV2aWV3cy0tPjxnIGNsYXNzPSJsaW5rIiBkYXRhLWVudGl0eS0xPSJ1c2VycyIgZGF0YS1lbnRpdHktMj0idXNlcl9yZXZpZXdzIiBkYXRhLXNvdXJjZS1saW5lPSIxMTkiIGRhdGEtdWlkPSJsbmsxNyIgaWQ9ImxpbmtfdXNlcnNfdXNlcl9yZXZpZXdzIj48cGF0aCBjb2RlTGluZT0iMTE5IiBkPSJNNDY5LjI1LDE4Ni4xNSBDNDY5LjI1LDI3NC41NSA0NjkuMjUsMzg4LjcgNDY5LjI1LDQ3MC43MiIgZmlsbD0ibm9uZSIgaWQ9InVzZXJzLXVzZXJfcmV2aWV3cyIgc3R5bGU9InN0cm9rZTojNTA1MDUwO3N0cm9rZS13aWR0aDoxOyIvPjxsaW5lIHN0eWxlPSJzdHJva2U6IzUwNTA1MDtzdHJva2Utd2lkdGg6MTsiIHgxPSI0NjkuMjUiIHgyPSI0NjMuMjUiIHkxPSIxNzYuMTUiIHkyPSIxNjguMTUiLz48bGluZSBzdHlsZT0ic3Ryb2tlOiM1MDUwNTA7c3Ryb2tlLXdpZHRoOjE7IiB4MT0iNDY5LjI1IiB4Mj0iNDc1LjI1IiB5MT0iMTc2LjE1IiB5Mj0iMTY4LjE1Ii8+PGxpbmUgc3R5bGU9InN0cm9rZTojNTA1MDUwO3N0cm9rZS13aWR0aDoxOyIgeDE9IjQ2OS4yNSIgeDI9IjQ2OS4yNSIgeTE9IjE3Ni4xNSIgeTI9IjE2OC4xNSIvPjxlbGxpcHNlIGN4PSI0NjkuMjUiIGN5PSIxODIuMTUiIGZpbGw9Im5vbmUiIHJ4PSI0IiByeT0iNCIgc3R5bGU9InN0cm9rZTojNTA1MDUwO3N0cm9rZS13aWR0aDoxOyIvPjxsaW5lIHN0eWxlPSJzdHJva2U6IzUwNTA1MDtzdHJva2Utd2lkdGg6MTsiIHgxPSI0NzMuMjUiIHgyPSI0NjUuMjUiIHkxPSI0NzQuNzIiIHkyPSI0NzQuNzIiLz48bGluZSBzdHlsZT0ic3Ryb2tlOiM1MDUwNTA7c3Ryb2tlLXdpZHRoOjE7IiB4MT0iNDczLjI1IiB4Mj0iNDY1LjI1IiB5MT0iNDcxLjcyIiB5Mj0iNDcxLjcyIi8+PGxpbmUgc3R5bGU9InN0cm9rZTojNTA1MDUwO3N0cm9rZS13aWR0aDoxOyIgeDE9IjQ2OS4yNSIgeDI9IjQ2OS4yNSIgeTE9IjQ3MC43MiIgeTI9IjQ3OC43MiIvPjx0ZXh0IGZpbGw9IiMwMDAwMDAiIGZvbnQtZmFtaWx5PSJzYW5zLXNlcmlmIiBmb250LXNpemU9IjEzIiBsZW5ndGhBZGp1c3Q9InNwYWNpbmciIHRleHRMZW5ndGg9IjM5IiB4PSI0MjkuMjUiIHk9IjMyMS43MTkxIj53cml0ZXM8L3RleHQ+PHRleHQgZmlsbD0iIzAwMDAwMCIgZm9udC1mYW1pbHk9InNhbnMtc2VyaWYiIGZvbnQtc2l6ZT0iMTMiIGxlbmd0aEFkanVzdD0ic3BhY2luZyIgdGV4dExlbmd0aD0iNi41IiB4PSI0NjQuODUzMSIgeT0iMTg4LjI0NzgiPjE8L3RleHQ+PHRleHQgZmlsbD0iIzAwMDAwMCIgZm9udC1mYW1pbHk9InNhbnMtc2VyaWYiIGZvbnQtc2l6ZT0iMTMiIGxlbmd0aEFkanVzdD0ic3BhY2luZyIgdGV4dExlbmd0aD0iMjYiIHg9IjQzMy4zNDc3IiB5PSI0NjkuMjYyMyI+MC4uTjwvdGV4dD48L2c+PCEtLWxpbmsgY2FydHMgdG8gY2FydF9pdGVtcy0tPjxnIGNsYXNzPSJsaW5rIiBkYXRhLWVudGl0eS0xPSJjYXJ0cyIgZGF0YS1lbnRpdHktMj0iY2FydF9pdGVtcyIgZGF0YS1zb3VyY2UtbGluZT0iMTIxIiBkYXRhLXVpZD0ibG5rMTgiIGlkPSJsaW5rX2NhcnRzX2NhcnRfaXRlbXMiPjxwYXRoIGNvZGVMaW5lPSIxMjEiIGQ9Ik02NTIuNzUsMzg0LjczIEM2NTIuNzUsNDQ5LjE5IDY1Mi43NSw1NDUgNjUyLjc1LDU0NSBDNjUyLjc1LDU0NSA2NzUuNDQsNTQ1IDcwOS40OCw1NDUiIGZpbGw9Im5vbmUiIGlkPSJjYXJ0cy1jYXJ0X2l0ZW1zIiBzdHlsZT0ic3Ryb2tlOiM1MDUwNTA7c3Ryb2tlLXdpZHRoOjE7Ii8+PGxpbmUgc3R5bGU9InN0cm9rZTojNTA1MDUwO3N0cm9rZS13aWR0aDoxOyIgeDE9IjY1Mi43NSIgeDI9IjY0Ni43NSIgeTE9IjM3NC43MyIgeTI9IjM2Ni43MyIvPjxsaW5lIHN0eWxlPSJzdHJva2U6IzUwNTA1MDtzdHJva2Utd2lkdGg6MTsiIHgxPSI2NTIuNzUiIHgyPSI2NTguNzUiIHkxPSIzNzQuNzMiIHkyPSIzNjYuNzMiLz48bGluZSBzdHlsZT0ic3Ryb2tlOiM1MDUwNTA7c3Ryb2tlLXdpZHRoOjE7IiB4MT0iNjUyLjc1IiB4Mj0iNjUyLjc1IiB5MT0iMzc0LjczIiB5Mj0iMzY2LjczIi8+PGVsbGlwc2UgY3g9IjY1Mi43NSIgY3k9IjM4MC43MyIgZmlsbD0ibm9uZSIgcng9IjQiIHJ5PSI0IiBzdHlsZT0ic3Ryb2tlOiM1MDUwNTA7c3Ryb2tlLXdpZHRoOjE7Ii8+PGxpbmUgc3R5bGU9InN0cm9rZTojNTA1MDUwO3N0cm9rZS13aWR0aDoxOyIgeDE9IjcxMy40OCIgeDI9IjcxMy40OCIgeTE9IjU0MSIgeTI9IjU0OSIvPjxsaW5lIHN0eWxlPSJzdHJva2U6IzUwNTA1MDtzdHJva2Utd2lkdGg6MTsiIHgxPSI3MTAuNDgiIHgyPSI3MTAuNDgiIHkxPSI1NDEiIHkyPSI1NDkiLz48bGluZSBzdHlsZT0ic3Ryb2tlOiM1MDUwNTA7c3Ryb2tlLXdpZHRoOjE7IiB4MT0iNzA5LjQ4IiB4Mj0iNzE3LjQ4IiB5MT0iNTQ1IiB5Mj0iNTQ1Ii8+PHRleHQgZmlsbD0iIzAwMDAwMCIgZm9udC1mYW1pbHk9InNhbnMtc2VyaWYiIGZvbnQtc2l6ZT0iMTMiIGxlbmd0aEFkanVzdD0ic3BhY2luZyIgdGV4dExlbmd0aD0iNTIiIHg9IjY1My43NSIgeT0iNDg2LjUxOTEiPmNvbnRhaW5zPC90ZXh0Pjx0ZXh0IGZpbGw9IiMwMDAwMDAiIGZvbnQtZmFtaWx5PSJzYW5zLXNlcmlmIiBmb250LXNpemU9IjEzIiBsZW5ndGhBZGp1c3Q9InNwYWNpbmciIHRleHRMZW5ndGg9IjYuNSIgeD0iNjU2Ljc3OTciIHk9IjM4Ni43MDg3Ij4xPC90ZXh0Pjx0ZXh0IGZpbGw9IiMwMDAwMDAiIGZvbnQtZmFtaWx5PSJzYW5zLXNlcmlmIiBmb250LXNpemU9IjEzIiBsZW5ndGhBZGp1c3Q9InNwYWNpbmciIHRleHRMZW5ndGg9IjI2IiB4PSI2ODMuNTkyNSIgeT0iNTQzLjg2NzciPjAuLk48L3RleHQ+PC9nPjwhLS1saW5rIHByb2R1Y3RzIHRvIGNhcnRfaXRlbXMtLT48ZyBjbGFzcz0ibGluayIgZGF0YS1lbnRpdHktMT0icHJvZHVjdHMiIGRhdGEtZW50aXR5LTI9ImNhcnRfaXRlbXMiIGRhdGEtc291cmNlLWxpbmU9IjEyMiIgZGF0YS11aWQ9ImxuazE5IiBpZD0ibGlua19wcm9kdWN0c19jYXJ0X2l0ZW1zIj48cGF0aCBjb2RlTGluZT0iMTIyIiBkPSJNOTM1LjMxLDQwNyBDODY0LjMxLDQwNyA4MDcuNSw0MDcgODA3LjUsNDA3IEM4MDcuNSw0MDcgODA3LjUsNDQ2LjUyIDgwNy41LDQ4NS42OSIgZmlsbD0ibm9uZSIgaWQ9InByb2R1Y3RzLWNhcnRfaXRlbXMiIHN0eWxlPSJzdHJva2U6IzUwNTA1MDtzdHJva2Utd2lkdGg6MTsiLz48bGluZSBzdHlsZT0ic3Ryb2tlOiM1MDUwNTA7c3Ryb2tlLXdpZHRoOjE7IiB4MT0iOTQ1LjMxIiB4Mj0iOTUzLjMxIiB5MT0iNDA3IiB5Mj0iNDAxIi8+PGxpbmUgc3R5bGU9InN0cm9rZTojNTA1MDUwO3N0cm9rZS13aWR0aDoxOyIgeDE9Ijk0NS4zMSIgeDI9Ijk1My4zMSIgeTE9IjQwNyIgeTI9IjQxMyIvPjxsaW5lIHN0eWxlPSJzdHJva2U6IzUwNTA1MDtzdHJva2Utd2lkdGg6MTsiIHgxPSI5NDUuMzEiIHgyPSI5NTMuMzEiIHkxPSI0MDciIHkyPSI0MDciLz48ZWxsaXBzZSBjeD0iOTM5LjMxIiBjeT0iNDA3IiBmaWxsPSJub25lIiByeD0iNCIgcnk9IjQiIHN0eWxlPSJzdHJva2U6IzUwNTA1MDtzdHJva2Utd2lkdGg6MTsiLz48bGluZSBzdHlsZT0ic3Ryb2tlOiM1MDUwNTA7c3Ryb2tlLXdpZHRoOjE7IiB4MT0iODExLjUiIHgyPSI4MDMuNSIgeTE9IjQ4OS42OSIgeTI9IjQ4OS42OSIvPjxsaW5lIHN0eWxlPSJzdHJva2U6IzUwNTA1MDtzdHJva2Utd2lkdGg6MTsiIHgxPSI4MTEuNSIgeDI9IjgwMy41IiB5MT0iNDg2LjY5IiB5Mj0iNDg2LjY5Ii8+PGxpbmUgc3R5bGU9InN0cm9rZTojNTA1MDUwO3N0cm9rZS13aWR0aDoxOyIgeDE9IjgwNy41IiB4Mj0iODA3LjUiIHkxPSI0ODUuNjkiIHkyPSI0OTMuNjkiLz48dGV4dCBmaWxsPSIjMDAwMDAwIiBmb250LWZhbWlseT0ic2Fucy1zZXJpZiIgZm9udC1zaXplPSIxMyIgbGVuZ3RoQWRqdXN0PSJzcGFjaW5nIiB0ZXh0TGVuZ3RoPSI2NSIgeD0iNzcxLjA2IiB5PSI0MDUuMjg5MSI+aXMgaXRlbSBpbjwvdGV4dD48dGV4dCBmaWxsPSIjMDAwMDAwIiBmb250LWZhbWlseT0ic2Fucy1zZXJpZiIgZm9udC1zaXplPSIxMyIgbGVuZ3RoQWRqdXN0PSJzcGFjaW5nIiB0ZXh0TGVuZ3RoPSI2LjUiIHg9IjkzOS4xMTM4IiB5PSI0MTEuMjU2NyI+MTwvdGV4dD48dGV4dCBmaWxsPSIjMDAwMDAwIiBmb250LWZhbWlseT0ic2Fucy1zZXJpZiIgZm9udC1zaXplPSIxMyIgbGVuZ3RoQWRqdXN0PSJzcGFjaW5nIiB0ZXh0TGVuZ3RoPSIyNiIgeD0iNzc5LjUwOTQiIHk9IjQ4NC4yNzk0Ij4wLi5OPC90ZXh0PjwvZz48IS0tbGluayBjYXRlZ29yeSB0byBwcm9kdWN0cy0tPjxnIGNsYXNzPSJsaW5rIiBkYXRhLWVudGl0eS0xPSJjYXRlZ29yeSIgZGF0YS1lbnRpdHktMj0icHJvZHVjdHMiIGRhdGEtc291cmNlLWxpbmU9IjEyNCIgZGF0YS11aWQ9ImxuazIwIiBpZD0ibGlua19jYXRlZ29yeV9wcm9kdWN0cyI+PHBhdGggY29kZUxpbmU9IjEyNCIgZD0iTTEwMDYsMTQxLjA5IEMxMDA2LDE2OC45IDEwMDYsMTgyLjkyIDEwMDYsMjE5Ljg5IiBmaWxsPSJub25lIiBpZD0iY2F0ZWdvcnktcHJvZHVjdHMiIHN0eWxlPSJzdHJva2U6IzUwNTA1MDtzdHJva2Utd2lkdGg6MTsiLz48bGluZSBzdHlsZT0ic3Ryb2tlOiM1MDUwNTA7c3Ryb2tlLXdpZHRoOjE7IiB4MT0iMTAwNiIgeDI9IjEwMDAiIHkxPSIxMzEuMDkiIHkyPSIxMjMuMDkiLz48bGluZSBzdHlsZT0ic3Ryb2tlOiM1MDUwNTA7c3Ryb2tlLXdpZHRoOjE7IiB4MT0iMTAwNiIgeDI9IjEwMTIiIHkxPSIxMzEuMDkiIHkyPSIxMjMuMDkiLz48bGluZSBzdHlsZT0ic3Ryb2tlOiM1MDUwNTA7c3Ryb2tlLXdpZHRoOjE7IiB4MT0iMTAwNiIgeDI9IjEwMDYiIHkxPSIxMzEuMDkiIHkyPSIxMjMuMDkiLz48ZWxsaXBzZSBjeD0iMTAwNiIgY3k9IjEzNy4wOSIgZmlsbD0ibm9uZSIgcng9IjQiIHJ5PSI0IiBzdHlsZT0ic3Ryb2tlOiM1MDUwNTA7c3Ryb2tlLXdpZHRoOjE7Ii8+PGxpbmUgc3R5bGU9InN0cm9rZTojNTA1MDUwO3N0cm9rZS13aWR0aDoxOyIgeDE9IjEwMTAiIHgyPSIxMDAyIiB5MT0iMjIzLjg5IiB5Mj0iMjIzLjg5Ii8+PGxpbmUgc3R5bGU9InN0cm9rZTojNTA1MDUwO3N0cm9rZS13aWR0aDoxOyIgeDE9IjEwMTAiIHgyPSIxMDAyIiB5MT0iMjIwLjg5IiB5Mj0iMjIwLjg5Ii8+PGxpbmUgc3R5bGU9InN0cm9rZTojNTA1MDUwO3N0cm9rZS13aWR0aDoxOyIgeDE9IjEwMDYiIHgyPSIxMDA2IiB5MT0iMjE5Ljg5IiB5Mj0iMjI3Ljg5Ii8+PHRleHQgZmlsbD0iIzAwMDAwMCIgZm9udC1mYW1pbHk9InNhbnMtc2VyaWYiIGZvbnQtc2l6ZT0iMTMiIGxlbmd0aEFkanVzdD0ic3BhY2luZyIgdGV4dExlbmd0aD0iMzkiIHg9Ijk2NiIgeT0iMTczLjc3OTEiPmdyb3VwczwvdGV4dD48dGV4dCBmaWxsPSIjMDAwMDAwIiBmb250LWZhbWlseT0ic2Fucy1zZXJpZiIgZm9udC1zaXplPSIxMyIgbGVuZ3RoQWRqdXN0PSJzcGFjaW5nIiB0ZXh0TGVuZ3RoPSI2LjUiIHg9IjEwMTQuMTUwOCIgeT0iMTQzLjIyOCI+MTwvdGV4dD48dGV4dCBmaWxsPSIjMDAwMDAwIiBmb250LWZhbWlseT0ic2Fucy1zZXJpZiIgZm9udC1zaXplPSIxMyIgbGVuZ3RoQWRqdXN0PSJzcGFjaW5nIiB0ZXh0TGVuZ3RoPSIyNiIgeD0iOTcyLjY1MjMiIHk9IjIxOC40NTA2Ij4wLi5OPC90ZXh0PjwvZz48IS0tbGluayBzdXBwbGllcnMgdG8gcHJvZHVjdHMtLT48ZyBjbGFzcz0ibGluayIgZGF0YS1lbnRpdHktMT0ic3VwcGxpZXJzIiBkYXRhLWVudGl0eS0yPSJwcm9kdWN0cyIgZGF0YS1zb3VyY2UtbGluZT0iMTI1IiBkYXRhLXVpZD0ibG5rMjEiIGlkPSJsaW5rX3N1cHBsaWVyc19wcm9kdWN0cyI+PHBhdGggY29kZUxpbmU9IjEyNSIgZD0iTTExNDguNzUsMTg2LjA2IEMxMTQ4Ljc1LDIwNS4yOSAxMTQ4Ljc1LDE5OS45OSAxMTQ4Ljc1LDIxOS44MyIgZmlsbD0ibm9uZSIgaWQ9InN1cHBsaWVycy1wcm9kdWN0cyIgc3R5bGU9InN0cm9rZTojNTA1MDUwO3N0cm9rZS13aWR0aDoxOyIvPjxsaW5lIHN0eWxlPSJzdHJva2U6IzUwNTA1MDtzdHJva2Utd2lkdGg6MTsiIHgxPSIxMTQ4Ljc1IiB4Mj0iMTE0Mi43NSIgeTE9IjE3Ni4wNiIgeTI9IjE2OC4wNiIvPjxsaW5lIHN0eWxlPSJzdHJva2U6IzUwNTA1MDtzdHJva2Utd2lkdGg6MTsiIHgxPSIxMTQ4Ljc1IiB4Mj0iMTE1NC43NSIgeTE9IjE3Ni4wNiIgeTI9IjE2OC4wNiIvPjxsaW5lIHN0eWxlPSJzdHJva2U6IzUwNTA1MDtzdHJva2Utd2lkdGg6MTsiIHgxPSIxMTQ4Ljc1IiB4Mj0iMTE0OC43NSIgeTE9IjE3Ni4wNiIgeTI9IjE2OC4wNiIvPjxlbGxpcHNlIGN4PSIxMTQ4Ljc1IiBjeT0iMTgyLjA2IiBmaWxsPSJub25lIiByeD0iNCIgcnk9IjQiIHN0eWxlPSJzdHJva2U6IzUwNTA1MDtzdHJva2Utd2lkdGg6MTsiLz48bGluZSBzdHlsZT0ic3Ryb2tlOiM1MDUwNTA7c3Ryb2tlLXdpZHRoOjE7IiB4MT0iMTE1Mi43NSIgeDI9IjExNDQuNzUiIHkxPSIyMjMuODMiIHkyPSIyMjMuODMiLz48bGluZSBzdHlsZT0ic3Ryb2tlOiM1MDUwNTA7c3Ryb2tlLXdpZHRoOjE7IiB4MT0iMTE1Mi43NSIgeDI9IjExNDQuNzUiIHkxPSIyMjAuODMiIHkyPSIyMjAuODMiLz48bGluZSBzdHlsZT0ic3Ryb2tlOiM1MDUwNTA7c3Ryb2tlLXdpZHRoOjE7IiB4MT0iMTE0OC43NSIgeDI9IjExNDguNzUiIHkxPSIyMTkuODMiIHkyPSIyMjcuODMiLz48dGV4dCBmaWxsPSIjMDAwMDAwIiBmb250LWZhbWlseT0ic2Fucy1zZXJpZiIgZm9udC1zaXplPSIxMyIgbGVuZ3RoQWRqdXN0PSJzcGFjaW5nIiB0ZXh0TGVuZ3RoPSI3OCIgeD0iMTA2OS43NSIgeT0iMTk2LjIyOTEiPiJzdXBwbGllcyIgJzwvdGV4dD48dGV4dCBmaWxsPSIjMDAwMDAwIiBmb250LWZhbWlseT0ic2Fucy1zZXJpZiIgZm9udC1zaXplPSIxMyIgbGVuZ3RoQWRqdXN0PSJzcGFjaW5nIiB0ZXh0TGVuZ3RoPSI2LjUiIHg9IjExMzUuMzEzMyIgeT0iMTg4LjE0OTgiPjE8L3RleHQ+PHRleHQgZmlsbD0iIzAwMDAwMCIgZm9udC1mYW1pbHk9InNhbnMtc2VyaWYiIGZvbnQtc2l6ZT0iMTMiIGxlbmd0aEFkanVzdD0ic3BhY2luZyIgdGV4dExlbmd0aD0iMjYiIHg9IjExMjcuNjY5OSIgeT0iMjE4LjM4NTUiPjAuLk48L3RleHQ+PC9nPjwhLS1saW5rIG9yZGVycyB0byBvcmRlcl9kZXRhaWwtLT48ZyBjbGFzcz0ibGluayIgZGF0YS1lbnRpdHktMT0ib3JkZXJzIiBkYXRhLWVudGl0eS0yPSJvcmRlcl9kZXRhaWwiIGRhdGEtc291cmNlLWxpbmU9IjEyOCIgZGF0YS11aWQ9ImxuazIyIiBpZD0ibGlua19vcmRlcnNfb3JkZXJfZGV0YWlsIj48cGF0aCBjb2RlTGluZT0iMTI4IiBkPSJNOTA3Ljc1LDM5OS42MSBDOTA3Ljc1LDQ0Ny45OSA5MDcuNzUsNDkxIDkwNy43NSw0OTEgQzkwNy43NSw0OTEgOTIwLjc0LDQ5MSA5NDYuOTEsNDkxIiBmaWxsPSJub25lIiBpZD0ib3JkZXJzLW9yZGVyX2RldGFpbCIgc3R5bGU9InN0cm9rZTojNTA1MDUwO3N0cm9rZS13aWR0aDoxOyIvPjxsaW5lIHN0eWxlPSJzdHJva2U6IzUwNTA1MDtzdHJva2Utd2lkdGg6MTsiIHgxPSI5MDcuNzUiIHgyPSI5MDEuNzUiIHkxPSIzODkuNjEiIHkyPSIzODEuNjEiLz48bGluZSBzdHlsZT0ic3Ryb2tlOiM1MDUwNTA7c3Ryb2tlLXdpZHRoOjE7IiB4MT0iOTA3Ljc1IiB4Mj0iOTEzLjc1IiB5MT0iMzg5LjYxIiB5Mj0iMzgxLjYxIi8+PGxpbmUgc3R5bGU9InN0cm9rZTojNTA1MDUwO3N0cm9rZS13aWR0aDoxOyIgeDE9IjkwNy43NSIgeDI9IjkwNy43NSIgeTE9IjM4OS42MSIgeTI9IjM4MS42MSIvPjxlbGxpcHNlIGN4PSI5MDcuNzUiIGN5PSIzOTUuNjEiIGZpbGw9Im5vbmUiIHJ4PSI0IiByeT0iNCIgc3R5bGU9InN0cm9rZTojNTA1MDUwO3N0cm9rZS13aWR0aDoxOyIvPjxsaW5lIHN0eWxlPSJzdHJva2U6IzUwNTA1MDtzdHJva2Utd2lkdGg6MTsiIHgxPSI5NTAuOTEiIHgyPSI5NTAuOTEiIHkxPSI0ODciIHkyPSI0OTUiLz48bGluZSBzdHlsZT0ic3Ryb2tlOiM1MDUwNTA7c3Ryb2tlLXdpZHRoOjE7IiB4MT0iOTQ3LjkxIiB4Mj0iOTQ3LjkxIiB5MT0iNDg3IiB5Mj0iNDk1Ii8+PGxpbmUgc3R5bGU9InN0cm9rZTojNTA1MDUwO3N0cm9rZS13aWR0aDoxOyIgeDE9Ijk0Ni45MSIgeDI9Ijk1NC45MSIgeTE9IjQ5MSIgeTI9IjQ5MSIvPjx0ZXh0IGZpbGw9IiMwMDAwMDAiIGZvbnQtZmFtaWx5PSJzYW5zLXNlcmlmIiBmb250LXNpemU9IjEzIiBsZW5ndGhBZGp1c3Q9InNwYWNpbmciIHRleHRMZW5ndGg9Ijc4IiB4PSI4MjguNzUiIHk9IjQ1OC4xNjkxIj4iY29udGFpbnMiICc8L3RleHQ+PHRleHQgZmlsbD0iIzAwMDAwMCIgZm9udC1mYW1pbHk9InNhbnMtc2VyaWYiIGZvbnQtc2l6ZT0iMTMiIGxlbmd0aEFkanVzdD0ic3BhY2luZyIgdGV4dExlbmd0aD0iNi41IiB4PSI5MTMuMjY3MiIgeT0iNDAxLjgzNDgiPjE8L3RleHQ+PHRleHQgZmlsbD0iIzAwMDAwMCIgZm9udC1mYW1pbHk9InNhbnMtc2VyaWYiIGZvbnQtc2l6ZT0iMTMiIGxlbmd0aEFkanVzdD0ic3BhY2luZyIgdGV4dExlbmd0aD0iMjYiIHg9IjkyMC45MjMyIiB5PSI0ODYuMTA1NyI+MS4uTjwvdGV4dD48L2c+PCEtLWxpbmsgcHJvZHVjdHMgdG8gb3JkZXJfZGV0YWlsLS0+PGcgY2xhc3M9ImxpbmsiIGRhdGEtZW50aXR5LTE9InByb2R1Y3RzIiBkYXRhLWVudGl0eS0yPSJvcmRlcl9kZXRhaWwiIGRhdGEtc291cmNlLWxpbmU9IjEyOSIgZGF0YS11aWQ9ImxuazIzIiBpZD0ibGlua19wcm9kdWN0c19vcmRlcl9kZXRhaWwiPjxwYXRoIGNvZGVMaW5lPSIxMjkiIGQ9Ik0xMDU1LjUsNDM3LjE1IEMxMDU1LjUsNDYwLjAxIDEwNTUuNSw0NTcuNzQgMTA1NS41LDQ3OC4zMiIgZmlsbD0ibm9uZSIgaWQ9InByb2R1Y3RzLW9yZGVyX2RldGFpbCIgc3R5bGU9InN0cm9rZTojNTA1MDUwO3N0cm9rZS13aWR0aDoxOyIvPjxsaW5lIHN0eWxlPSJzdHJva2U6IzUwNTA1MDtzdHJva2Utd2lkdGg6MTsiIHgxPSIxMDU1LjUiIHgyPSIxMDQ5LjUiIHkxPSI0MjcuMTUiIHkyPSI0MTkuMTUiLz48bGluZSBzdHlsZT0ic3Ryb2tlOiM1MDUwNTA7c3Ryb2tlLXdpZHRoOjE7IiB4MT0iMTA1NS41IiB4Mj0iMTA2MS41IiB5MT0iNDI3LjE1IiB5Mj0iNDE5LjE1Ii8+PGxpbmUgc3R5bGU9InN0cm9rZTojNTA1MDUwO3N0cm9rZS13aWR0aDoxOyIgeDE9IjEwNTUuNSIgeDI9IjEwNTUuNSIgeTE9IjQyNy4xNSIgeTI9IjQxOS4xNSIvPjxlbGxpcHNlIGN4PSIxMDU1LjUiIGN5PSI0MzMuMTUiIGZpbGw9Im5vbmUiIHJ4PSI0IiByeT0iNCIgc3R5bGU9InN0cm9rZTojNTA1MDUwO3N0cm9rZS13aWR0aDoxOyIvPjxsaW5lIHN0eWxlPSJzdHJva2U6IzUwNTA1MDtzdHJva2Utd2lkdGg6MTsiIHgxPSIxMDU5LjUiIHgyPSIxMDUxLjUiIHkxPSI0ODIuMzIiIHkyPSI0ODIuMzIiLz48bGluZSBzdHlsZT0ic3Ryb2tlOiM1MDUwNTA7c3Ryb2tlLXdpZHRoOjE7IiB4MT0iMTA1OS41IiB4Mj0iMTA1MS41IiB5MT0iNDc5LjMyIiB5Mj0iNDc5LjMyIi8+PGxpbmUgc3R5bGU9InN0cm9rZTojNTA1MDUwO3N0cm9rZS13aWR0aDoxOyIgeDE9IjEwNTUuNSIgeDI9IjEwNTUuNSIgeTE9IjQ3OC4zMiIgeTI9IjQ4Ni4zMiIvPjx0ZXh0IGZpbGw9IiMwMDAwMDAiIGZvbnQtZmFtaWx5PSJzYW5zLXNlcmlmIiBmb250LXNpemU9IjEzIiBsZW5ndGhBZGp1c3Q9InNwYWNpbmciIHRleHRMZW5ndGg9IjY1IiB4PSI5ODkuNSIgeT0iNDUxLjAyOTEiPmlzIGl0ZW0gaW48L3RleHQ+PHRleHQgZmlsbD0iIzAwMDAwMCIgZm9udC1mYW1pbHk9InNhbnMtc2VyaWYiIGZvbnQtc2l6ZT0iMTMiIGxlbmd0aEFkanVzdD0ic3BhY2luZyIgdGV4dExlbmd0aD0iNi41IiB4PSIxMDQ3LjYwOSIgeT0iNDM4Ljk4MDYiPjE8L3RleHQ+PHRleHQgZmlsbD0iIzAwMDAwMCIgZm9udC1mYW1pbHk9InNhbnMtc2VyaWYiIGZvbnQtc2l6ZT0iMTMiIGxlbmd0aEFkanVzdD0ic3BhY2luZyIgdGV4dExlbmd0aD0iMjYiIHg9IjEwMjcuNzUzMSIgeT0iNDc2Ljk4NTQiPjAuLk48L3RleHQ+PC9nPjwhLS1saW5rIHByb2R1Y3RzIHRvIHVzZXJfcmV2aWV3cy0tPjxnIGNsYXNzPSJsaW5rIiBkYXRhLWVudGl0eS0xPSJwcm9kdWN0cyIgZGF0YS1lbnRpdHktMj0idXNlcl9yZXZpZXdzIiBkYXRhLXNvdXJjZS1saW5lPSIxMzEiIGRhdGEtdWlkPSJsbmsyNCIgaWQ9ImxpbmtfcHJvZHVjdHNfdXNlcl9yZXZpZXdzIj48cGF0aCBjb2RlTGluZT0iMTMxIiBkPSJNOTM1LjM5LDM5NCBDNzg0Ljc2LDM5NCA1NjkuNzUsMzk0IDU2OS43NSwzOTQgQzU2OS43NSwzOTQgNTY5Ljc1LDQzMC4zNyA1NjkuNzUsNDcwLjkzIiBmaWxsPSJub25lIiBpZD0icHJvZHVjdHMtdXNlcl9yZXZpZXdzIiBzdHlsZT0ic3Ryb2tlOiM1MDUwNTA7c3Ryb2tlLXdpZHRoOjE7Ii8+PGxpbmUgc3R5bGU9InN0cm9rZTojNTA1MDUwO3N0cm9rZS13aWR0aDoxOyIgeDE9Ijk0NS4zOSIgeDI9Ijk1My4zOSIgeTE9IjM5NCIgeTI9IjM4OCIvPjxsaW5lIHN0eWxlPSJzdHJva2U6IzUwNTA1MDtzdHJva2Utd2lkdGg6MTsiIHgxPSI5NDUuMzkiIHgyPSI5NTMuMzkiIHkxPSIzOTQiIHkyPSI0MDAiLz48bGluZSBzdHlsZT0ic3Ryb2tlOiM1MDUwNTA7c3Ryb2tlLXdpZHRoOjE7IiB4MT0iOTQ1LjM5IiB4Mj0iOTUzLjM5IiB5MT0iMzk0IiB5Mj0iMzk0Ii8+PGVsbGlwc2UgY3g9IjkzOS4zOSIgY3k9IjM5NCIgZmlsbD0ibm9uZSIgcng9IjQiIHJ5PSI0IiBzdHlsZT0ic3Ryb2tlOiM1MDUwNTA7c3Ryb2tlLXdpZHRoOjE7Ii8+PGxpbmUgc3R5bGU9InN0cm9rZTojNTA1MDUwO3N0cm9rZS13aWR0aDoxOyIgeDE9IjU3My43NSIgeDI9IjU2NS43NSIgeTE9IjQ3NC45MyIgeTI9IjQ3NC45MyIvPjxsaW5lIHN0eWxlPSJzdHJva2U6IzUwNTA1MDtzdHJva2Utd2lkdGg6MTsiIHgxPSI1NzMuNzUiIHgyPSI1NjUuNzUiIHkxPSI0NzEuOTMiIHkyPSI0NzEuOTMiLz48bGluZSBzdHlsZT0ic3Ryb2tlOiM1MDUwNTA7c3Ryb2tlLXdpZHRoOjE7IiB4MT0iNTY5Ljc1IiB4Mj0iNTY5Ljc1IiB5MT0iNDcwLjkzIiB5Mj0iNDc4LjkzIi8+PHRleHQgZmlsbD0iIzAwMDAwMCIgZm9udC1mYW1pbHk9InNhbnMtc2VyaWYiIGZvbnQtc2l6ZT0iMTMiIGxlbmd0aEFkanVzdD0ic3BhY2luZyIgdGV4dExlbmd0aD0iNTIiIHg9IjY2Ni4xMSIgeT0iNDA3LjI4OTEiPnJlY2VpdmVzPC90ZXh0Pjx0ZXh0IGZpbGw9IiMwMDAwMDAiIGZvbnQtZmFtaWx5PSJzYW5zLXNlcmlmIiBmb250LXNpemU9IjEzIiBsZW5ndGhBZGp1c3Q9InNwYWNpbmciIHRleHRMZW5ndGg9IjYuNSIgeD0iOTM5LjE5OSIgeT0iMzk3LjQyMzgiPjE8L3RleHQ+PHRleHQgZmlsbD0iIzAwMDAwMCIgZm9udC1mYW1pbHk9InNhbnMtc2VyaWYiIGZvbnQtc2l6ZT0iMTMiIGxlbmd0aEFkanVzdD0ic3BhY2luZyIgdGV4dExlbmd0aD0iMjYiIHg9IjU0Ni4wOTYxIiB5PSI0NjkuNDk3OSI+MC4uTjwvdGV4dD48L2c+PCEtLVNSQz1bYkxQalF6aW00RnhrTm83STNzZFBLZm4wTzlISXdCZ0VaUzRPc3h1N0hSdWNlaEFhSWRBcGhFYl90cWItSy1CT01KNDRJVlZTc3REdEtpUmFMY2tXWGFlNm44OXBOQXZpaWtPUDRDT0Q0djNPSG91cjBkOFlrMEl0cksyS1NNaUwyUFlXcmp1d1BfWW9TRjJMQVZjQl9tTUlIZjFST3pKY0pXYmJvRGF5ekx5YWxGRnc3b2J4TjFiTG9BbzJWVnhXbG12Q2NHcENlQUtsRzE3SWlOVVYtWXo5bmtIVUVrd3N2MUN5U0NhVEx6QUl5enpxQVMxVTk1M0EyV2w2YWZVNGE3VFhsVTBQa0k5U0VkOXpfVUZScEdxQTlYRnlVVTM2a2VNYUVRM3VjSGdzZmtQeWRid1cyNEZmYUsxRWtPWEVmc2J3V05PQm9QeUEyQk9yZmg3MUoyRkdSM3h0a1pKQjM1WUIwZzdhb2k0VnYtNWg5TTRYWXRtOTloT1JEOVcxd1kxUks4U1ludEVtWmtPd1VLdGdONmNNU3JkYjZqUHpvUHZyZ0ZaaWZRc2I3Qm5aYjlKNndrcVJ4SDVZcnFlVktrVDlnYUtYdG52UDFmT1BoZHJQT3ZCUTgxYXJoWXdqTnh5dmtmRTRRZ0VvV1pMRWdjc183dVJjTGlmaVpfV3c4eFJHTWwxazhFSDU1YUJ1aGR0cjdMM3ZFMjJqUWZlY1dmb2tPNTRPcU9OcXFFUHJFVkNjQ3MyZUJpd2RpX1RhNWpYc1lacWtkV2ZROVhyWXl5U0t2d1pQclB3SDhiVk9HeFRuS0tlQWNoZnE2T2F2US1KVC1PZTdnUkxWaXJaTnYxWWhpT0Q2VmdHQnpxU0xScGo3Q0tFRG5XRHRmc1V6VnM5ZFFVLUN6dEdUOE9ORVhqa25SNzg3LU54TnV5NUdJLXVGSGpFRUh2Z3ZhWHJxR2tpX3REWXJ4eDF2eXlZTE1aeEZXLUlUU2JHaVE4eHRsM2xNZkFOWWdVd2hwOEZwak9oWkI4X3dtLXJheW55eTFNZXhPekNwUGNzQ1dIYTNwbm1zRFBWYmhaLXdfWFh3WVF2Qy1meFJScHozX0wtM21CeFNVZk16d3dUSXduRzhteVZ0ellTODZmeFBEVFNzQVBfTXFOSDRUaGw5SEJzR0tOZnZZUmxvNlJlWWVwTXJuMlcxZXJ2ZXl5dUNlN1V4aTJubFV5SWZaUkdudmJNTDZCSnVWTEp0QUVBcWUwbTZhN2pyR0ZwNnUyR1hGWWF6VEhNWXlLRHVrMnd1M3dMdjlLd2ZTNGx5NldpTGw1R05QTFVoQ09Xd19mLUZIWVZqbEpVQ2h0MXNIQ080QXpSNjVXWGxzNnBEakplUE1NdzNNYkFINjdrUWprcE15bk1KR0NQM0Qxb2d4SDRuZTdUTzhXQ0MtM0Njem15MF0tLT48L2c+PC9zdmc+;" parent="1" vertex="1">
            <mxGeometry x="-214" y="1038" width="1372" height="616" as="geometry" />
          </mxCell>
        </UserObject>
        <UserObject label="" plantUmlData="{&#xa;  &quot;data&quot;: &quot;@startuml Deployment Diagram\n\n!include https://raw.githubusercontent.com/plantuml-stdlib/C4-PlantUML/master/C4_Container.puml\n\n&#39; === Настройки ===\n&#39; Вертикальное расположение\ntop to bottom direction\n\n&#39; === Акторы ===\nactor \&quot;Клиент (Веб)\&quot; as WebUser\nactor \&quot;Клиент (Мобильный)\&quot; as MobileUser\nactor \&quot;Администратор/Продавец\&quot; as StaffUser\n\n&#39; === Узлы (Nodes) ===\nnode \&quot;Клиентское устройство\&quot; as UserDevice {\n  component \&quot;Веб-браузер\&quot; as Browser\n  component \&quot;Мобильное приложение\&quot; as MobileApp\n}\n\nnode \&quot;Сервер Приложений (VPS/Cloud)\&quot; as AppServer {\n  &#39; Основное Java-приложение\n  node \&quot;JVM\&quot; as JVMNode {\n     artifact \&quot;mall-backend.jar\\n&lt;&lt;Spring Boot&gt;&gt;\&quot; as SpringBootApp\n  }\n\n  &#39; Отдельный сервис для AI (если выбран такой подход)\n  node \&quot;Python Runtime\&quot; as PythonNode {\n     artifact \&quot;predictor_service.py\\n&lt;&lt;Python/Flask/Scikit-learn&gt;&gt;\&quot; as PredictorApp\n  }\n}\n\nnode \&quot;Сервер Базы Данных\&quot; as DbServer {\n database \&quot;MySQL Database\&quot; as MySQLDB {\n   artifact \&quot;mall_schema\&quot; as DBSchema\n }\n}\n\n&#39; === Связи ===\nWebUser --&gt; Browser : \&quot;Использует\&quot;\nMobileUser --&gt; MobileApp : \&quot;Использует\&quot;\nStaffUser --&gt; Browser : \&quot;Использует (Админка/Кабинет)\&quot;\n\n&#39; Клиентские подключения напрямую к Spring Boot приложению\nBrowser --&gt; SpringBootApp : \&quot;HTTP/HTTPS\\n(Веб-интерфейс/API)\&quot;\nMobileApp --&gt; SpringBootApp : \&quot;HTTP/HTTPS\\n(API запросы)\&quot;\n\n&#39; Внутренние связи на сервере приложений\nSpringBootApp --&gt; PythonNode : \&quot;Запрос прогноза\\n(Внутренний HTTP API)\&quot;\n\n&#39; Связи приложения с базой данных\nSpringBootApp --&gt; MySQLDB : \&quot;Читает/Пишет данные\\n(JDBC)\&quot;\nPredictorApp --&gt; MySQLDB : \&quot;Читает данные продаж\\n(Python DB Driver)\&quot; &#39;(если читает напрямую)&#39;\n\n@enduml&quot;,&#xa;  &quot;format&quot;: &quot;svg&quot;&#xa;}" id="zz8Y5gfX_48jpuWeB3CX-2">
          <mxCell style="shape=image;noLabel=1;verticalAlign=top;aspect=fixed;imageAspect=0;image=data:image/svg+xml,PHN2ZyB4bWxucz0iaHR0cDovL3d3dy53My5vcmcvMjAwMC9zdmciIHhtbG5zOnhsaW5rPSJodHRwOi8vd3d3LnczLm9yZy8xOTk5L3hsaW5rIiBjb250ZW50U3R5bGVUeXBlPSJ0ZXh0L2NzcyIgZGF0YS1kaWFncmFtLXR5cGU9IkRFU0NSSVBUSU9OIiBoZWlnaHQ9Ijk1NHB4IiBwcmVzZXJ2ZUFzcGVjdFJhdGlvPSJub25lIiBzdHlsZT0id2lkdGg6Njc5cHg7aGVpZ2h0Ojk1NHB4O2JhY2tncm91bmQ6I0ZGRkZGRjsiIHZlcnNpb249IjEuMSIgdmlld0JveD0iMCAwIDY3OSA5NTQiIHdpZHRoPSI2NzlweCIgem9vbUFuZFBhbj0ibWFnbmlmeSI+PGRlZnMvPjxnPjwhLS1jbHVzdGVyIFVzZXJEZXZpY2UtLT48ZyBjbGFzcz0iY2x1c3RlciIgZGF0YS1lbnRpdHk9IlVzZXJEZXZpY2UiIGRhdGEtc291cmNlLWxpbmU9IjEzIiBkYXRhLXVpZD0iZW50MDAwNSIgaWQ9ImNsdXN0ZXJfVXNlckRldmljZSI+PHBvbHlnb24gZmlsbD0ibm9uZSIgcG9pbnRzPSIxMjIsMTY0LjUsMTMyLDE1NC41LDQ4NywxNTQuNSw0ODcsMjQzLjUsNDc3LDI1My41LDEyMiwyNTMuNSwxMjIsMTY0LjUiIHN0eWxlPSJzdHJva2U6IzE4MTgxODtzdHJva2Utd2lkdGg6MTsiLz48bGluZSBzdHlsZT0ic3Ryb2tlOiMxODE4MTg7c3Ryb2tlLXdpZHRoOjE7IiB4MT0iNDc3IiB4Mj0iNDg3IiB5MT0iMTY0LjUiIHkyPSIxNTQuNSIvPjxsaW5lIHN0eWxlPSJzdHJva2U6IzE4MTgxODtzdHJva2Utd2lkdGg6MTsiIHgxPSIxMjIiIHgyPSI0NzciIHkxPSIxNjQuNSIgeTI9IjE2NC41Ii8+PGxpbmUgc3R5bGU9InN0cm9rZTojMTgxODE4O3N0cm9rZS13aWR0aDoxOyIgeDE9IjQ3NyIgeDI9IjQ3NyIgeTE9IjE2NC41IiB5Mj0iMjUzLjUiLz48dGV4dCBmaWxsPSIjMDAwMDAwIiBmb250LWZhbWlseT0ic2Fucy1zZXJpZiIgZm9udC1zaXplPSIxNCIgZm9udC13ZWlnaHQ9ImJvbGQiIGxlbmd0aEFkanVzdD0ic3BhY2luZyIgdGV4dExlbmd0aD0iMTQ3IiB4PSIyMjciIHk9IjE4MC43MzQ0Ij4mIzEwNTA7JiMxMDgzOyYjMTA4MDsmIzEwNzc7JiMxMDg1OyYjMTA5MDsmIzEwODk7JiMxMDgyOyYjMTA4NjsmIzEwNzc7ICYjMTA5MTsmIzEwODk7JiMxMDkwOyYjMTA4ODsmIzEwODY7JiMxMDgxOyYjMTA4OTsmIzEwOTA7JiMxMDc0OyYjMTA4Njs8L3RleHQ+PC9nPjwhLS1jbHVzdGVyIEFwcFNlcnZlci0tPjxnIGNsYXNzPSJjbHVzdGVyIiBkYXRhLWVudGl0eT0iQXBwU2VydmVyIiBkYXRhLXNvdXJjZS1saW5lPSIxOCIgZGF0YS11aWQ9ImVudDAwMDgiIGlkPSJjbHVzdGVyX0FwcFNlcnZlciI+PHBvbHlnb24gZmlsbD0ibm9uZSIgcG9pbnRzPSIxNzMsMzIyLjUsMTgzLDMxMi41LDUyNCwzMTIuNSw1MjQsNjc3LjUsNTE0LDY4Ny41LDE3Myw2ODcuNSwxNzMsMzIyLjUiIHN0eWxlPSJzdHJva2U6IzE4MTgxODtzdHJva2Utd2lkdGg6MTsiLz48bGluZSBzdHlsZT0ic3Ryb2tlOiMxODE4MTg7c3Ryb2tlLXdpZHRoOjE7IiB4MT0iNTE0IiB4Mj0iNTI0IiB5MT0iMzIyLjUiIHkyPSIzMTIuNSIvPjxsaW5lIHN0eWxlPSJzdHJva2U6IzE4MTgxODtzdHJva2Utd2lkdGg6MTsiIHgxPSIxNzMiIHgyPSI1MTQiIHkxPSIzMjIuNSIgeTI9IjMyMi41Ii8+PGxpbmUgc3R5bGU9InN0cm9rZTojMTgxODE4O3N0cm9rZS13aWR0aDoxOyIgeDE9IjUxNCIgeDI9IjUxNCIgeTE9IjMyMi41IiB5Mj0iNjg3LjUiLz48dGV4dCBmaWxsPSIjMDAwMDAwIiBmb250LWZhbWlseT0ic2Fucy1zZXJpZiIgZm9udC1zaXplPSIxNCIgZm9udC13ZWlnaHQ9ImJvbGQiIGxlbmd0aEFkanVzdD0ic3BhY2luZyIgdGV4dExlbmd0aD0iMjAzIiB4PSIyNDMiIHk9IjMzOC43MzQ0Ij4mIzEwNTc7JiMxMDc3OyYjMTA4ODsmIzEwNzQ7JiMxMDc3OyYjMTA4ODsgJiMxMDU1OyYjMTA4ODsmIzEwODA7JiMxMDgzOyYjMTA4NjsmIzEwNzg7JiMxMDc3OyYjMTA4NTsmIzEwODA7JiMxMDgxOyAoVlBTL0Nsb3VkKTwvdGV4dD48L2c+PCEtLWNsdXN0ZXIgSlZNTm9kZS0tPjxnIGNsYXNzPSJjbHVzdGVyIiBkYXRhLWVudGl0eT0iSlZNTm9kZSIgZGF0YS1zb3VyY2UtbGluZT0iMjAiIGRhdGEtdWlkPSJlbnQwMDA5IiBpZD0iY2x1c3Rlcl9KVk1Ob2RlIj48cG9seWdvbiBmaWxsPSJub25lIiBwb2ludHM9IjIzMSwzNjguNSwyNDEsMzU4LjUsNDA1LDM1OC41LDQwNSw0NTUuNSwzOTUsNDY1LjUsMjMxLDQ2NS41LDIzMSwzNjguNSIgc3R5bGU9InN0cm9rZTojMTgxODE4O3N0cm9rZS13aWR0aDoxOyIvPjxsaW5lIHN0eWxlPSJzdHJva2U6IzE4MTgxODtzdHJva2Utd2lkdGg6MTsiIHgxPSIzOTUiIHgyPSI0MDUiIHkxPSIzNjguNSIgeTI9IjM1OC41Ii8+PGxpbmUgc3R5bGU9InN0cm9rZTojMTgxODE4O3N0cm9rZS13aWR0aDoxOyIgeDE9IjIzMSIgeDI9IjM5NSIgeTE9IjM2OC41IiB5Mj0iMzY4LjUiLz48bGluZSBzdHlsZT0ic3Ryb2tlOiMxODE4MTg7c3Ryb2tlLXdpZHRoOjE7IiB4MT0iMzk1IiB4Mj0iMzk1IiB5MT0iMzY4LjUiIHkyPSI0NjUuNSIvPjx0ZXh0IGZpbGw9IiMwMDAwMDAiIGZvbnQtZmFtaWx5PSJzYW5zLXNlcmlmIiBmb250LXNpemU9IjE0IiBmb250LXdlaWdodD0iYm9sZCIgbGVuZ3RoQWRqdXN0PSJzcGFjaW5nIiB0ZXh0TGVuZ3RoPSIyMSIgeD0iMzAzLjUiIHk9IjM4NC43MzQ0Ij5KVk08L3RleHQ+PC9nPjwhLS1jbHVzdGVyIFB5dGhvbk5vZGUtLT48ZyBjbGFzcz0iY2x1c3RlciIgZGF0YS1lbnRpdHk9IlB5dGhvbk5vZGUiIGRhdGEtc291cmNlLWxpbmU9IjI1IiBkYXRhLXVpZD0iZW50MDAxMSIgaWQ9ImNsdXN0ZXJfUHl0aG9uTm9kZSI+PHBvbHlnb24gZmlsbD0ibm9uZSIgcG9pbnRzPSIyMDUsNTQyLjUsMjE1LDUzMi41LDQ5Miw1MzIuNSw0OTIsNjQ1LjUsNDgyLDY1NS41LDIwNSw2NTUuNSwyMDUsNTQyLjUiIHN0eWxlPSJzdHJva2U6IzE4MTgxODtzdHJva2Utd2lkdGg6MTsiLz48bGluZSBzdHlsZT0ic3Ryb2tlOiMxODE4MTg7c3Ryb2tlLXdpZHRoOjE7IiB4MT0iNDgyIiB4Mj0iNDkyIiB5MT0iNTQyLjUiIHkyPSI1MzIuNSIvPjxsaW5lIHN0eWxlPSJzdHJva2U6IzE4MTgxODtzdHJva2Utd2lkdGg6MTsiIHgxPSIyMDUiIHgyPSI0ODIiIHkxPSI1NDIuNSIgeTI9IjU0Mi41Ii8+PGxpbmUgc3R5bGU9InN0cm9rZTojMTgxODE4O3N0cm9rZS13aWR0aDoxOyIgeDE9IjQ4MiIgeDI9IjQ4MiIgeTE9IjU0Mi41IiB5Mj0iNjU1LjUiLz48dGV4dCBmaWxsPSIjMDAwMDAwIiBmb250LWZhbWlseT0ic2Fucy1zZXJpZiIgZm9udC1zaXplPSIxNCIgZm9udC13ZWlnaHQ9ImJvbGQiIGxlbmd0aEFkanVzdD0ic3BhY2luZyIgdGV4dExlbmd0aD0iOTgiIHg9IjI5NS41IiB5PSI1NTguNzM0NCI+UHl0aG9uIFJ1bnRpbWU8L3RleHQ+PC9nPjwhLS1jbHVzdGVyIERiU2VydmVyLS0+PGcgY2xhc3M9ImNsdXN0ZXIiIGRhdGEtZW50aXR5PSJEYlNlcnZlciIgZGF0YS1zb3VyY2UtbGluZT0iMzAiIGRhdGEtdWlkPSJlbnQwMDEzIiBpZD0iY2x1c3Rlcl9EYlNlcnZlciI+PHBvbHlnb24gZmlsbD0ibm9uZSIgcG9pbnRzPSI0MjAsNzQzLjUsNDMwLDczMy41LDY1OCw3MzMuNSw2NTgsOTI3LjUsNjQ4LDkzNy41LDQyMCw5MzcuNSw0MjAsNzQzLjUiIHN0eWxlPSJzdHJva2U6IzE4MTgxODtzdHJva2Utd2lkdGg6MTsiLz48bGluZSBzdHlsZT0ic3Ryb2tlOiMxODE4MTg7c3Ryb2tlLXdpZHRoOjE7IiB4MT0iNjQ4IiB4Mj0iNjU4IiB5MT0iNzQzLjUiIHkyPSI3MzMuNSIvPjxsaW5lIHN0eWxlPSJzdHJva2U6IzE4MTgxODtzdHJva2Utd2lkdGg6MTsiIHgxPSI0MjAiIHgyPSI2NDgiIHkxPSI3NDMuNSIgeTI9Ijc0My41Ii8+PGxpbmUgc3R5bGU9InN0cm9rZTojMTgxODE4O3N0cm9rZS13aWR0aDoxOyIgeDE9IjY0OCIgeDI9IjY0OCIgeTE9Ijc0My41IiB5Mj0iOTM3LjUiLz48dGV4dCBmaWxsPSIjMDAwMDAwIiBmb250LWZhbWlseT0ic2Fucy1zZXJpZiIgZm9udC1zaXplPSIxNCIgZm9udC13ZWlnaHQ9ImJvbGQiIGxlbmd0aEFkanVzdD0ic3BhY2luZyIgdGV4dExlbmd0aD0iMTI2IiB4PSI0NzIiIHk9Ijc1OS43MzQ0Ij4mIzEwNTc7JiMxMDc3OyYjMTA4ODsmIzEwNzQ7JiMxMDc3OyYjMTA4ODsgJiMxMDQxOyYjMTA3MjsmIzEwNzk7JiMxMDk5OyAmIzEwNDQ7JiMxMDcyOyYjMTA4NTsmIzEwODU7JiMxMDk5OyYjMTA5Mzs8L3RleHQ+PC9nPjwhLS1jbHVzdGVyIE15U1FMREItLT48ZyBjbGFzcz0iY2x1c3RlciIgZGF0YS1lbnRpdHk9Ik15U1FMREIiIGRhdGEtc291cmNlLWxpbmU9IjMxIiBkYXRhLXVpZD0iZW50MDAxNCIgaWQ9ImNsdXN0ZXJfTXlTUUxEQiI+PHBhdGggZD0iTTQ1Miw3OTcuNSBDNDUyLDc4Ny41IDUzOSw3ODcuNSA1MzksNzg3LjUgQzUzOSw3ODcuNSA2MjYsNzg3LjUgNjI2LDc5Ny41IEw2MjYsODk1LjUgQzYyNiw5MDUuNSA1MzksOTA1LjUgNTM5LDkwNS41IEM1MzksOTA1LjUgNDUyLDkwNS41IDQ1Miw4OTUuNSBMNDUyLDc5Ny41IiBmaWxsPSJub25lIiBzdHlsZT0ic3Ryb2tlOiMxODE4MTg7c3Ryb2tlLXdpZHRoOjE7Ii8+PHBhdGggZD0iTTQ1Miw3OTcuNSBDNDUyLDgwNy41IDUzOSw4MDcuNSA1MzksODA3LjUgQzUzOSw4MDcuNSA2MjYsODA3LjUgNjI2LDc5Ny41IiBmaWxsPSJub25lIiBzdHlsZT0ic3Ryb2tlOiMxODE4MTg7c3Ryb2tlLXdpZHRoOjE7Ii8+PHRleHQgZmlsbD0iIzAwMDAwMCIgZm9udC1mYW1pbHk9InNhbnMtc2VyaWYiIGZvbnQtc2l6ZT0iMTQiIGZvbnQtd2VpZ2h0PSJib2xkIiBsZW5ndGhBZGp1c3Q9InNwYWNpbmciIHRleHRMZW5ndGg9Ijk4IiB4PSI0OTAiIHk9IjgyMi43MzQ0Ij5NeVNRTCBEYXRhYmFzZTwvdGV4dD48L2c+PCEtLWVudGl0eSBCcm93c2VyLS0+PGcgY2xhc3M9ImVudGl0eSIgZGF0YS1lbnRpdHk9IkJyb3dzZXIiIGRhdGEtc291cmNlLWxpbmU9IjE0IiBkYXRhLXVpZD0iZW50MDAwNiIgaWQ9ImVudGl0eV9Ccm93c2VyIj48cmVjdCBmaWxsPSIjRjFGMUYxIiBoZWlnaHQ9IjQ0Ljk4NDQiIHJ4PSIyLjUiIHJ5PSIyLjUiIHN0eWxlPSJzdHJva2U6IzE4MTgxODtzdHJva2Utd2lkdGg6MC41OyIgd2lkdGg9IjExNyIgeD0iMTM4LjUiIHk9IjE5Mi41Ii8+PHJlY3QgZmlsbD0iI0YxRjFGMSIgaGVpZ2h0PSIxMCIgc3R5bGU9InN0cm9rZTojMTgxODE4O3N0cm9rZS13aWR0aDowLjU7IiB3aWR0aD0iMTUiIHg9IjIzNS41IiB5PSIxOTcuNSIvPjxyZWN0IGZpbGw9IiNGMUYxRjEiIGhlaWdodD0iMiIgc3R5bGU9InN0cm9rZTojMTgxODE4O3N0cm9rZS13aWR0aDowLjU7IiB3aWR0aD0iNCIgeD0iMjMzLjUiIHk9IjE5OS41Ii8+PHJlY3QgZmlsbD0iI0YxRjFGMSIgaGVpZ2h0PSIyIiBzdHlsZT0ic3Ryb2tlOiMxODE4MTg7c3Ryb2tlLXdpZHRoOjAuNTsiIHdpZHRoPSI0IiB4PSIyMzMuNSIgeT0iMjAzLjUiLz48dGV4dCBmaWxsPSIjMDAwMDAwIiBmb250LWZhbWlseT0ic2Fucy1zZXJpZiIgZm9udC1zaXplPSIxNCIgbGVuZ3RoQWRqdXN0PSJzcGFjaW5nIiB0ZXh0TGVuZ3RoPSI3NyIgeD0iMTUzLjUiIHk9IjIyNS43MzQ0Ij4mIzEwNDI7JiMxMDc3OyYjMTA3MzstJiMxMDczOyYjMTA4ODsmIzEwNzI7JiMxMDkxOyYjMTA3OTsmIzEwNzc7JiMxMDg4OzwvdGV4dD48L2c+PCEtLWVudGl0eSBNb2JpbGVBcHAtLT48ZyBjbGFzcz0iZW50aXR5IiBkYXRhLWVudGl0eT0iTW9iaWxlQXBwIiBkYXRhLXNvdXJjZS1saW5lPSIxNSIgZGF0YS11aWQ9ImVudDAwMDciIGlkPSJlbnRpdHlfTW9iaWxlQXBwIj48cmVjdCBmaWxsPSIjRjFGMUYxIiBoZWlnaHQ9IjQ0Ljk4NDQiIHJ4PSIyLjUiIHJ5PSIyLjUiIHN0eWxlPSJzdHJva2U6IzE4MTgxODtzdHJva2Utd2lkdGg6MC41OyIgd2lkdGg9IjE4MCIgeD0iMjkxIiB5PSIxOTIuNSIvPjxyZWN0IGZpbGw9IiNGMUYxRjEiIGhlaWdodD0iMTAiIHN0eWxlPSJzdHJva2U6IzE4MTgxODtzdHJva2Utd2lkdGg6MC41OyIgd2lkdGg9IjE1IiB4PSI0NTEiIHk9IjE5Ny41Ii8+PHJlY3QgZmlsbD0iI0YxRjFGMSIgaGVpZ2h0PSIyIiBzdHlsZT0ic3Ryb2tlOiMxODE4MTg7c3Ryb2tlLXdpZHRoOjAuNTsiIHdpZHRoPSI0IiB4PSI0NDkiIHk9IjE5OS41Ii8+PHJlY3QgZmlsbD0iI0YxRjFGMSIgaGVpZ2h0PSIyIiBzdHlsZT0ic3Ryb2tlOiMxODE4MTg7c3Ryb2tlLXdpZHRoOjAuNTsiIHdpZHRoPSI0IiB4PSI0NDkiIHk9IjIwMy41Ii8+PHRleHQgZmlsbD0iIzAwMDAwMCIgZm9udC1mYW1pbHk9InNhbnMtc2VyaWYiIGZvbnQtc2l6ZT0iMTQiIGxlbmd0aEFkanVzdD0ic3BhY2luZyIgdGV4dExlbmd0aD0iNjMiIHg9IjMwNiIgeT0iMjI1LjczNDQiPiYjMTA1MjsmIzEwODY7JiMxMDczOyYjMTA4MDsmIzEwODM7JiMxMTAwOyYjMTA4NTsmIzEwODY7JiMxMDc3OzwvdGV4dD48dGV4dCBmaWxsPSIjMDAwMDAwIiBmb250LWZhbWlseT0ic2Fucy1zZXJpZiIgZm9udC1zaXplPSIxNCIgbGVuZ3RoQWRqdXN0PSJzcGFjaW5nIiB0ZXh0TGVuZ3RoPSI3IiB4PSIzNjkiIHk9IjIyNS43MzQ0Ij4mIzE2MDs8L3RleHQ+PHRleHQgZmlsbD0iIzAwMDAwMCIgZm9udC1mYW1pbHk9InNhbnMtc2VyaWYiIGZvbnQtc2l6ZT0iMTQiIGxlbmd0aEFkanVzdD0ic3BhY2luZyIgdGV4dExlbmd0aD0iNzAiIHg9IjM3NiIgeT0iMjI1LjczNDQiPiYjMTA4NzsmIzEwODg7JiMxMDgwOyYjMTA4MzsmIzEwODY7JiMxMDc4OyYjMTA3NzsmIzEwODU7JiMxMDgwOyYjMTA3Nzs8L3RleHQ+PC9nPjwhLS1lbnRpdHkgU3ByaW5nQm9vdEFwcC0tPjxnIGNsYXNzPSJlbnRpdHkiIGRhdGEtZW50aXR5PSJTcHJpbmdCb290QXBwIiBkYXRhLXNvdXJjZS1saW5lPSIyMSIgZGF0YS11aWQ9ImVudDAwMTAiIGlkPSJlbnRpdHlfU3ByaW5nQm9vdEFwcCI+PHJlY3QgZmlsbD0iI0YxRjFGMSIgaGVpZ2h0PSI1Mi45Njg4IiByeD0iMi41IiByeT0iMi41IiBzdHlsZT0ic3Ryb2tlOiMxODE4MTg7c3Ryb2tlLXdpZHRoOjAuNTsiIHdpZHRoPSIxNDIiIHg9IjI0NyIgeT0iMzk2LjUiLz48cG9seWdvbiBmaWxsPSIjRjFGMUYxIiBwb2ludHM9IjM3Miw0MDEuNSwzNzIsNDE1LjUsMzg0LDQxNS41LDM4NCw0MDcuNSwzNzgsNDAxLjUsMzcyLDQwMS41IiBzdHlsZT0ic3Ryb2tlOiMxODE4MTg7c3Ryb2tlLXdpZHRoOjAuNTsiLz48bGluZSBzdHlsZT0ic3Ryb2tlOiMxODE4MTg7c3Ryb2tlLXdpZHRoOjAuNTsiIHgxPSIzNzgiIHgyPSIzNzgiIHkxPSI0MDEuNSIgeTI9IjQwNy41Ii8+PGxpbmUgc3R5bGU9InN0cm9rZTojMTgxODE4O3N0cm9rZS13aWR0aDowLjU7IiB4MT0iMzg0IiB4Mj0iMzc4IiB5MT0iNDA3LjUiIHkyPSI0MDcuNSIvPjx0ZXh0IGZpbGw9IiMwMDAwMDAiIGZvbnQtZmFtaWx5PSJzYW5zLXNlcmlmIiBmb250LXNpemU9IjE0IiBsZW5ndGhBZGp1c3Q9InNwYWNpbmciIHRleHRMZW5ndGg9IjExMiIgeD0iMjU3IiB5PSI0MjIuNzM0NCI+bWFsbC1iYWNrZW5kLmphcjwvdGV4dD48dGV4dCBmaWxsPSIjMDAwMDAwIiBmb250LWZhbWlseT0ic2Fucy1zZXJpZiIgZm9udC1zaXplPSIxNCIgbGVuZ3RoQWRqdXN0PSJzcGFjaW5nIiB0ZXh0TGVuZ3RoPSI0OSIgeD0iMjY3LjUiIHk9IjQzNy43MTg4Ij4mIzE3MTtTcHJpbmc8L3RleHQ+PHRleHQgZmlsbD0iIzAwMDAwMCIgZm9udC1mYW1pbHk9InNhbnMtc2VyaWYiIGZvbnQtc2l6ZT0iMTQiIGxlbmd0aEFkanVzdD0ic3BhY2luZyIgdGV4dExlbmd0aD0iNyIgeD0iMzE2LjUiIHk9IjQzNy43MTg4Ij4mIzE2MDs8L3RleHQ+PHRleHQgZmlsbD0iIzAwMDAwMCIgZm9udC1mYW1pbHk9InNhbnMtc2VyaWYiIGZvbnQtc2l6ZT0iMTQiIGxlbmd0aEFkanVzdD0ic3BhY2luZyIgdGV4dExlbmd0aD0iMzUiIHg9IjMyMy41IiB5PSI0MzcuNzE4OCI+Qm9vdCYjMTg3OzwvdGV4dD48L2c+PCEtLWVudGl0eSBQcmVkaWN0b3JBcHAtLT48ZyBjbGFzcz0iZW50aXR5IiBkYXRhLWVudGl0eT0iUHJlZGljdG9yQXBwIiBkYXRhLXNvdXJjZS1saW5lPSIyNiIgZGF0YS11aWQ9ImVudDAwMTIiIGlkPSJlbnRpdHlfUHJlZGljdG9yQXBwIj48cmVjdCBmaWxsPSIjRjFGMUYxIiBoZWlnaHQ9IjUyLjk2ODgiIHJ4PSIyLjUiIHJ5PSIyLjUiIHN0eWxlPSJzdHJva2U6IzE4MTgxODtzdHJva2Utd2lkdGg6MC41OyIgd2lkdGg9IjIxOSIgeD0iMjQ4LjUiIHk9IjU3OC41Ii8+PHBvbHlnb24gZmlsbD0iI0YxRjFGMSIgcG9pbnRzPSI0NTAuNSw1ODMuNSw0NTAuNSw1OTcuNSw0NjIuNSw1OTcuNSw0NjIuNSw1ODkuNSw0NTYuNSw1ODMuNSw0NTAuNSw1ODMuNSIgc3R5bGU9InN0cm9rZTojMTgxODE4O3N0cm9rZS13aWR0aDowLjU7Ii8+PGxpbmUgc3R5bGU9InN0cm9rZTojMTgxODE4O3N0cm9rZS13aWR0aDowLjU7IiB4MT0iNDU2LjUiIHgyPSI0NTYuNSIgeTE9IjU4My41IiB5Mj0iNTg5LjUiLz48bGluZSBzdHlsZT0ic3Ryb2tlOiMxODE4MTg7c3Ryb2tlLXdpZHRoOjAuNTsiIHgxPSI0NjIuNSIgeDI9IjQ1Ni41IiB5MT0iNTg5LjUiIHkyPSI1ODkuNSIvPjx0ZXh0IGZpbGw9IiMwMDAwMDAiIGZvbnQtZmFtaWx5PSJzYW5zLXNlcmlmIiBmb250LXNpemU9IjE0IiBsZW5ndGhBZGp1c3Q9InNwYWNpbmciIHRleHRMZW5ndGg9IjE0MCIgeD0iMjgzIiB5PSI2MDQuNzM0NCI+cHJlZGljdG9yX3NlcnZpY2UucHk8L3RleHQ+PHRleHQgZmlsbD0iIzAwMDAwMCIgZm9udC1mYW1pbHk9InNhbnMtc2VyaWYiIGZvbnQtc2l6ZT0iMTQiIGxlbmd0aEFkanVzdD0ic3BhY2luZyIgdGV4dExlbmd0aD0iMTg5IiB4PSIyNTguNSIgeT0iNjE5LjcxODgiPiYjMTcxO1B5dGhvbi9GbGFzay9TY2lraXQtbGVhcm4mIzE4Nzs8L3RleHQ+PC9nPjwhLS1lbnRpdHkgREJTY2hlbWEtLT48ZyBjbGFzcz0iZW50aXR5IiBkYXRhLWVudGl0eT0iREJTY2hlbWEiIGRhdGEtc291cmNlLWxpbmU9IjMyIiBkYXRhLXVpZD0iZW50MDAxNSIgaWQ9ImVudGl0eV9EQlNjaGVtYSI+PHJlY3QgZmlsbD0iI0YxRjFGMSIgaGVpZ2h0PSIzNy45ODQ0IiByeD0iMi41IiByeT0iMi41IiBzdHlsZT0ic3Ryb2tlOiMxODE4MTg7c3Ryb2tlLXdpZHRoOjAuNTsiIHdpZHRoPSIxMDciIHg9IjQ5NS41IiB5PSI4NDMuNSIvPjxwb2x5Z29uIGZpbGw9IiNGMUYxRjEiIHBvaW50cz0iNTg1LjUsODQ4LjUsNTg1LjUsODYyLjUsNTk3LjUsODYyLjUsNTk3LjUsODU0LjUsNTkxLjUsODQ4LjUsNTg1LjUsODQ4LjUiIHN0eWxlPSJzdHJva2U6IzE4MTgxODtzdHJva2Utd2lkdGg6MC41OyIvPjxsaW5lIHN0eWxlPSJzdHJva2U6IzE4MTgxODtzdHJva2Utd2lkdGg6MC41OyIgeDE9IjU5MS41IiB4Mj0iNTkxLjUiIHkxPSI4NDguNSIgeTI9Ijg1NC41Ii8+PGxpbmUgc3R5bGU9InN0cm9rZTojMTgxODE4O3N0cm9rZS13aWR0aDowLjU7IiB4MT0iNTk3LjUiIHgyPSI1OTEuNSIgeTE9Ijg1NC41IiB5Mj0iODU0LjUiLz48dGV4dCBmaWxsPSIjMDAwMDAwIiBmb250LWZhbWlseT0ic2Fucy1zZXJpZiIgZm9udC1zaXplPSIxNCIgbGVuZ3RoQWRqdXN0PSJzcGFjaW5nIiB0ZXh0TGVuZ3RoPSI3NyIgeD0iNTA1LjUiIHk9Ijg2OS43MzQ0Ij5tYWxsX3NjaGVtYTwvdGV4dD48L2c+PCEtLWVudGl0eSBXZWJVc2VyLS0+PGcgY2xhc3M9ImVudGl0eSIgZGF0YS1lbnRpdHk9IldlYlVzZXIiIGRhdGEtc291cmNlLWxpbmU9IjgiIGRhdGEtdWlkPSJlbnQwMDAyIiBpZD0iZW50aXR5X1dlYlVzZXIiPjxlbGxpcHNlIGN4PSI0OCIgY3k9IjIyIiBmaWxsPSIjRjFGMUYxIiByeD0iMTYiIHJ5PSIxNiIgc3R5bGU9InN0cm9rZTojMTgxODE4O3N0cm9rZS13aWR0aDowLjU7Ii8+PHBhdGggZD0iTTQ4LDQyIEM1Miw0MiA1NSw0MiA1OSwzOCBDNjcsMzggNzUsNDYgNzUsNTQgTDc1LDU4IEM3NSw2MiA3MSw2NiA2Nyw2NiBMMjksNjYgQzI1LDY2IDIxLDYyIDIxLDU4IEwyMSw1NCBDMjEsNDYgMjksMzggMzcsMzggQzQxLDQyIDQ0LDQyIDQ4LDQyIiBmaWxsPSIjRjFGMUYxIiBzdHlsZT0ic3Ryb2tlOiMxODE4MTg7c3Ryb2tlLXdpZHRoOjAuNTsiLz48dGV4dCBmaWxsPSIjMDAwMDAwIiBmb250LWZhbWlseT0ic2Fucy1zZXJpZiIgZm9udC1zaXplPSIxNCIgbGVuZ3RoQWRqdXN0PSJzcGFjaW5nIiB0ZXh0TGVuZ3RoPSI0MiIgeD0iNiIgeT0iNzkuNzM0NCI+JiMxMDUwOyYjMTA4MzsmIzEwODA7JiMxMDc3OyYjMTA4NTsmIzEwOTA7PC90ZXh0Pjx0ZXh0IGZpbGw9IiMwMDAwMDAiIGZvbnQtZmFtaWx5PSJzYW5zLXNlcmlmIiBmb250LXNpemU9IjE0IiBsZW5ndGhBZGp1c3Q9InNwYWNpbmciIHRleHRMZW5ndGg9IjciIHg9IjQ4IiB5PSI3OS43MzQ0Ij4mIzE2MDs8L3RleHQ+PHRleHQgZmlsbD0iIzAwMDAwMCIgZm9udC1mYW1pbHk9InNhbnMtc2VyaWYiIGZvbnQtc2l6ZT0iMTQiIGxlbmd0aEFkanVzdD0ic3BhY2luZyIgdGV4dExlbmd0aD0iMzUiIHg9IjU1IiB5PSI3OS43MzQ0Ij4oJiMxMDQyOyYjMTA3NzsmIzEwNzM7KTwvdGV4dD48L2c+PCEtLWVudGl0eSBNb2JpbGVVc2VyLS0+PGcgY2xhc3M9ImVudGl0eSIgZGF0YS1lbnRpdHk9Ik1vYmlsZVVzZXIiIGRhdGEtc291cmNlLWxpbmU9IjkiIGRhdGEtdWlkPSJlbnQwMDAzIiBpZD0iZW50aXR5X01vYmlsZVVzZXIiPjxlbGxpcHNlIGN4PSIzODEiIGN5PSIyMiIgZmlsbD0iI0YxRjFGMSIgcng9IjE2IiByeT0iMTYiIHN0eWxlPSJzdHJva2U6IzE4MTgxODtzdHJva2Utd2lkdGg6MC41OyIvPjxwYXRoIGQ9Ik0zODEsNDIgQzM4NSw0MiAzODgsNDIgMzkyLDM4IEM0MDAsMzggNDA4LDQ2IDQwOCw1NCBMNDA4LDU4IEM0MDgsNjIgNDA0LDY2IDQwMCw2NiBMMzYyLDY2IEMzNTgsNjYgMzU0LDYyIDM1NCw1OCBMMzU0LDU0IEMzNTQsNDYgMzYyLDM4IDM3MCwzOCBDMzc0LDQyIDM3Nyw0MiAzODEsNDIiIGZpbGw9IiNGMUYxRjEiIHN0eWxlPSJzdHJva2U6IzE4MTgxODtzdHJva2Utd2lkdGg6MC41OyIvPjx0ZXh0IGZpbGw9IiMwMDAwMDAiIGZvbnQtZmFtaWx5PSJzYW5zLXNlcmlmIiBmb250LXNpemU9IjE0IiBsZW5ndGhBZGp1c3Q9InNwYWNpbmciIHRleHRMZW5ndGg9IjQyIiB4PSIzMTgiIHk9Ijc5LjczNDQiPiYjMTA1MDsmIzEwODM7JiMxMDgwOyYjMTA3NzsmIzEwODU7JiMxMDkwOzwvdGV4dD48dGV4dCBmaWxsPSIjMDAwMDAwIiBmb250LWZhbWlseT0ic2Fucy1zZXJpZiIgZm9udC1zaXplPSIxNCIgbGVuZ3RoQWRqdXN0PSJzcGFjaW5nIiB0ZXh0TGVuZ3RoPSI3IiB4PSIzNjAiIHk9Ijc5LjczNDQiPiYjMTYwOzwvdGV4dD48dGV4dCBmaWxsPSIjMDAwMDAwIiBmb250LWZhbWlseT0ic2Fucy1zZXJpZiIgZm9udC1zaXplPSIxNCIgbGVuZ3RoQWRqdXN0PSJzcGFjaW5nIiB0ZXh0TGVuZ3RoPSI3NyIgeD0iMzY3IiB5PSI3OS43MzQ0Ij4oJiMxMDUyOyYjMTA4NjsmIzEwNzM7JiMxMDgwOyYjMTA4MzsmIzExMDA7JiMxMDg1OyYjMTA5OTsmIzEwODE7KTwvdGV4dD48L2c+PCEtLWVudGl0eSBTdGFmZlVzZXItLT48ZyBjbGFzcz0iZW50aXR5IiBkYXRhLWVudGl0eT0iU3RhZmZVc2VyIiBkYXRhLXNvdXJjZS1saW5lPSIxMCIgZGF0YS11aWQ9ImVudDAwMDQiIGlkPSJlbnRpdHlfU3RhZmZVc2VyIj48ZWxsaXBzZSBjeD0iMjAyIiBjeT0iMjIiIGZpbGw9IiNGMUYxRjEiIHJ4PSIxNiIgcnk9IjE2IiBzdHlsZT0ic3Ryb2tlOiMxODE4MTg7c3Ryb2tlLXdpZHRoOjAuNTsiLz48cGF0aCBkPSJNMjAyLDQyIEMyMDYsNDIgMjA5LDQyIDIxMywzOCBDMjIxLDM4IDIyOSw0NiAyMjksNTQgTDIyOSw1OCBDMjI5LDYyIDIyNSw2NiAyMjEsNjYgTDE4Myw2NiBDMTc5LDY2IDE3NSw2MiAxNzUsNTggTDE3NSw1NCBDMTc1LDQ2IDE4MywzOCAxOTEsMzggQzE5NSw0MiAxOTgsNDIgMjAyLDQyIiBmaWxsPSIjRjFGMUYxIiBzdHlsZT0ic3Ryb2tlOiMxODE4MTg7c3Ryb2tlLXdpZHRoOjAuNTsiLz48dGV4dCBmaWxsPSIjMDAwMDAwIiBmb250LWZhbWlseT0ic2Fucy1zZXJpZiIgZm9udC1zaXplPSIxNCIgbGVuZ3RoQWRqdXN0PSJzcGFjaW5nIiB0ZXh0TGVuZ3RoPSIxNTQiIHg9IjEyNSIgeT0iNzkuNzM0NCI+JiMxMDQwOyYjMTA3NjsmIzEwODQ7JiMxMDgwOyYjMTA4NTsmIzEwODA7JiMxMDg5OyYjMTA5MDsmIzEwODg7JiMxMDcyOyYjMTA5MDsmIzEwODY7JiMxMDg4Oy8mIzEwNTU7JiMxMDg4OyYjMTA4NjsmIzEwNzY7JiMxMDcyOyYjMTA3NDsmIzEwNzc7JiMxMDk0OzwvdGV4dD48L2c+PCEtLWxpbmsgV2ViVXNlciB0byBCcm93c2VyLS0+PGcgY2xhc3M9ImxpbmsiIGRhdGEtZW50aXR5LTE9IldlYlVzZXIiIGRhdGEtZW50aXR5LTI9IkJyb3dzZXIiIGRhdGEtc291cmNlLWxpbmU9IjM3IiBkYXRhLXVpZD0ibG5rMTYiIGlkPSJsaW5rX1dlYlVzZXJfQnJvd3NlciI+PHBhdGggZD0iTTgwLjI1LDgxLjYyIEM5NS4zMyw5OC45MyAxMTMuNTUsMTE5LjggMTMwLDEzOC41IEMxNDUuOTgsMTU2LjY2IDE2MC4yMTE2LDE3Mi42OTc1IDE3My42MTE2LDE4Ny43NTc1IiBmaWxsPSJub25lIiBpZD0iV2ViVXNlci10by1Ccm93c2VyIiBzdHlsZT0ic3Ryb2tlOiM2NjY2NjY7c3Ryb2tlLXdpZHRoOjE7Ii8+PHBvbHlnb24gZmlsbD0iIzY2NjY2NiIgcG9pbnRzPSIxNzcuNiwxOTIuMjQsMTc0LjYwNTcsMTgyLjg1NzMsMTc0LjI3NjMsMTg4LjUwNDYsMTY4LjYyOTEsMTg4LjE3NTIsMTc3LjYsMTkyLjI0IiBzdHlsZT0ic3Ryb2tlOiM2NjY2NjY7c3Ryb2tlLXdpZHRoOjE7Ii8+PHRleHQgZmlsbD0iIzY2NjY2NiIgZm9udC1mYW1pbHk9InNhbnMtc2VyaWYiIGZvbnQtc2l6ZT0iMTIiIGxlbmd0aEFkanVzdD0ic3BhY2luZyIgdGV4dExlbmd0aD0iNjAiIHg9IjEzMSIgeT0iMTMwLjM0MzgiPiYjMTA0ODsmIzEwODk7JiMxMDg3OyYjMTA4NjsmIzEwODM7JiMxMTAwOyYjMTA3OTsmIzEwOTE7JiMxMDc3OyYjMTA5MDs8L3RleHQ+PC9nPjwhLS1saW5rIE1vYmlsZVVzZXIgdG8gTW9iaWxlQXBwLS0+PGcgY2xhc3M9ImxpbmsiIGRhdGEtZW50aXR5LTE9Ik1vYmlsZVVzZXIiIGRhdGEtZW50aXR5LTI9Ik1vYmlsZUFwcCIgZGF0YS1zb3VyY2UtbGluZT0iMzgiIGRhdGEtdWlkPSJsbmsxNyIgaWQ9ImxpbmtfTW9iaWxlVXNlcl9Nb2JpbGVBcHAiPjxwYXRoIGQ9Ik0zODEsODEuNyBDMzgxLDExNS42MSAzODEsMTU4LjU0IDM4MSwxODYuNDEiIGZpbGw9Im5vbmUiIGlkPSJNb2JpbGVVc2VyLXRvLU1vYmlsZUFwcCIgc3R5bGU9InN0cm9rZTojNjY2NjY2O3N0cm9rZS13aWR0aDoxOyIvPjxwb2x5Z29uIGZpbGw9IiM2NjY2NjYiIHBvaW50cz0iMzgxLDE5Mi40MSwzODUsMTgzLjQxLDM4MSwxODcuNDEsMzc3LDE4My40MSwzODEsMTkyLjQxIiBzdHlsZT0ic3Ryb2tlOiM2NjY2NjY7c3Ryb2tlLXdpZHRoOjE7Ii8+PHRleHQgZmlsbD0iIzY2NjY2NiIgZm9udC1mYW1pbHk9InNhbnMtc2VyaWYiIGZvbnQtc2l6ZT0iMTIiIGxlbmd0aEFkanVzdD0ic3BhY2luZyIgdGV4dExlbmd0aD0iNjAiIHg9IjM4MiIgeT0iMTMwLjM0MzgiPiYjMTA0ODsmIzEwODk7JiMxMDg3OyYjMTA4NjsmIzEwODM7JiMxMTAwOyYjMTA3OTsmIzEwOTE7JiMxMDc3OyYjMTA5MDs8L3RleHQ+PC9nPjwhLS1saW5rIFN0YWZmVXNlciB0byBCcm93c2VyLS0+PGcgY2xhc3M9ImxpbmsiIGRhdGEtZW50aXR5LTE9IlN0YWZmVXNlciIgZGF0YS1lbnRpdHktMj0iQnJvd3NlciIgZGF0YS1zb3VyY2UtbGluZT0iMzkiIGRhdGEtdWlkPSJsbmsxOCIgaWQ9ImxpbmtfU3RhZmZVc2VyX0Jyb3dzZXIiPjxwYXRoIGQ9Ik0yMDAuOSw4MS43IEMxOTkuOSwxMTUuNjEgMTk4LjYzNjUsMTU4LjU0MjYgMTk3LjgxNjUsMTg2LjQxMjYiIGZpbGw9Im5vbmUiIGlkPSJTdGFmZlVzZXItdG8tQnJvd3NlciIgc3R5bGU9InN0cm9rZTojNjY2NjY2O3N0cm9rZS13aWR0aDoxOyIvPjxwb2x5Z29uIGZpbGw9IiM2NjY2NjYiIHBvaW50cz0iMTk3LjY0LDE5Mi40MSwyMDEuOTAzLDE4My41MzE1LDE5Ny43ODcsMTg3LjQxMjIsMTkzLjkwNjQsMTgzLjI5NjMsMTk3LjY0LDE5Mi40MSIgc3R5bGU9InN0cm9rZTojNjY2NjY2O3N0cm9rZS13aWR0aDoxOyIvPjx0ZXh0IGZpbGw9IiM2NjY2NjYiIGZvbnQtZmFtaWx5PSJzYW5zLXNlcmlmIiBmb250LXNpemU9IjEyIiBsZW5ndGhBZGp1c3Q9InNwYWNpbmciIHRleHRMZW5ndGg9IjYwIiB4PSIyMjIiIHk9IjEyMy44NDM4Ij4mIzEwNDg7JiMxMDg5OyYjMTA4NzsmIzEwODY7JiMxMDgzOyYjMTEwMDsmIzEwNzk7JiMxMDkxOyYjMTA3NzsmIzEwOTA7PC90ZXh0Pjx0ZXh0IGZpbGw9IiM2NjY2NjYiIGZvbnQtZmFtaWx5PSJzYW5zLXNlcmlmIiBmb250LXNpemU9IjEyIiBsZW5ndGhBZGp1c3Q9InNwYWNpbmciIHRleHRMZW5ndGg9IjEwMiIgeD0iMjAxIiB5PSIxMzYuNjg3NSI+KCYjMTA0MDsmIzEwNzY7JiMxMDg0OyYjMTA4MDsmIzEwODU7JiMxMDgyOyYjMTA3MjsvJiMxMDUwOyYjMTA3MjsmIzEwNzM7JiMxMDgwOyYjMTA4NTsmIzEwNzc7JiMxMDkwOyk8L3RleHQ+PC9nPjwhLS1saW5rIEJyb3dzZXIgdG8gU3ByaW5nQm9vdEFwcC0tPjxnIGNsYXNzPSJsaW5rIiBkYXRhLWVudGl0eS0xPSJCcm93c2VyIiBkYXRhLWVudGl0eS0yPSJTcHJpbmdCb290QXBwIiBkYXRhLXNvdXJjZS1saW5lPSI0MiIgZGF0YS11aWQ9ImxuazE5IiBpZD0ibGlua19Ccm93c2VyX1NwcmluZ0Jvb3RBcHAiPjxwYXRoIGQ9Ik0yMDUuNDksMjM3LjY4IEMyMTIuMjMsMjU0LjE3IDIyMi4yOCwyNzcuMjQgMjMzLDI5Ni41IEMyNTMuMDksMzMyLjYgMjc2Ljk1OTIsMzY2Ljc4MzUgMjk1LjE1OTIsMzkxLjU3MzUiIGZpbGw9Im5vbmUiIGlkPSJCcm93c2VyLXRvLVNwcmluZ0Jvb3RBcHAiIHN0eWxlPSJzdHJva2U6IzY2NjY2NjtzdHJva2Utd2lkdGg6MTsiLz48cG9seWdvbiBmaWxsPSIjNjY2NjY2IiBwb2ludHM9IjI5OC43MSwzOTYuNDEsMjk2LjYwODEsMzg2Ljc4OCwyOTUuNzUxLDM5Mi4zNzk2LDI5MC4xNTk1LDM5MS41MjI0LDI5OC43MSwzOTYuNDEiIHN0eWxlPSJzdHJva2U6IzY2NjY2NjtzdHJva2Utd2lkdGg6MTsiLz48dGV4dCBmaWxsPSIjNjY2NjY2IiBmb250LWZhbWlseT0ic2Fucy1zZXJpZiIgZm9udC1zaXplPSIxMiIgbGVuZ3RoQWRqdXN0PSJzcGFjaW5nIiB0ZXh0TGVuZ3RoPSI2MCIgeD0iMjYxIiB5PSIyODEuODQzOCI+SFRUUC9IVFRQUzwvdGV4dD48dGV4dCBmaWxsPSIjNjY2NjY2IiBmb250LWZhbWlseT0ic2Fucy1zZXJpZiIgZm9udC1zaXplPSIxMiIgbGVuZ3RoQWRqdXN0PSJzcGFjaW5nIiB0ZXh0TGVuZ3RoPSIxMTQiIHg9IjIzNCIgeT0iMjk0LjY4NzUiPigmIzEwNDI7JiMxMDc3OyYjMTA3MzstJiMxMDgwOyYjMTA4NTsmIzEwOTA7JiMxMDc3OyYjMTA4ODsmIzEwOTI7JiMxMDc3OyYjMTA4MTsmIzEwODk7L0FQSSk8L3RleHQ+PC9nPjwhLS1saW5rIE1vYmlsZUFwcCB0byBTcHJpbmdCb290QXBwLS0+PGcgY2xhc3M9ImxpbmsiIGRhdGEtZW50aXR5LTE9Ik1vYmlsZUFwcCIgZGF0YS1lbnRpdHktMj0iU3ByaW5nQm9vdEFwcCIgZGF0YS1zb3VyY2UtbGluZT0iNDMiIGRhdGEtdWlkPSJsbmsyMCIgaWQ9ImxpbmtfTW9iaWxlQXBwX1NwcmluZ0Jvb3RBcHAiPjxwYXRoIGQ9Ik0zNzQuMzgsMjM3LjY2IEMzNjIuNjYsMjc1Ljk4IDM0MC4wNzQyLDM0OS44MjIyIDMyNy41NjQyLDM5MC43NDIyIiBmaWxsPSJub25lIiBpZD0iTW9iaWxlQXBwLXRvLVNwcmluZ0Jvb3RBcHAiIHN0eWxlPSJzdHJva2U6IzY2NjY2NjtzdHJva2Utd2lkdGg6MTsiLz48cG9seWdvbiBmaWxsPSIjNjY2NjY2IiBwb2ludHM9IjMyNS44MSwzOTYuNDgsMzMyLjI2NjUsMzg5LjA0MjcsMzI3LjI3MTgsMzkxLjY5ODUsMzI0LjYxNiwzODYuNzAzOCwzMjUuODEsMzk2LjQ4IiBzdHlsZT0ic3Ryb2tlOiM2NjY2NjY7c3Ryb2tlLXdpZHRoOjE7Ii8+PHRleHQgZmlsbD0iIzY2NjY2NiIgZm9udC1mYW1pbHk9InNhbnMtc2VyaWYiIGZvbnQtc2l6ZT0iMTIiIGxlbmd0aEFkanVzdD0ic3BhY2luZyIgdGV4dExlbmd0aD0iNjAiIHg9IjM3NSIgeT0iMjgxLjg0MzgiPkhUVFAvSFRUUFM8L3RleHQ+PHRleHQgZmlsbD0iIzY2NjY2NiIgZm9udC1mYW1pbHk9InNhbnMtc2VyaWYiIGZvbnQtc2l6ZT0iMTIiIGxlbmd0aEFkanVzdD0ic3BhY2luZyIgdGV4dExlbmd0aD0iMjQiIHg9IjM2NiIgeT0iMjk0LjY4NzUiPihBUEk8L3RleHQ+PHRleHQgZmlsbD0iIzY2NjY2NiIgZm9udC1mYW1pbHk9InNhbnMtc2VyaWYiIGZvbnQtc2l6ZT0iMTIiIGxlbmd0aEFkanVzdD0ic3BhY2luZyIgdGV4dExlbmd0aD0iNiIgeD0iMzkwIiB5PSIyOTQuNjg3NSI+JiMxNjA7PC90ZXh0Pjx0ZXh0IGZpbGw9IiM2NjY2NjYiIGZvbnQtZmFtaWx5PSJzYW5zLXNlcmlmIiBmb250LXNpemU9IjEyIiBsZW5ndGhBZGp1c3Q9InNwYWNpbmciIHRleHRMZW5ndGg9IjQ4IiB4PSIzOTYiIHk9IjI5NC42ODc1Ij4mIzEwNzk7JiMxMDcyOyYjMTA4NzsmIzEwODg7JiMxMDg2OyYjMTA4OTsmIzEwOTk7KTwvdGV4dD48L2c+PCEtLWxpbmsgU3ByaW5nQm9vdEFwcCB0byBQeXRob25Ob2RlLS0+PGcgY2xhc3M9ImxpbmsiIGRhdGEtZW50aXR5LTE9IlNwcmluZ0Jvb3RBcHAiIGRhdGEtZW50aXR5LTI9IlB5dGhvbk5vZGUiIGRhdGEtc291cmNlLWxpbmU9IjQ2IiBkYXRhLXVpZD0ibG5rMjEiIGlkPSJsaW5rX1NwcmluZ0Jvb3RBcHBfUHl0aG9uTm9kZSI+PHBhdGggZD0iTTI4Ni44Nyw0NDkuNjQgQzI2OC4xOSw0NjYuNjkgMjQ1LjUsNDkwLjY1IDIzMiw1MTYuNSBDMjI5Ljc2ODgsNTIwLjc3MTMgMjI3Ljc5OTIsNTI1LjI5MTEgMjI2LjA2MDcsNTI5LjkzNjcgQzIyNS44NDM0LDUzMC41MTc0IDIyNS42Mjk3LDUzMS4xMDAxIDIyNS40MTk2LDUzMS42ODQ1IEMyMjUuMzY3LDUzMS44MzA2IDIyNy4zMjczLDUyNi4zMjQ0IDIyNy4yNzUyLDUyNi40NzA3IiBmaWxsPSJub25lIiBpZD0iU3ByaW5nQm9vdEFwcC10by1QeXRob25Ob2RlIiBzdHlsZT0ic3Ryb2tlOiM2NjY2NjY7c3Ryb2tlLXdpZHRoOjE7Ii8+PHBvbHlnb24gZmlsbD0iIzY2NjY2NiIgcG9pbnRzPSIyMjUuMjYyNiw1MzIuMTIzMSwyMzIuMDQ5OCw1MjQuOTg2MiwyMjYuOTM5OCw1MjcuNDEyNywyMjQuNTEzMiw1MjIuMzAyOCwyMjUuMjYyNiw1MzIuMTIzMSIgc3R5bGU9InN0cm9rZTojNjY2NjY2O3N0cm9rZS13aWR0aDoxOyIvPjx0ZXh0IGZpbGw9IiM2NjY2NjYiIGZvbnQtZmFtaWx5PSJzYW5zLXNlcmlmIiBmb250LXNpemU9IjEyIiBsZW5ndGhBZGp1c3Q9InNwYWNpbmciIHRleHRMZW5ndGg9IjM2IiB4PSIyNzUiIHk9IjQ5My44NDM4Ij4mIzEwNDc7JiMxMDcyOyYjMTA4NzsmIzEwODg7JiMxMDg2OyYjMTA4OTs8L3RleHQ+PHRleHQgZmlsbD0iIzY2NjY2NiIgZm9udC1mYW1pbHk9InNhbnMtc2VyaWYiIGZvbnQtc2l6ZT0iMTIiIGxlbmd0aEFkanVzdD0ic3BhY2luZyIgdGV4dExlbmd0aD0iNiIgeD0iMzExIiB5PSI0OTMuODQzOCI+JiMxNjA7PC90ZXh0Pjx0ZXh0IGZpbGw9IiM2NjY2NjYiIGZvbnQtZmFtaWx5PSJzYW5zLXNlcmlmIiBmb250LXNpemU9IjEyIiBsZW5ndGhBZGp1c3Q9InNwYWNpbmciIHRleHRMZW5ndGg9IjQ4IiB4PSIzMTciIHk9IjQ5My44NDM4Ij4mIzEwODc7JiMxMDg4OyYjMTA4NjsmIzEwNzU7JiMxMDg1OyYjMTA4NjsmIzEwNzk7JiMxMDcyOzwvdGV4dD48dGV4dCBmaWxsPSIjNjY2NjY2IiBmb250LWZhbWlseT0ic2Fucy1zZXJpZiIgZm9udC1zaXplPSIxMiIgbGVuZ3RoQWRqdXN0PSJzcGFjaW5nIiB0ZXh0TGVuZ3RoPSI2NiIgeD0iMjU3IiB5PSI1MDYuNjg3NSI+KCYjMTA0MjsmIzEwODU7JiMxMDkxOyYjMTA5MDsmIzEwODg7JiMxMDc3OyYjMTA4NTsmIzEwODU7JiMxMDgwOyYjMTA4MTs8L3RleHQ+PHRleHQgZmlsbD0iIzY2NjY2NiIgZm9udC1mYW1pbHk9InNhbnMtc2VyaWYiIGZvbnQtc2l6ZT0iMTIiIGxlbmd0aEFkanVzdD0ic3BhY2luZyIgdGV4dExlbmd0aD0iNiIgeD0iMzIzIiB5PSI1MDYuNjg3NSI+JiMxNjA7PC90ZXh0Pjx0ZXh0IGZpbGw9IiM2NjY2NjYiIGZvbnQtZmFtaWx5PSJzYW5zLXNlcmlmIiBmb250LXNpemU9IjEyIiBsZW5ndGhBZGp1c3Q9InNwYWNpbmciIHRleHRMZW5ndGg9IjI0IiB4PSIzMjkiIHk9IjUwNi42ODc1Ij5IVFRQPC90ZXh0Pjx0ZXh0IGZpbGw9IiM2NjY2NjYiIGZvbnQtZmFtaWx5PSJzYW5zLXNlcmlmIiBmb250LXNpemU9IjEyIiBsZW5ndGhBZGp1c3Q9InNwYWNpbmciIHRleHRMZW5ndGg9IjYiIHg9IjM1MyIgeT0iNTA2LjY4NzUiPiYjMTYwOzwvdGV4dD48dGV4dCBmaWxsPSIjNjY2NjY2IiBmb250LWZhbWlseT0ic2Fucy1zZXJpZiIgZm9udC1zaXplPSIxMiIgbGVuZ3RoQWRqdXN0PSJzcGFjaW5nIiB0ZXh0TGVuZ3RoPSIyNCIgeD0iMzU5IiB5PSI1MDYuNjg3NSI+QVBJKTwvdGV4dD48L2c+PCEtLWxpbmsgU3ByaW5nQm9vdEFwcCB0byBNeVNRTERCLS0+PGcgY2xhc3M9ImxpbmsiIGRhdGEtZW50aXR5LTE9IlNwcmluZ0Jvb3RBcHAiIGRhdGEtZW50aXR5LTI9Ik15U1FMREIiIGRhdGEtc291cmNlLWxpbmU9IjQ5IiBkYXRhLXVpZD0ibG5rMjIiIGlkPSJsaW5rX1NwcmluZ0Jvb3RBcHBfTXlTUUxEQiI+PHBhdGggZD0iTTM4OS4zNCw0NDguMjUgQzQyMi43Miw0NjMuMDQgNDYwLjI2LDQ4NS4yMyA0ODQsNTE2LjUgQzUzOS4zNSw1ODkuNDIgNTg4LjI5LDY0Ny43NSA1MjksNzE3LjUgQzUxNC43MSw3MzQuMzEgNDk1LjQ4LDcwOS43NyA0ODAsNzI1LjUgQzQ2OS40NTI1LDczNi4yMTUgNDYyLjg4NSw3NDkuODkyNSA0NTguOTc3Myw3NjQuNDI1NSBDNDU3LjAyMzUsNzcxLjY5MiA0NTUuNzM0Niw3NzkuMTcyMyA0NTQuOTQ1Nyw3ODYuNjAzMSBDNDU0LjkyMTEsNzg2LjgzNTQgNDU1LjUwNTksNzgxLjA5ODUgNDU1LjQ4MjIsNzgxLjMzMDYiIGZpbGw9Im5vbmUiIGlkPSJTcHJpbmdCb290QXBwLXRvLU15U1FMREIiIHN0eWxlPSJzdHJva2U6IzY2NjY2NjtzdHJva2Utd2lkdGg6MTsiLz48cG9seWdvbiBmaWxsPSIjNjY2NjY2IiBwb2ludHM9IjQ1NC44NzMyLDc4Ny4yOTk2LDQ1OS43NjYxLDc3OC43NTIxLDQ1NS4zODA3LDc4Mi4zMjU1LDQ1MS44MDc0LDc3Ny45NDAxLDQ1NC44NzMyLDc4Ny4yOTk2IiBzdHlsZT0ic3Ryb2tlOiM2NjY2NjY7c3Ryb2tlLXdpZHRoOjE7Ii8+PHRleHQgZmlsbD0iIzY2NjY2NiIgZm9udC1mYW1pbHk9InNhbnMtc2VyaWYiIGZvbnQtc2l6ZT0iMTIiIGxlbmd0aEFkanVzdD0ic3BhY2luZyIgdGV4dExlbmd0aD0iNzIiIHg9IjU1NyIgeT0iNjAzLjg0MzgiPiYjMTA2MzsmIzEwODA7JiMxMDkwOyYjMTA3MjsmIzEwNzc7JiMxMDkwOy8mIzEwNTU7JiMxMDgwOyYjMTA5NjsmIzEwNzc7JiMxMDkwOzwvdGV4dD48dGV4dCBmaWxsPSIjNjY2NjY2IiBmb250LWZhbWlseT0ic2Fucy1zZXJpZiIgZm9udC1zaXplPSIxMiIgbGVuZ3RoQWRqdXN0PSJzcGFjaW5nIiB0ZXh0TGVuZ3RoPSI2IiB4PSI2MjkiIHk9IjYwMy44NDM4Ij4mIzE2MDs8L3RleHQ+PHRleHQgZmlsbD0iIzY2NjY2NiIgZm9udC1mYW1pbHk9InNhbnMtc2VyaWYiIGZvbnQtc2l6ZT0iMTIiIGxlbmd0aEFkanVzdD0ic3BhY2luZyIgdGV4dExlbmd0aD0iMzYiIHg9IjYzNSIgeT0iNjAzLjg0MzgiPiYjMTA3NjsmIzEwNzI7JiMxMDg1OyYjMTA4NTsmIzEwOTk7JiMxMDc3OzwvdGV4dD48dGV4dCBmaWxsPSIjNjY2NjY2IiBmb250LWZhbWlseT0ic2Fucy1zZXJpZiIgZm9udC1zaXplPSIxMiIgbGVuZ3RoQWRqdXN0PSJzcGFjaW5nIiB0ZXh0TGVuZ3RoPSIzNiIgeD0iNTk2IiB5PSI2MTYuNjg3NSI+KEpEQkMpPC90ZXh0PjwvZz48IS0tbGluayBQcmVkaWN0b3JBcHAgdG8gTXlTUUxEQi0tPjxnIGNsYXNzPSJsaW5rIiBkYXRhLWVudGl0eS0xPSJQcmVkaWN0b3JBcHAiIGRhdGEtZW50aXR5LTI9Ik15U1FMREIiIGRhdGEtc291cmNlLWxpbmU9IjUwIiBkYXRhLXVpZD0ibG5rMjMiIGlkPSJsaW5rX1ByZWRpY3RvckFwcF9NeVNRTERCIj48cGF0aCBkPSJNMzYwLjQ1LDYzMS44NyBDMzYzLjIsNjU0Ljg5IDM2OC42OSw2ODkuMTggMzc5LDcxNy41IEMzOTEuMzcsNzUxLjQ2IDQxMS4xODUsNzg2Ljg3NSA0MjguMTIsODE0LjA4NjMgQzQzNi41ODc1LDgyNy42OTE5IDQ0NC4zMzUsODM5LjI0NjYgNDUwLjA3MTksODQ3LjU0MyBDNDUwLjQzMDQsODQ4LjA2MTUgNDUwLjc4MTEsODQ4LjU2NzMgNDUxLjEyMzcsODQ5LjA2MDEgQzQ1MS4yOTQ5LDg0OS4zMDY1IDQ1MS40NjQyLDg0OS41NDk2IDQ1MS42MzEzLDg0OS43ODk0IEM0NTEuNzE0OSw4NDkuOTA5MyA0NDguMzY0NSw4NDUuMTA3OSA0NDguNDQ3LDg0NS4yMjYyIiBmaWxsPSJub25lIiBpZD0iUHJlZGljdG9yQXBwLXRvLU15U1FMREIiIHN0eWxlPSJzdHJva2U6IzY2NjY2NjtzdHJva2Utd2lkdGg6MTsiLz48cG9seWdvbiBmaWxsPSIjNjY2NjY2IiBwb2ludHM9IjQ1MS44ODA0LDg1MC4xNDY3LDQ1MC4wMTA3LDg0MC40NzcsNDQ5LjAxOTMsODQ2LjA0NjMsNDQzLjQ1LDg0NS4wNTQ5LDQ1MS44ODA0LDg1MC4xNDY3IiBzdHlsZT0ic3Ryb2tlOiM2NjY2NjY7c3Ryb2tlLXdpZHRoOjE7Ii8+PHRleHQgZmlsbD0iIzY2NjY2NiIgZm9udC1mYW1pbHk9InNhbnMtc2VyaWYiIGZvbnQtc2l6ZT0iMTIiIGxlbmd0aEFkanVzdD0ic3BhY2luZyIgdGV4dExlbmd0aD0iMzYiIHg9IjM4MCIgeT0iNzE1Ljg0MzgiPicoJiMxMDc3OyYjMTA4OTsmIzEwODM7JiMxMDgwOzwvdGV4dD48dGV4dCBmaWxsPSIjNjY2NjY2IiBmb250LWZhbWlseT0ic2Fucy1zZXJpZiIgZm9udC1zaXplPSIxMiIgbGVuZ3RoQWRqdXN0PSJzcGFjaW5nIiB0ZXh0TGVuZ3RoPSI2IiB4PSI0MTYiIHk9IjcxNS44NDM4Ij4mIzE2MDs8L3RleHQ+PHRleHQgZmlsbD0iIzY2NjY2NiIgZm9udC1mYW1pbHk9InNhbnMtc2VyaWYiIGZvbnQtc2l6ZT0iMTIiIGxlbmd0aEFkanVzdD0ic3BhY2luZyIgdGV4dExlbmd0aD0iMzYiIHg9IjQyMiIgeT0iNzE1Ljg0MzgiPiYjMTA5NTsmIzEwODA7JiMxMDkwOyYjMTA3MjsmIzEwNzc7JiMxMDkwOzwvdGV4dD48dGV4dCBmaWxsPSIjNjY2NjY2IiBmb250LWZhbWlseT0ic2Fucy1zZXJpZiIgZm9udC1zaXplPSIxMiIgbGVuZ3RoQWRqdXN0PSJzcGFjaW5nIiB0ZXh0TGVuZ3RoPSI2IiB4PSI0NTgiIHk9IjcxNS44NDM4Ij4mIzE2MDs8L3RleHQ+PHRleHQgZmlsbD0iIzY2NjY2NiIgZm9udC1mYW1pbHk9InNhbnMtc2VyaWYiIGZvbnQtc2l6ZT0iMTIiIGxlbmd0aEFkanVzdD0ic3BhY2luZyIgdGV4dExlbmd0aD0iNjAiIHg9IjQ2NCIgeT0iNzE1Ljg0MzgiPiYjMTA4NTsmIzEwNzI7JiMxMDg3OyYjMTA4ODsmIzExMDM7JiMxMDg0OyYjMTA5MTsmIzExMDI7KSc8L3RleHQ+PHRleHQgZmlsbD0iIzY2NjY2NiIgZm9udC1mYW1pbHk9InNhbnMtc2VyaWYiIGZvbnQtc2l6ZT0iMTIiIGxlbmd0aEFkanVzdD0ic3BhY2luZyIgdGV4dExlbmd0aD0iMTIwIiB4PSIyMjkuNDc5NSIgeT0iNjUwLjc4NzIiPiYjMTA2MzsmIzEwODA7JiMxMDkwOyYjMTA3MjsmIzEwNzc7JiMxMDkwOyAmIzEwNzY7JiMxMDcyOyYjMTA4NTsmIzEwODU7JiMxMDk5OyYjMTA3NzsgJiMxMDg3OyYjMTA4ODsmIzEwODY7JiMxMDc2OyYjMTA3MjsmIzEwNzg7PC90ZXh0Pjx0ZXh0IGZpbGw9IiM2NjY2NjYiIGZvbnQtZmFtaWx5PSJzYW5zLXNlcmlmIiBmb250LXNpemU9IjEyIiBsZW5ndGhBZGp1c3Q9InNwYWNpbmciIHRleHRMZW5ndGg9IjEwOCIgeD0iMjM1LjQ3OTUiIHk9IjY2My42MzA5Ij4oUHl0aG9uIERCIERyaXZlcik8L3RleHQ+PC9nPjwhLS1TUkM9W1pMSERSemo2NEJ0cExxbnJpTk1HVUVhZlkwck81ZWg2WTBrcklqOUIwNkQ1aE1GTTU0YkdBbVQ2S1MySGF4UTAycGlEMmhHZS1lNldYcnZicnVlYkVOUi1tbDhWelNxa1FPZ2Z0RFEwOU42dnktUXpjSlZwV0h6d21RMGhRS1VmazdfN1RIRm5qRng0THBrM3BnMGw0b3lBYkduTHRPandSWG84SzByd0dRc2xrZTdWU1RTX2hCTnV3RTdjVlJTZC1hZWNFRGZRSHVKbUd2ZEtPem5yZDJMUU1MYVhfUWlVZlNfSU9OZ1doX0xLcF9JNFpfNUlsekJaejIwVHdXYUVIX2VvX0t2VnVTZ09TMUNILVhxVUJsN19IZV9uT2dCN1plZllLWDVyOGdNWTdkTnpIN2hBWnlBUkoyX3IzNzNOMDNxb0VPSWRlZUdnLWNWV0oxV2I3VDhvZnpNZHJHZzlGZHFrRW15WHpQUUJsbzN2QVB1RGlfSDhKc3RHUGpKbjByY0FVd2RGekxsUzFDckN3aVdJU1ZObEhsU3YxOXYxeGpTNmVRdDR6aE8xbzlkX2VJLUd2ZVlNRnVjd2lieXJ4NEZ5QjdEMktNUXNHZVQ1SFZhTmlBeURDZUNzdlB4bElWaEk4S0JsdVlYNDV1NVpQRFZxZ0k1dFk3bWVsZWJmOUQ1SnZiQS1OWDlsYWtmdDI5c0tNcDlOYUJLdVRodm9TalFsNlR2OEZZMUpXdEJXYjlPVmpUaGtVWDBEa2hRZzI2X0JQNHljWFpaU3lIbEtTa0FwQkZzNnMxRXJISG5tdElSVFVCSGZlRjNEUEpIMC0xRTl5aFZIQVFocUgxM0tFaUJSYk02dF9lTDg3ZVR0eHhSWm4wLVZLMkVBckVnZ3hPdXZ1R0VNSDBISDZRNFgtWldreDQxV1E1TVl3dUh0Yi1hOWhUczNTeVB1V3d3SEZpQ3pLdDV6SEdXVmNWdkRvTlp4Rjd0MWR6S1JfZ3J6akhFNXpEYVdMN3ZGNll4c1FCNlFFOTVUZG1zdVhVdm5vLWxuRllrb0NVdjdXVVpsa2N0RnRfTExCUDBZMkpEemhKbWtidFRCcnh1N3RHanVLbF8wejViby1pODBEM2o1ZnhmMllPeGU4dFhwbF90ZlZNZmNwek9PVkRIaU1FaGJEY3BybEh0UDRuUWxxSk9GWmtNSVpTSGg1RXk0RGhOaDhmaktnakxNU3lGSTdKMy1BTHlLUUNlNVIzckVYbk1kYzUxcF95UVZqcVZTSkVKX0lPMDY1bUVGclVMWUhhVGNNQXh1VFJOMjZsdW5qbkNwR2NPTnA4MXNkN3ZaM0dwRnU2bDRwZVJVam5aak96OHBjbEZiV2liQlp2c1M5MUNrTVBQZlZfcFdHU2xiWl9SWlMzYVZfR2JwQ0psdEVHd21FRG9ycmhyZ05Zd0VfNnlpSDEyUU9rWFltSnJCWnBBdmhtMS1RN09JNHBJM29WRUh6djBiNWxGMmRtaU5vakdmZnNUMlNwRjAzVmNuSTZ1SGhsTFZQYU0wYkhOeEZmNGZDTmtvT2ZiaE9RcTViSnFYMVp2Ynl6alBGSV9pbHUxVHhkNmN6WVYyVVNYWDBZbi1GN25oeDU4V3czNE9SWkdSd28wb0Z1Ul9YYkdBcG5OcHFIaldQSWkzS1N0NG5xWFlib3VMd21TTWN1RHZwc0pMZlJ5MV0tLT48L2c+PC9zdmc+;" parent="1" vertex="1">
            <mxGeometry x="-223" y="2191" width="1018.5" height="1431" as="geometry" />
          </mxCell>
        </UserObject>
        <mxCell id="vlpzp-Trh0klWQLIbf5Z-1" value="Клиент" style="shape=umlActor;verticalLabelPosition=bottom;verticalAlign=top;html=1;outlineConnect=0;" parent="1" vertex="1">
          <mxGeometry x="1160" y="2574" width="30" height="60" as="geometry" />
        </mxCell>
        <mxCell id="vlpzp-Trh0klWQLIbf5Z-2" value="Поиск товаров" style="ellipse;whiteSpace=wrap;html=1;" parent="1" vertex="1">
          <mxGeometry x="1105" y="2440" width="140" height="70" as="geometry" />
        </mxCell>
        <mxCell id="vlpzp-Trh0klWQLIbf5Z-3" value="&amp;lt;&amp;lt;включает&amp;gt;&amp;gt;" style="edgeStyle=none;html=1;endArrow=open;verticalAlign=bottom;dashed=1;labelBackgroundColor=none;rounded=0;exitX=0.5;exitY=1;exitDx=0;exitDy=0;entryX=0.5;entryY=0;entryDx=0;entryDy=0;" parent="1" source="vlpzp-Trh0klWQLIbf5Z-27" target="vlpzp-Trh0klWQLIbf5Z-30" edge="1">
          <mxGeometry width="160" relative="1" as="geometry">
            <mxPoint x="408" y="2406" as="sourcePoint" />
            <mxPoint x="568" y="2406" as="targetPoint" />
            <mxPoint as="offset" />
          </mxGeometry>
        </mxCell>
        <mxCell id="vlpzp-Trh0klWQLIbf5Z-4" value="&amp;lt;&amp;lt;Расширение&amp;gt;&amp;gt;" style="edgeStyle=none;html=1;startArrow=open;endArrow=none;startSize=12;verticalAlign=bottom;dashed=1;labelBackgroundColor=none;rounded=0;exitX=1;exitY=1;exitDx=0;exitDy=0;entryX=0;entryY=0;entryDx=0;entryDy=0;" parent="1" source="vlpzp-Trh0klWQLIbf5Z-27" target="vlpzp-Trh0klWQLIbf5Z-33" edge="1">
          <mxGeometry width="160" relative="1" as="geometry">
            <mxPoint x="1442" y="2951" as="sourcePoint" />
            <mxPoint x="1602" y="2951" as="targetPoint" />
          </mxGeometry>
        </mxCell>
        <mxCell id="vlpzp-Trh0klWQLIbf5Z-5" value="Администратор" style="shape=umlActor;verticalLabelPosition=bottom;verticalAlign=top;html=1;outlineConnect=0;" parent="1" vertex="1">
          <mxGeometry x="1577" y="2846" width="30" height="60" as="geometry" />
        </mxCell>
        <mxCell id="vlpzp-Trh0klWQLIbf5Z-6" value="бизнесмены" style="shape=umlActor;verticalLabelPosition=bottom;verticalAlign=top;html=1;outlineConnect=0;" parent="1" vertex="1">
          <mxGeometry x="1160" y="2846" width="30" height="60" as="geometry" />
        </mxCell>
        <mxCell id="vlpzp-Trh0klWQLIbf5Z-11" value="Управление корзиной" style="ellipse;whiteSpace=wrap;html=1;" parent="1" vertex="1">
          <mxGeometry x="1268" y="2443" width="140" height="70" as="geometry" />
        </mxCell>
        <mxCell id="vlpzp-Trh0klWQLIbf5Z-12" value="Отслеживать заказы" style="ellipse;whiteSpace=wrap;html=1;" parent="1" vertex="1">
          <mxGeometry x="942" y="2569" width="140" height="70" as="geometry" />
        </mxCell>
        <mxCell id="vlpzp-Trh0klWQLIbf5Z-13" value="Оценить продукты" style="ellipse;whiteSpace=wrap;html=1;" parent="1" vertex="1">
          <mxGeometry x="942" y="2705" width="140" height="70" as="geometry" />
        </mxCell>
        <mxCell id="vlpzp-Trh0klWQLIbf5Z-14" value="Просмотреть товары" style="ellipse;whiteSpace=wrap;html=1;" parent="1" vertex="1">
          <mxGeometry x="942" y="2443" width="140" height="70" as="geometry" />
        </mxCell>
        <mxCell id="vlpzp-Trh0klWQLIbf5Z-15" value="Войти и зарегистрироваться" style="ellipse;whiteSpace=wrap;html=1;" parent="1" vertex="1">
          <mxGeometry x="1105" y="2705" width="140" height="70" as="geometry" />
        </mxCell>
        <mxCell id="vlpzp-Trh0klWQLIbf5Z-21" value="" style="edgeStyle=none;html=1;endArrow=none;verticalAlign=bottom;rounded=0;exitX=1;exitY=0.5;exitDx=0;exitDy=0;" parent="1" source="vlpzp-Trh0klWQLIbf5Z-12" target="vlpzp-Trh0klWQLIbf5Z-1" edge="1">
          <mxGeometry width="160" relative="1" as="geometry">
            <mxPoint x="1104" y="2586" as="sourcePoint" />
            <mxPoint x="861" y="2605" as="targetPoint" />
          </mxGeometry>
        </mxCell>
        <mxCell id="vlpzp-Trh0klWQLIbf5Z-22" value="" style="edgeStyle=none;html=1;endArrow=none;verticalAlign=bottom;rounded=0;exitX=1;exitY=1;exitDx=0;exitDy=0;entryX=0.25;entryY=0.1;entryDx=0;entryDy=0;entryPerimeter=0;" parent="1" source="vlpzp-Trh0klWQLIbf5Z-14" target="vlpzp-Trh0klWQLIbf5Z-1" edge="1">
          <mxGeometry width="160" relative="1" as="geometry">
            <mxPoint x="1092" y="2614" as="sourcePoint" />
            <mxPoint x="1170" y="2614" as="targetPoint" />
          </mxGeometry>
        </mxCell>
        <mxCell id="vlpzp-Trh0klWQLIbf5Z-23" value="" style="edgeStyle=none;html=1;endArrow=none;verticalAlign=bottom;rounded=0;exitX=0.5;exitY=1;exitDx=0;exitDy=0;entryX=0.5;entryY=0;entryDx=0;entryDy=0;entryPerimeter=0;" parent="1" source="vlpzp-Trh0klWQLIbf5Z-2" target="vlpzp-Trh0klWQLIbf5Z-1" edge="1">
          <mxGeometry width="160" relative="1" as="geometry">
            <mxPoint x="1102" y="2624" as="sourcePoint" />
            <mxPoint x="1180" y="2624" as="targetPoint" />
          </mxGeometry>
        </mxCell>
        <mxCell id="vlpzp-Trh0klWQLIbf5Z-24" value="" style="edgeStyle=none;html=1;endArrow=none;verticalAlign=bottom;rounded=0;exitX=0.75;exitY=0.1;exitDx=0;exitDy=0;entryX=0;entryY=1;entryDx=0;entryDy=0;exitPerimeter=0;" parent="1" source="vlpzp-Trh0klWQLIbf5Z-1" target="vlpzp-Trh0klWQLIbf5Z-11" edge="1">
          <mxGeometry width="160" relative="1" as="geometry">
            <mxPoint x="1112" y="2634" as="sourcePoint" />
            <mxPoint x="1190" y="2634" as="targetPoint" />
          </mxGeometry>
        </mxCell>
        <mxCell id="vlpzp-Trh0klWQLIbf5Z-25" value="" style="edgeStyle=none;html=1;endArrow=none;verticalAlign=bottom;rounded=0;" parent="1" source="vlpzp-Trh0klWQLIbf5Z-13" target="vlpzp-Trh0klWQLIbf5Z-1" edge="1">
          <mxGeometry width="160" relative="1" as="geometry">
            <mxPoint x="1122" y="2644" as="sourcePoint" />
            <mxPoint x="1200" y="2644" as="targetPoint" />
          </mxGeometry>
        </mxCell>
        <mxCell id="vlpzp-Trh0klWQLIbf5Z-26" value="" style="edgeStyle=none;html=1;endArrow=none;verticalAlign=bottom;rounded=0;entryX=0.5;entryY=0;entryDx=0;entryDy=0;" parent="1" source="vlpzp-Trh0klWQLIbf5Z-1" target="vlpzp-Trh0klWQLIbf5Z-15" edge="1">
          <mxGeometry width="160" relative="1" as="geometry">
            <mxPoint x="1132" y="2654" as="sourcePoint" />
            <mxPoint x="1210" y="2654" as="targetPoint" />
          </mxGeometry>
        </mxCell>
        <mxCell id="vlpzp-Trh0klWQLIbf5Z-27" value="Управление товарами" style="ellipse;whiteSpace=wrap;html=1;" parent="1" vertex="1">
          <mxGeometry x="1268" y="2841" width="140" height="70" as="geometry" />
        </mxCell>
        <mxCell id="vlpzp-Trh0klWQLIbf5Z-29" value="Изменить продукт" style="ellipse;whiteSpace=wrap;html=1;" parent="1" vertex="1">
          <mxGeometry x="1268" y="2705" width="140" height="70" as="geometry" />
        </mxCell>
        <mxCell id="vlpzp-Trh0klWQLIbf5Z-30" value="Добавить товар" style="ellipse;whiteSpace=wrap;html=1;" parent="1" vertex="1">
          <mxGeometry x="1268" y="2977" width="140" height="70" as="geometry" />
        </mxCell>
        <mxCell id="vlpzp-Trh0klWQLIbf5Z-31" value="Управление пользователями" style="ellipse;whiteSpace=wrap;html=1;" parent="1" vertex="1">
          <mxGeometry x="1522" y="2705" width="140" height="70" as="geometry" />
        </mxCell>
        <mxCell id="vlpzp-Trh0klWQLIbf5Z-32" value="Обслуживание системы" style="ellipse;whiteSpace=wrap;html=1;" parent="1" vertex="1">
          <mxGeometry x="1710" y="2841" width="140" height="70" as="geometry" />
        </mxCell>
        <mxCell id="vlpzp-Trh0klWQLIbf5Z-33" value="Утверждение товарных релизов" style="ellipse;whiteSpace=wrap;html=1;" parent="1" vertex="1">
          <mxGeometry x="1431" y="2977" width="140" height="70" as="geometry" />
        </mxCell>
        <mxCell id="vlpzp-Trh0klWQLIbf5Z-34" value="&amp;lt;&amp;lt;включает&amp;gt;&amp;gt;" style="edgeStyle=none;html=1;endArrow=open;verticalAlign=bottom;dashed=1;labelBackgroundColor=none;rounded=0;exitX=0.5;exitY=0;exitDx=0;exitDy=0;entryX=0.5;entryY=1;entryDx=0;entryDy=0;" parent="1" source="vlpzp-Trh0klWQLIbf5Z-27" target="vlpzp-Trh0klWQLIbf5Z-29" edge="1">
          <mxGeometry width="160" relative="1" as="geometry">
            <mxPoint x="1576" y="2659" as="sourcePoint" />
            <mxPoint x="1736" y="2659" as="targetPoint" />
          </mxGeometry>
        </mxCell>
        <mxCell id="vlpzp-Trh0klWQLIbf5Z-35" value="" style="edgeStyle=none;html=1;endArrow=none;verticalAlign=bottom;rounded=0;exitX=0.5;exitY=0;exitDx=0;exitDy=0;entryX=0.5;entryY=1;entryDx=0;entryDy=0;exitPerimeter=0;" parent="1" source="vlpzp-Trh0klWQLIbf5Z-6" target="vlpzp-Trh0klWQLIbf5Z-15" edge="1">
          <mxGeometry width="160" relative="1" as="geometry">
            <mxPoint x="1193" y="2590" as="sourcePoint" />
            <mxPoint x="1299" y="2513" as="targetPoint" />
          </mxGeometry>
        </mxCell>
        <mxCell id="vlpzp-Trh0klWQLIbf5Z-36" value="" style="edgeStyle=none;html=1;endArrow=none;verticalAlign=bottom;rounded=0;" parent="1" source="vlpzp-Trh0klWQLIbf5Z-6" target="vlpzp-Trh0klWQLIbf5Z-27" edge="1">
          <mxGeometry width="160" relative="1" as="geometry">
            <mxPoint x="1203" y="2600" as="sourcePoint" />
            <mxPoint x="1309" y="2523" as="targetPoint" />
          </mxGeometry>
        </mxCell>
        <mxCell id="vlpzp-Trh0klWQLIbf5Z-37" value="" style="edgeStyle=none;html=1;endArrow=none;verticalAlign=bottom;rounded=0;exitX=1;exitY=0.5;exitDx=0;exitDy=0;" parent="1" source="vlpzp-Trh0klWQLIbf5Z-27" target="vlpzp-Trh0klWQLIbf5Z-5" edge="1">
          <mxGeometry width="160" relative="1" as="geometry">
            <mxPoint x="1213" y="2610" as="sourcePoint" />
            <mxPoint x="1319" y="2533" as="targetPoint" />
          </mxGeometry>
        </mxCell>
        <mxCell id="vlpzp-Trh0klWQLIbf5Z-38" value="" style="edgeStyle=none;html=1;endArrow=none;verticalAlign=bottom;rounded=0;" parent="1" source="vlpzp-Trh0klWQLIbf5Z-5" target="vlpzp-Trh0klWQLIbf5Z-32" edge="1">
          <mxGeometry width="160" relative="1" as="geometry">
            <mxPoint x="1223" y="2620" as="sourcePoint" />
            <mxPoint x="1329" y="2543" as="targetPoint" />
          </mxGeometry>
        </mxCell>
        <mxCell id="vlpzp-Trh0klWQLIbf5Z-39" value="" style="edgeStyle=none;html=1;endArrow=none;verticalAlign=bottom;rounded=0;exitX=0.5;exitY=0;exitDx=0;exitDy=0;entryX=0.5;entryY=1;entryDx=0;entryDy=0;exitPerimeter=0;" parent="1" source="vlpzp-Trh0klWQLIbf5Z-5" target="vlpzp-Trh0klWQLIbf5Z-31" edge="1">
          <mxGeometry width="160" relative="1" as="geometry">
            <mxPoint x="1233" y="2630" as="sourcePoint" />
            <mxPoint x="1339" y="2553" as="targetPoint" />
          </mxGeometry>
        </mxCell>
        <mxCell id="jWiXfkQEJoT1bWekrCEI-1" value="Торговцы выходят на платформу" style="ellipse;whiteSpace=wrap;html=1;" parent="1" vertex="1">
          <mxGeometry x="942" y="2841" width="140" height="70" as="geometry" />
        </mxCell>
        <mxCell id="jWiXfkQEJoT1bWekrCEI-2" value="&amp;lt;&amp;lt;Расширение&amp;gt;&amp;gt;" style="edgeStyle=none;html=1;startArrow=open;endArrow=none;startSize=12;verticalAlign=bottom;dashed=1;labelBackgroundColor=none;rounded=0;exitX=0;exitY=1;exitDx=0;exitDy=0;" parent="1" source="vlpzp-Trh0klWQLIbf5Z-15" target="jWiXfkQEJoT1bWekrCEI-1" edge="1">
          <mxGeometry width="160" relative="1" as="geometry">
            <mxPoint x="1105" y="2810" as="sourcePoint" />
            <mxPoint x="1168" y="2896" as="targetPoint" />
          </mxGeometry>
        </mxCell>
        <mxCell id="iXGsv0SDDWYFsRR7btJv-1" value="Управление заказами" style="ellipse;whiteSpace=wrap;html=1;" parent="1" vertex="1">
          <mxGeometry x="1268" y="3113" width="140" height="70" as="geometry" />
        </mxCell>
        <mxCell id="iXGsv0SDDWYFsRR7btJv-2" value="" style="edgeStyle=none;html=1;endArrow=none;verticalAlign=bottom;rounded=0;exitX=0;exitY=0.5;exitDx=0;exitDy=0;" parent="1" source="iXGsv0SDDWYFsRR7btJv-1" target="vlpzp-Trh0klWQLIbf5Z-6" edge="1">
          <mxGeometry width="160" relative="1" as="geometry">
            <mxPoint x="1175" y="3142" as="sourcePoint" />
            <mxPoint x="1157" y="3002" as="targetPoint" />
            <Array as="points">
              <mxPoint x="1172" y="3148" />
            </Array>
          </mxGeometry>
        </mxCell>
        <mxCell id="iXGsv0SDDWYFsRR7btJv-4" value="" style="edgeStyle=none;html=1;endArrow=none;verticalAlign=bottom;rounded=0;entryX=0.988;entryY=0.587;entryDx=0;entryDy=0;entryPerimeter=0;" parent="1" source="vlpzp-Trh0klWQLIbf5Z-5" target="iXGsv0SDDWYFsRR7btJv-1" edge="1">
          <mxGeometry width="160" relative="1" as="geometry">
            <mxPoint x="1570" y="3165" as="sourcePoint" />
            <mxPoint x="1570" y="3236" as="targetPoint" />
            <Array as="points">
              <mxPoint x="1592" y="3156" />
            </Array>
          </mxGeometry>
        </mxCell>
        <UserObject label="" plantUmlData="{&#xa;  &quot;data&quot;: &quot;@startuml\n&#39; Horizontal state diagram\n!pragma horizontalLayout\n\n&#39; Define states\n[*] --&gt; ПросмотрГлавнойСтраницы\nПросмотрГлавнойСтраницы --&gt; ПросмотрТоваров : Выбор категории\nПросмотрТоваров --&gt; ПросмотрДеталейТовара : Клик на товар\nПросмотрДеталейТовара --&gt; Корзина : Добавить в корзину\nКорзина --&gt; ОформлениеЗаказа : Перейти к оформлению\nОформлениеЗаказа --&gt; Оплата : Подтвердить заказ\nОплата --&gt; ПодтверждениеЗаказа : Успешная оплата\nПодтверждениеЗаказа --&gt; [*]\n\n@enduml&quot;,&#xa;  &quot;format&quot;: &quot;svg&quot;&#xa;}" id="r7MdP9-WpG419sBYxyx1-2">
          <mxCell style="shape=image;noLabel=1;verticalAlign=top;aspect=fixed;imageAspect=0;image=data:image/svg+xml,PHN2ZyB4bWxucz0iaHR0cDovL3d3dy53My5vcmcvMjAwMC9zdmciIHhtbG5zOnhsaW5rPSJodHRwOi8vd3d3LnczLm9yZy8xOTk5L3hsaW5rIiBjb250ZW50U3R5bGVUeXBlPSJ0ZXh0L2NzcyIgZGF0YS1kaWFncmFtLXR5cGU9IlNUQVRFIiBoZWlnaHQ9Ijk3NnB4IiBwcmVzZXJ2ZUFzcGVjdFJhdGlvPSJub25lIiBzdHlsZT0id2lkdGg6MjM2cHg7aGVpZ2h0Ojk3NnB4O2JhY2tncm91bmQ6I0ZGRkZGRjsiIHZlcnNpb249IjEuMSIgdmlld0JveD0iMCAwIDIzNiA5NzYiIHdpZHRoPSIyMzZweCIgem9vbUFuZFBhbj0ibWFnbmlmeSI+PGRlZnMvPjxnPjxlbGxpcHNlIGN4PSI5Ny41IiBjeT0iMTYiIGZpbGw9IiMyMjIyMjIiIHJ4PSIxMCIgcnk9IjEwIiBzdHlsZT0ic3Ryb2tlOiMyMjIyMjI7c3Ryb2tlLXdpZHRoOjE7Ii8+PGcgaWQ9IiYjMTA1NTsmIzEwODg7JiMxMDg2OyYjMTA4OTsmIzEwODQ7JiMxMDg2OyYjMTA5MDsmIzEwODg7JiMxMDQzOyYjMTA4MzsmIzEwNzI7JiMxMDc0OyYjMTA4NTsmIzEwODY7JiMxMDgxOyYjMTA1NzsmIzEwOTA7JiMxMDg4OyYjMTA3MjsmIzEwODU7JiMxMDgwOyYjMTA5NDsmIzEwOTk7Ij48cmVjdCBmaWxsPSIjRjFGMUYxIiBoZWlnaHQ9IjUwIiByeD0iMTIuNSIgcnk9IjEyLjUiIHN0eWxlPSJzdHJva2U6IzE4MTgxODtzdHJva2Utd2lkdGg6MC41OyIgd2lkdGg9IjE4MSIgeD0iNyIgeT0iODciLz48bGluZSBzdHlsZT0ic3Ryb2tlOiMxODE4MTg7c3Ryb2tlLXdpZHRoOjAuNTsiIHgxPSI3IiB4Mj0iMTg4IiB5MT0iMTExLjk4NDQiIHkyPSIxMTEuOTg0NCIvPjx0ZXh0IGZpbGw9IiMwMDAwMDAiIGZvbnQtZmFtaWx5PSJzYW5zLXNlcmlmIiBmb250LXNpemU9IjE0IiBsZW5ndGhBZGp1c3Q9InNwYWNpbmciIHRleHRMZW5ndGg9IjE2MSIgeD0iMTciIHk9IjEwNS4yMzQ0Ij4mIzEwNTU7JiMxMDg4OyYjMTA4NjsmIzEwODk7JiMxMDg0OyYjMTA4NjsmIzEwOTA7JiMxMDg4OyYjMTA0MzsmIzEwODM7JiMxMDcyOyYjMTA3NDsmIzEwODU7JiMxMDg2OyYjMTA4MTsmIzEwNTc7JiMxMDkwOyYjMTA4ODsmIzEwNzI7JiMxMDg1OyYjMTA4MDsmIzEwOTQ7JiMxMDk5OzwvdGV4dD48L2c+PGcgaWQ9IiYjMTA1NTsmIzEwODg7JiMxMDg2OyYjMTA4OTsmIzEwODQ7JiMxMDg2OyYjMTA5MDsmIzEwODg7JiMxMDU4OyYjMTA4NjsmIzEwNzQ7JiMxMDcyOyYjMTA4ODsmIzEwODY7JiMxMDc0OyI+PHJlY3QgZmlsbD0iI0YxRjFGMSIgaGVpZ2h0PSI1MCIgcng9IjEyLjUiIHJ5PSIxMi41IiBzdHlsZT0ic3Ryb2tlOiMxODE4MTg7c3Ryb2tlLXdpZHRoOjAuNTsiIHdpZHRoPSIxMjUiIHg9IjM1IiB5PSIyMTIiLz48bGluZSBzdHlsZT0ic3Ryb2tlOiMxODE4MTg7c3Ryb2tlLXdpZHRoOjAuNTsiIHgxPSIzNSIgeDI9IjE2MCIgeTE9IjIzNi45ODQ0IiB5Mj0iMjM2Ljk4NDQiLz48dGV4dCBmaWxsPSIjMDAwMDAwIiBmb250LWZhbWlseT0ic2Fucy1zZXJpZiIgZm9udC1zaXplPSIxNCIgbGVuZ3RoQWRqdXN0PSJzcGFjaW5nIiB0ZXh0TGVuZ3RoPSIxMDUiIHg9IjQ1IiB5PSIyMzAuMjM0NCI+JiMxMDU1OyYjMTA4ODsmIzEwODY7JiMxMDg5OyYjMTA4NDsmIzEwODY7JiMxMDkwOyYjMTA4ODsmIzEwNTg7JiMxMDg2OyYjMTA3NDsmIzEwNzI7JiMxMDg4OyYjMTA4NjsmIzEwNzQ7PC90ZXh0PjwvZz48ZyBpZD0iJiMxMDU1OyYjMTA4ODsmIzEwODY7JiMxMDg5OyYjMTA4NDsmIzEwODY7JiMxMDkwOyYjMTA4ODsmIzEwNDQ7JiMxMDc3OyYjMTA5MDsmIzEwNzI7JiMxMDgzOyYjMTA3NzsmIzEwODE7JiMxMDU4OyYjMTA4NjsmIzEwNzQ7JiMxMDcyOyYjMTA4ODsmIzEwNzI7Ij48cmVjdCBmaWxsPSIjRjFGMUYxIiBoZWlnaHQ9IjUwIiByeD0iMTIuNSIgcnk9IjEyLjUiIHN0eWxlPSJzdHJva2U6IzE4MTgxODtzdHJva2Utd2lkdGg6MC41OyIgd2lkdGg9IjE2NyIgeD0iMTQiIHk9IjMzNyIvPjxsaW5lIHN0eWxlPSJzdHJva2U6IzE4MTgxODtzdHJva2Utd2lkdGg6MC41OyIgeDE9IjE0IiB4Mj0iMTgxIiB5MT0iMzYxLjk4NDQiIHkyPSIzNjEuOTg0NCIvPjx0ZXh0IGZpbGw9IiMwMDAwMDAiIGZvbnQtZmFtaWx5PSJzYW5zLXNlcmlmIiBmb250LXNpemU9IjE0IiBsZW5ndGhBZGp1c3Q9InNwYWNpbmciIHRleHRMZW5ndGg9IjE0NyIgeD0iMjQiIHk9IjM1NS4yMzQ0Ij4mIzEwNTU7JiMxMDg4OyYjMTA4NjsmIzEwODk7JiMxMDg0OyYjMTA4NjsmIzEwOTA7JiMxMDg4OyYjMTA0NDsmIzEwNzc7JiMxMDkwOyYjMTA3MjsmIzEwODM7JiMxMDc3OyYjMTA4MTsmIzEwNTg7JiMxMDg2OyYjMTA3NDsmIzEwNzI7JiMxMDg4OyYjMTA3Mjs8L3RleHQ+PC9nPjxnIGlkPSImIzEwNTA7JiMxMDg2OyYjMTA4ODsmIzEwNzk7JiMxMDgwOyYjMTA4NTsmIzEwNzI7Ij48cmVjdCBmaWxsPSIjRjFGMUYxIiBoZWlnaHQ9IjUwIiByeD0iMTIuNSIgcnk9IjEyLjUiIHN0eWxlPSJzdHJva2U6IzE4MTgxODtzdHJva2Utd2lkdGg6MC41OyIgd2lkdGg9IjY5IiB4PSI2MyIgeT0iNDYyIi8+PGxpbmUgc3R5bGU9InN0cm9rZTojMTgxODE4O3N0cm9rZS13aWR0aDowLjU7IiB4MT0iNjMiIHgyPSIxMzIiIHkxPSI0ODYuOTg0NCIgeTI9IjQ4Ni45ODQ0Ii8+PHRleHQgZmlsbD0iIzAwMDAwMCIgZm9udC1mYW1pbHk9InNhbnMtc2VyaWYiIGZvbnQtc2l6ZT0iMTQiIGxlbmd0aEFkanVzdD0ic3BhY2luZyIgdGV4dExlbmd0aD0iNDkiIHg9IjczIiB5PSI0ODAuMjM0NCI+JiMxMDUwOyYjMTA4NjsmIzEwODg7JiMxMDc5OyYjMTA4MDsmIzEwODU7JiMxMDcyOzwvdGV4dD48L2c+PGcgaWQ9IiYjMTA1NDsmIzEwOTI7JiMxMDg2OyYjMTA4ODsmIzEwODQ7JiMxMDgzOyYjMTA3NzsmIzEwODU7JiMxMDgwOyYjMTA3NzsmIzEwNDc7JiMxMDcyOyYjMTA4MjsmIzEwNzI7JiMxMDc5OyYjMTA3MjsiPjxyZWN0IGZpbGw9IiNGMUYxRjEiIGhlaWdodD0iNTAiIHJ4PSIxMi41IiByeT0iMTIuNSIgc3R5bGU9InN0cm9rZTojMTgxODE4O3N0cm9rZS13aWR0aDowLjU7IiB3aWR0aD0iMTMyIiB4PSIzMS41IiB5PSI1ODciLz48bGluZSBzdHlsZT0ic3Ryb2tlOiMxODE4MTg7c3Ryb2tlLXdpZHRoOjAuNTsiIHgxPSIzMS41IiB4Mj0iMTYzLjUiIHkxPSI2MTEuOTg0NCIgeTI9IjYxMS45ODQ0Ii8+PHRleHQgZmlsbD0iIzAwMDAwMCIgZm9udC1mYW1pbHk9InNhbnMtc2VyaWYiIGZvbnQtc2l6ZT0iMTQiIGxlbmd0aEFkanVzdD0ic3BhY2luZyIgdGV4dExlbmd0aD0iMTEyIiB4PSI0MS41IiB5PSI2MDUuMjM0NCI+JiMxMDU0OyYjMTA5MjsmIzEwODY7JiMxMDg4OyYjMTA4NDsmIzEwODM7JiMxMDc3OyYjMTA4NTsmIzEwODA7JiMxMDc3OyYjMTA0NzsmIzEwNzI7JiMxMDgyOyYjMTA3MjsmIzEwNzk7JiMxMDcyOzwvdGV4dD48L2c+PGcgaWQ9IiYjMTA1NDsmIzEwODc7JiMxMDgzOyYjMTA3MjsmIzEwOTA7JiMxMDcyOyI+PHJlY3QgZmlsbD0iI0YxRjFGMSIgaGVpZ2h0PSI1MCIgcng9IjEyLjUiIHJ5PSIxMi41IiBzdHlsZT0ic3Ryb2tlOiMxODE4MTg7c3Ryb2tlLXdpZHRoOjAuNTsiIHdpZHRoPSI2MiIgeD0iNjYuNSIgeT0iNzEyIi8+PGxpbmUgc3R5bGU9InN0cm9rZTojMTgxODE4O3N0cm9rZS13aWR0aDowLjU7IiB4MT0iNjYuNSIgeDI9IjEyOC41IiB5MT0iNzM2Ljk4NDQiIHkyPSI3MzYuOTg0NCIvPjx0ZXh0IGZpbGw9IiMwMDAwMDAiIGZvbnQtZmFtaWx5PSJzYW5zLXNlcmlmIiBmb250LXNpemU9IjE0IiBsZW5ndGhBZGp1c3Q9InNwYWNpbmciIHRleHRMZW5ndGg9IjQyIiB4PSI3Ni41IiB5PSI3MzAuMjM0NCI+JiMxMDU0OyYjMTA4NzsmIzEwODM7JiMxMDcyOyYjMTA5MDsmIzEwNzI7PC90ZXh0PjwvZz48ZyBpZD0iJiMxMDU1OyYjMTA4NjsmIzEwNzY7JiMxMDkwOyYjMTA3NDsmIzEwNzc7JiMxMDg4OyYjMTA3ODsmIzEwNzY7JiMxMDc3OyYjMTA4NTsmIzEwODA7JiMxMDc3OyYjMTA0NzsmIzEwNzI7JiMxMDgyOyYjMTA3MjsmIzEwNzk7JiMxMDcyOyI+PHJlY3QgZmlsbD0iI0YxRjFGMSIgaGVpZ2h0PSI1MCIgcng9IjEyLjUiIHJ5PSIxMi41IiBzdHlsZT0ic3Ryb2tlOiMxODE4MTg7c3Ryb2tlLXdpZHRoOjAuNTsiIHdpZHRoPSIxNTMiIHg9IjIxIiB5PSI4MzciLz48bGluZSBzdHlsZT0ic3Ryb2tlOiMxODE4MTg7c3Ryb2tlLXdpZHRoOjAuNTsiIHgxPSIyMSIgeDI9IjE3NCIgeTE9Ijg2MS45ODQ0IiB5Mj0iODYxLjk4NDQiLz48dGV4dCBmaWxsPSIjMDAwMDAwIiBmb250LWZhbWlseT0ic2Fucy1zZXJpZiIgZm9udC1zaXplPSIxNCIgbGVuZ3RoQWRqdXN0PSJzcGFjaW5nIiB0ZXh0TGVuZ3RoPSIxMzMiIHg9IjMxIiB5PSI4NTUuMjM0NCI+JiMxMDU1OyYjMTA4NjsmIzEwNzY7JiMxMDkwOyYjMTA3NDsmIzEwNzc7JiMxMDg4OyYjMTA3ODsmIzEwNzY7JiMxMDc3OyYjMTA4NTsmIzEwODA7JiMxMDc3OyYjMTA0NzsmIzEwNzI7JiMxMDgyOyYjMTA3MjsmIzEwNzk7JiMxMDcyOzwvdGV4dD48L2c+PGVsbGlwc2UgY3g9Ijk3LjUiIGN5PSI5NTkiIGZpbGw9Im5vbmUiIHJ4PSIxMSIgcnk9IjExIiBzdHlsZT0ic3Ryb2tlOiMyMjIyMjI7c3Ryb2tlLXdpZHRoOjE7Ii8+PGVsbGlwc2UgY3g9Ijk3LjUiIGN5PSI5NTkiIGZpbGw9IiMyMjIyMjIiIHJ4PSI2IiByeT0iNiIgc3R5bGU9InN0cm9rZTojMjIyMjIyO3N0cm9rZS13aWR0aDoxOyIvPjwhLS1saW5rICpzdGFydCogdG8gPz8/Pz8/Pz8/Pz8/Pz8/Pz8/Pz8/Pz8tLT48ZyBjbGFzcz0ibGluayIgZGF0YS1lbnRpdHktMT0iKnN0YXJ0KiIgZGF0YS1lbnRpdHktMj0iJiMxMDU1OyYjMTA4ODsmIzEwODY7JiMxMDg5OyYjMTA4NDsmIzEwODY7JiMxMDkwOyYjMTA4ODsmIzEwNDM7JiMxMDgzOyYjMTA3MjsmIzEwNzQ7JiMxMDg1OyYjMTA4NjsmIzEwODE7JiMxMDU3OyYjMTA5MDsmIzEwODg7JiMxMDcyOyYjMTA4NTsmIzEwODA7JiMxMDk0OyYjMTA5OTsiIGRhdGEtc291cmNlLWxpbmU9IjUiIGRhdGEtdWlkPSJsbms0IiBpZD0ibGlua18qc3RhcnQqXyYjMTA1NTsmIzEwODg7JiMxMDg2OyYjMTA4OTsmIzEwODQ7JiMxMDg2OyYjMTA5MDsmIzEwODg7JiMxMDQzOyYjMTA4MzsmIzEwNzI7JiMxMDc0OyYjMTA4NTsmIzEwODY7JiMxMDgxOyYjMTA1NzsmIzEwOTA7JiMxMDg4OyYjMTA3MjsmIzEwODU7JiMxMDgwOyYjMTA5NDsmIzEwOTk7Ij48cGF0aCBkPSJNOTcuNSwyNi4wMSBDOTcuNSwzOS44OSA5Ny41LDYwLjk3IDk3LjUsODAuODQiIGZpbGw9Im5vbmUiIGlkPSIqc3RhcnQqLXRvLSYjMTA1NTsmIzEwODg7JiMxMDg2OyYjMTA4OTsmIzEwODQ7JiMxMDg2OyYjMTA5MDsmIzEwODg7JiMxMDQzOyYjMTA4MzsmIzEwNzI7JiMxMDc0OyYjMTA4NTsmIzEwODY7JiMxMDgxOyYjMTA1NzsmIzEwOTA7JiMxMDg4OyYjMTA3MjsmIzEwODU7JiMxMDgwOyYjMTA5NDsmIzEwOTk7IiBzdHlsZT0ic3Ryb2tlOiMxODE4MTg7c3Ryb2tlLXdpZHRoOjE7Ii8+PHBvbHlnb24gZmlsbD0iIzE4MTgxOCIgcG9pbnRzPSI5Ny41LDg2Ljg0LDEwMS41LDc3Ljg0LDk3LjUsODEuODQsOTMuNSw3Ny44NCw5Ny41LDg2Ljg0IiBzdHlsZT0ic3Ryb2tlOiMxODE4MTg7c3Ryb2tlLXdpZHRoOjE7Ii8+PC9nPjwhLS1saW5rID8/Pz8/Pz8/Pz8/Pz8/Pz8/Pz8/Pz8/IHRvID8/Pz8/Pz8/Pz8/Pz8/Py0tPjxnIGNsYXNzPSJsaW5rIiBkYXRhLWVudGl0eS0xPSImIzEwNTU7JiMxMDg4OyYjMTA4NjsmIzEwODk7JiMxMDg0OyYjMTA4NjsmIzEwOTA7JiMxMDg4OyYjMTA0MzsmIzEwODM7JiMxMDcyOyYjMTA3NDsmIzEwODU7JiMxMDg2OyYjMTA4MTsmIzEwNTc7JiMxMDkwOyYjMTA4ODsmIzEwNzI7JiMxMDg1OyYjMTA4MDsmIzEwOTQ7JiMxMDk5OyIgZGF0YS1lbnRpdHktMj0iJiMxMDU1OyYjMTA4ODsmIzEwODY7JiMxMDg5OyYjMTA4NDsmIzEwODY7JiMxMDkwOyYjMTA4ODsmIzEwNTg7JiMxMDg2OyYjMTA3NDsmIzEwNzI7JiMxMDg4OyYjMTA4NjsmIzEwNzQ7IiBkYXRhLXNvdXJjZS1saW5lPSI2IiBkYXRhLXVpZD0ibG5rNiIgaWQ9ImxpbmtfJiMxMDU1OyYjMTA4ODsmIzEwODY7JiMxMDg5OyYjMTA4NDsmIzEwODY7JiMxMDkwOyYjMTA4ODsmIzEwNDM7JiMxMDgzOyYjMTA3MjsmIzEwNzQ7JiMxMDg1OyYjMTA4NjsmIzEwODE7JiMxMDU3OyYjMTA5MDsmIzEwODg7JiMxMDcyOyYjMTA4NTsmIzEwODA7JiMxMDk0OyYjMTA5OTtfJiMxMDU1OyYjMTA4ODsmIzEwODY7JiMxMDg5OyYjMTA4NDsmIzEwODY7JiMxMDkwOyYjMTA4ODsmIzEwNTg7JiMxMDg2OyYjMTA3NDsmIzEwNzI7JiMxMDg4OyYjMTA4NjsmIzEwNzQ7Ij48cGF0aCBkPSJNOTcuNSwxMzcuMDEgQzk3LjUsMTU4LjU0IDk3LjUsMTgzLjk5IDk3LjUsMjA1LjYzIiBmaWxsPSJub25lIiBpZD0iJiMxMDU1OyYjMTA4ODsmIzEwODY7JiMxMDg5OyYjMTA4NDsmIzEwODY7JiMxMDkwOyYjMTA4ODsmIzEwNDM7JiMxMDgzOyYjMTA3MjsmIzEwNzQ7JiMxMDg1OyYjMTA4NjsmIzEwODE7JiMxMDU3OyYjMTA5MDsmIzEwODg7JiMxMDcyOyYjMTA4NTsmIzEwODA7JiMxMDk0OyYjMTA5OTstdG8tJiMxMDU1OyYjMTA4ODsmIzEwODY7JiMxMDg5OyYjMTA4NDsmIzEwODY7JiMxMDkwOyYjMTA4ODsmIzEwNTg7JiMxMDg2OyYjMTA3NDsmIzEwNzI7JiMxMDg4OyYjMTA4NjsmIzEwNzQ7IiBzdHlsZT0ic3Ryb2tlOiMxODE4MTg7c3Ryb2tlLXdpZHRoOjE7Ii8+PHBvbHlnb24gZmlsbD0iIzE4MTgxOCIgcG9pbnRzPSI5Ny41LDIxMS42MywxMDEuNSwyMDIuNjMsOTcuNSwyMDYuNjMsOTMuNSwyMDIuNjMsOTcuNSwyMTEuNjMiIHN0eWxlPSJzdHJva2U6IzE4MTgxODtzdHJva2Utd2lkdGg6MTsiLz48dGV4dCBmaWxsPSIjMDAwMDAwIiBmb250LWZhbWlseT0ic2Fucy1zZXJpZiIgZm9udC1zaXplPSIxMyIgbGVuZ3RoQWRqdXN0PSJzcGFjaW5nIiB0ZXh0TGVuZ3RoPSI5Ny41IiB4PSI5OC41IiB5PSIxODAuMjg5MSI+JiMxMDQyOyYjMTA5OTsmIzEwNzM7JiMxMDg2OyYjMTA4ODsgJiMxMDgyOyYjMTA3MjsmIzEwOTA7JiMxMDc3OyYjMTA3NTsmIzEwODY7JiMxMDg4OyYjMTA4MDsmIzEwODA7PC90ZXh0PjwvZz48IS0tbGluayA/Pz8/Pz8/Pz8/Pz8/Pz8gdG8gPz8/Pz8/Pz8/Pz8/Pz8/Pz8/Pz8/LS0+PGcgY2xhc3M9ImxpbmsiIGRhdGEtZW50aXR5LTE9IiYjMTA1NTsmIzEwODg7JiMxMDg2OyYjMTA4OTsmIzEwODQ7JiMxMDg2OyYjMTA5MDsmIzEwODg7JiMxMDU4OyYjMTA4NjsmIzEwNzQ7JiMxMDcyOyYjMTA4ODsmIzEwODY7JiMxMDc0OyIgZGF0YS1lbnRpdHktMj0iJiMxMDU1OyYjMTA4ODsmIzEwODY7JiMxMDg5OyYjMTA4NDsmIzEwODY7JiMxMDkwOyYjMTA4ODsmIzEwNDQ7JiMxMDc3OyYjMTA5MDsmIzEwNzI7JiMxMDgzOyYjMTA3NzsmIzEwODE7JiMxMDU4OyYjMTA4NjsmIzEwNzQ7JiMxMDcyOyYjMTA4ODsmIzEwNzI7IiBkYXRhLXNvdXJjZS1saW5lPSI3IiBkYXRhLXVpZD0ibG5rOCIgaWQ9ImxpbmtfJiMxMDU1OyYjMTA4ODsmIzEwODY7JiMxMDg5OyYjMTA4NDsmIzEwODY7JiMxMDkwOyYjMTA4ODsmIzEwNTg7JiMxMDg2OyYjMTA3NDsmIzEwNzI7JiMxMDg4OyYjMTA4NjsmIzEwNzQ7XyYjMTA1NTsmIzEwODg7JiMxMDg2OyYjMTA4OTsmIzEwODQ7JiMxMDg2OyYjMTA5MDsmIzEwODg7JiMxMDQ0OyYjMTA3NzsmIzEwOTA7JiMxMDcyOyYjMTA4MzsmIzEwNzc7JiMxMDgxOyYjMTA1ODsmIzEwODY7JiMxMDc0OyYjMTA3MjsmIzEwODg7JiMxMDcyOyI+PHBhdGggZD0iTTk3LjUsMjYyLjAxIEM5Ny41LDI4My41NCA5Ny41LDMwOC45OSA5Ny41LDMzMC42MyIgZmlsbD0ibm9uZSIgaWQ9IiYjMTA1NTsmIzEwODg7JiMxMDg2OyYjMTA4OTsmIzEwODQ7JiMxMDg2OyYjMTA5MDsmIzEwODg7JiMxMDU4OyYjMTA4NjsmIzEwNzQ7JiMxMDcyOyYjMTA4ODsmIzEwODY7JiMxMDc0Oy10by0mIzEwNTU7JiMxMDg4OyYjMTA4NjsmIzEwODk7JiMxMDg0OyYjMTA4NjsmIzEwOTA7JiMxMDg4OyYjMTA0NDsmIzEwNzc7JiMxMDkwOyYjMTA3MjsmIzEwODM7JiMxMDc3OyYjMTA4MTsmIzEwNTg7JiMxMDg2OyYjMTA3NDsmIzEwNzI7JiMxMDg4OyYjMTA3MjsiIHN0eWxlPSJzdHJva2U6IzE4MTgxODtzdHJva2Utd2lkdGg6MTsiLz48cG9seWdvbiBmaWxsPSIjMTgxODE4IiBwb2ludHM9Ijk3LjUsMzM2LjYzLDEwMS41LDMyNy42Myw5Ny41LDMzMS42Myw5My41LDMyNy42Myw5Ny41LDMzNi42MyIgc3R5bGU9InN0cm9rZTojMTgxODE4O3N0cm9rZS13aWR0aDoxOyIvPjx0ZXh0IGZpbGw9IiMwMDAwMDAiIGZvbnQtZmFtaWx5PSJzYW5zLXNlcmlmIiBmb250LXNpemU9IjEzIiBsZW5ndGhBZGp1c3Q9InNwYWNpbmciIHRleHRMZW5ndGg9Ijg0LjUiIHg9Ijk4LjUiIHk9IjMwNS4yODkxIj4mIzEwNTA7JiMxMDgzOyYjMTA4MDsmIzEwODI7ICYjMTA4NTsmIzEwNzI7ICYjMTA5MDsmIzEwODY7JiMxMDc0OyYjMTA3MjsmIzEwODg7PC90ZXh0PjwvZz48IS0tbGluayA/Pz8/Pz8/Pz8/Pz8/Pz8/Pz8/Pz8gdG8gPz8/Pz8/Py0tPjxnIGNsYXNzPSJsaW5rIiBkYXRhLWVudGl0eS0xPSImIzEwNTU7JiMxMDg4OyYjMTA4NjsmIzEwODk7JiMxMDg0OyYjMTA4NjsmIzEwOTA7JiMxMDg4OyYjMTA0NDsmIzEwNzc7JiMxMDkwOyYjMTA3MjsmIzEwODM7JiMxMDc3OyYjMTA4MTsmIzEwNTg7JiMxMDg2OyYjMTA3NDsmIzEwNzI7JiMxMDg4OyYjMTA3MjsiIGRhdGEtZW50aXR5LTI9IiYjMTA1MDsmIzEwODY7JiMxMDg4OyYjMTA3OTsmIzEwODA7JiMxMDg1OyYjMTA3MjsiIGRhdGEtc291cmNlLWxpbmU9IjgiIGRhdGEtdWlkPSJsbmsxMCIgaWQ9ImxpbmtfJiMxMDU1OyYjMTA4ODsmIzEwODY7JiMxMDg5OyYjMTA4NDsmIzEwODY7JiMxMDkwOyYjMTA4ODsmIzEwNDQ7JiMxMDc3OyYjMTA5MDsmIzEwNzI7JiMxMDgzOyYjMTA3NzsmIzEwODE7JiMxMDU4OyYjMTA4NjsmIzEwNzQ7JiMxMDcyOyYjMTA4ODsmIzEwNzI7XyYjMTA1MDsmIzEwODY7JiMxMDg4OyYjMTA3OTsmIzEwODA7JiMxMDg1OyYjMTA3MjsiPjxwYXRoIGQ9Ik05Ny41LDM4Ny4wMSBDOTcuNSw0MDguNTQgOTcuNSw0MzMuOTkgOTcuNSw0NTUuNjMiIGZpbGw9Im5vbmUiIGlkPSImIzEwNTU7JiMxMDg4OyYjMTA4NjsmIzEwODk7JiMxMDg0OyYjMTA4NjsmIzEwOTA7JiMxMDg4OyYjMTA0NDsmIzEwNzc7JiMxMDkwOyYjMTA3MjsmIzEwODM7JiMxMDc3OyYjMTA4MTsmIzEwNTg7JiMxMDg2OyYjMTA3NDsmIzEwNzI7JiMxMDg4OyYjMTA3MjstdG8tJiMxMDUwOyYjMTA4NjsmIzEwODg7JiMxMDc5OyYjMTA4MDsmIzEwODU7JiMxMDcyOyIgc3R5bGU9InN0cm9rZTojMTgxODE4O3N0cm9rZS13aWR0aDoxOyIvPjxwb2x5Z29uIGZpbGw9IiMxODE4MTgiIHBvaW50cz0iOTcuNSw0NjEuNjMsMTAxLjUsNDUyLjYzLDk3LjUsNDU2LjYzLDkzLjUsNDUyLjYzLDk3LjUsNDYxLjYzIiBzdHlsZT0ic3Ryb2tlOiMxODE4MTg7c3Ryb2tlLXdpZHRoOjE7Ii8+PHRleHQgZmlsbD0iIzAwMDAwMCIgZm9udC1mYW1pbHk9InNhbnMtc2VyaWYiIGZvbnQtc2l6ZT0iMTMiIGxlbmd0aEFkanVzdD0ic3BhY2luZyIgdGV4dExlbmd0aD0iMTE3IiB4PSI5OC41IiB5PSI0MzAuMjg5MSI+JiMxMDQ0OyYjMTA4NjsmIzEwNzM7JiMxMDcyOyYjMTA3NDsmIzEwODA7JiMxMDkwOyYjMTEwMDsgJiMxMDc0OyAmIzEwODI7JiMxMDg2OyYjMTA4ODsmIzEwNzk7JiMxMDgwOyYjMTA4NTsmIzEwOTE7PC90ZXh0PjwvZz48IS0tbGluayA/Pz8/Pz8/IHRvID8/Pz8/Pz8/Pz8/Pz8/Pz8tLT48ZyBjbGFzcz0ibGluayIgZGF0YS1lbnRpdHktMT0iJiMxMDUwOyYjMTA4NjsmIzEwODg7JiMxMDc5OyYjMTA4MDsmIzEwODU7JiMxMDcyOyIgZGF0YS1lbnRpdHktMj0iJiMxMDU0OyYjMTA5MjsmIzEwODY7JiMxMDg4OyYjMTA4NDsmIzEwODM7JiMxMDc3OyYjMTA4NTsmIzEwODA7JiMxMDc3OyYjMTA0NzsmIzEwNzI7JiMxMDgyOyYjMTA3MjsmIzEwNzk7JiMxMDcyOyIgZGF0YS1zb3VyY2UtbGluZT0iOSIgZGF0YS11aWQ9ImxuazEyIiBpZD0ibGlua18mIzEwNTA7JiMxMDg2OyYjMTA4ODsmIzEwNzk7JiMxMDgwOyYjMTA4NTsmIzEwNzI7XyYjMTA1NDsmIzEwOTI7JiMxMDg2OyYjMTA4ODsmIzEwODQ7JiMxMDgzOyYjMTA3NzsmIzEwODU7JiMxMDgwOyYjMTA3NzsmIzEwNDc7JiMxMDcyOyYjMTA4MjsmIzEwNzI7JiMxMDc5OyYjMTA3MjsiPjxwYXRoIGQ9Ik05Ny41LDUxMi4wMSBDOTcuNSw1MzMuNTQgOTcuNSw1NTguOTkgOTcuNSw1ODAuNjMiIGZpbGw9Im5vbmUiIGlkPSImIzEwNTA7JiMxMDg2OyYjMTA4ODsmIzEwNzk7JiMxMDgwOyYjMTA4NTsmIzEwNzI7LXRvLSYjMTA1NDsmIzEwOTI7JiMxMDg2OyYjMTA4ODsmIzEwODQ7JiMxMDgzOyYjMTA3NzsmIzEwODU7JiMxMDgwOyYjMTA3NzsmIzEwNDc7JiMxMDcyOyYjMTA4MjsmIzEwNzI7JiMxMDc5OyYjMTA3MjsiIHN0eWxlPSJzdHJva2U6IzE4MTgxODtzdHJva2Utd2lkdGg6MTsiLz48cG9seWdvbiBmaWxsPSIjMTgxODE4IiBwb2ludHM9Ijk3LjUsNTg2LjYzLDEwMS41LDU3Ny42Myw5Ny41LDU4MS42Myw5My41LDU3Ny42Myw5Ny41LDU4Ni42MyIgc3R5bGU9InN0cm9rZTojMTgxODE4O3N0cm9rZS13aWR0aDoxOyIvPjx0ZXh0IGZpbGw9IiMwMDAwMDAiIGZvbnQtZmFtaWx5PSJzYW5zLXNlcmlmIiBmb250LXNpemU9IjEzIiBsZW5ndGhBZGp1c3Q9InNwYWNpbmciIHRleHRMZW5ndGg9IjEzMCIgeD0iOTguNSIgeT0iNTU1LjI4OTEiPiYjMTA1NTsmIzEwNzc7JiMxMDg4OyYjMTA3NzsmIzEwODE7JiMxMDkwOyYjMTA4MDsgJiMxMDgyOyAmIzEwODY7JiMxMDkyOyYjMTA4NjsmIzEwODg7JiMxMDg0OyYjMTA4MzsmIzEwNzc7JiMxMDg1OyYjMTA4MDsmIzExMDI7PC90ZXh0PjwvZz48IS0tbGluayA/Pz8/Pz8/Pz8/Pz8/Pz8/IHRvID8/Pz8/Py0tPjxnIGNsYXNzPSJsaW5rIiBkYXRhLWVudGl0eS0xPSImIzEwNTQ7JiMxMDkyOyYjMTA4NjsmIzEwODg7JiMxMDg0OyYjMTA4MzsmIzEwNzc7JiMxMDg1OyYjMTA4MDsmIzEwNzc7JiMxMDQ3OyYjMTA3MjsmIzEwODI7JiMxMDcyOyYjMTA3OTsmIzEwNzI7IiBkYXRhLWVudGl0eS0yPSImIzEwNTQ7JiMxMDg3OyYjMTA4MzsmIzEwNzI7JiMxMDkwOyYjMTA3MjsiIGRhdGEtc291cmNlLWxpbmU9IjEwIiBkYXRhLXVpZD0ibG5rMTQiIGlkPSJsaW5rXyYjMTA1NDsmIzEwOTI7JiMxMDg2OyYjMTA4ODsmIzEwODQ7JiMxMDgzOyYjMTA3NzsmIzEwODU7JiMxMDgwOyYjMTA3NzsmIzEwNDc7JiMxMDcyOyYjMTA4MjsmIzEwNzI7JiMxMDc5OyYjMTA3MjtfJiMxMDU0OyYjMTA4NzsmIzEwODM7JiMxMDcyOyYjMTA5MDsmIzEwNzI7Ij48cGF0aCBkPSJNOTcuNSw2MzcuMDEgQzk3LjUsNjU4LjU0IDk3LjUsNjgzLjk5IDk3LjUsNzA1LjYzIiBmaWxsPSJub25lIiBpZD0iJiMxMDU0OyYjMTA5MjsmIzEwODY7JiMxMDg4OyYjMTA4NDsmIzEwODM7JiMxMDc3OyYjMTA4NTsmIzEwODA7JiMxMDc3OyYjMTA0NzsmIzEwNzI7JiMxMDgyOyYjMTA3MjsmIzEwNzk7JiMxMDcyOy10by0mIzEwNTQ7JiMxMDg3OyYjMTA4MzsmIzEwNzI7JiMxMDkwOyYjMTA3MjsiIHN0eWxlPSJzdHJva2U6IzE4MTgxODtzdHJva2Utd2lkdGg6MTsiLz48cG9seWdvbiBmaWxsPSIjMTgxODE4IiBwb2ludHM9Ijk3LjUsNzExLjYzLDEwMS41LDcwMi42Myw5Ny41LDcwNi42Myw5My41LDcwMi42Myw5Ny41LDcxMS42MyIgc3R5bGU9InN0cm9rZTojMTgxODE4O3N0cm9rZS13aWR0aDoxOyIvPjx0ZXh0IGZpbGw9IiMwMDAwMDAiIGZvbnQtZmFtaWx5PSJzYW5zLXNlcmlmIiBmb250LXNpemU9IjEzIiBsZW5ndGhBZGp1c3Q9InNwYWNpbmciIHRleHRMZW5ndGg9IjExMC41IiB4PSI5OC41IiB5PSI2ODAuMjg5MSI+JiMxMDU1OyYjMTA4NjsmIzEwNzY7JiMxMDkwOyYjMTA3NDsmIzEwNzc7JiMxMDg4OyYjMTA3NjsmIzEwODA7JiMxMDkwOyYjMTEwMDsgJiMxMDc5OyYjMTA3MjsmIzEwODI7JiMxMDcyOyYjMTA3OTs8L3RleHQ+PC9nPjwhLS1saW5rID8/Pz8/PyB0byA/Pz8/Pz8/Pz8/Pz8/Pz8/Pz8/LS0+PGcgY2xhc3M9ImxpbmsiIGRhdGEtZW50aXR5LTE9IiYjMTA1NDsmIzEwODc7JiMxMDgzOyYjMTA3MjsmIzEwOTA7JiMxMDcyOyIgZGF0YS1lbnRpdHktMj0iJiMxMDU1OyYjMTA4NjsmIzEwNzY7JiMxMDkwOyYjMTA3NDsmIzEwNzc7JiMxMDg4OyYjMTA3ODsmIzEwNzY7JiMxMDc3OyYjMTA4NTsmIzEwODA7JiMxMDc3OyYjMTA0NzsmIzEwNzI7JiMxMDgyOyYjMTA3MjsmIzEwNzk7JiMxMDcyOyIgZGF0YS1zb3VyY2UtbGluZT0iMTEiIGRhdGEtdWlkPSJsbmsxNiIgaWQ9ImxpbmtfJiMxMDU0OyYjMTA4NzsmIzEwODM7JiMxMDcyOyYjMTA5MDsmIzEwNzI7XyYjMTA1NTsmIzEwODY7JiMxMDc2OyYjMTA5MDsmIzEwNzQ7JiMxMDc3OyYjMTA4ODsmIzEwNzg7JiMxMDc2OyYjMTA3NzsmIzEwODU7JiMxMDgwOyYjMTA3NzsmIzEwNDc7JiMxMDcyOyYjMTA4MjsmIzEwNzI7JiMxMDc5OyYjMTA3MjsiPjxwYXRoIGQ9Ik05Ny41LDc2Mi4wMSBDOTcuNSw3ODMuNTQgOTcuNSw4MDguOTkgOTcuNSw4MzAuNjMiIGZpbGw9Im5vbmUiIGlkPSImIzEwNTQ7JiMxMDg3OyYjMTA4MzsmIzEwNzI7JiMxMDkwOyYjMTA3MjstdG8tJiMxMDU1OyYjMTA4NjsmIzEwNzY7JiMxMDkwOyYjMTA3NDsmIzEwNzc7JiMxMDg4OyYjMTA3ODsmIzEwNzY7JiMxMDc3OyYjMTA4NTsmIzEwODA7JiMxMDc3OyYjMTA0NzsmIzEwNzI7JiMxMDgyOyYjMTA3MjsmIzEwNzk7JiMxMDcyOyIgc3R5bGU9InN0cm9rZTojMTgxODE4O3N0cm9rZS13aWR0aDoxOyIvPjxwb2x5Z29uIGZpbGw9IiMxODE4MTgiIHBvaW50cz0iOTcuNSw4MzYuNjMsMTAxLjUsODI3LjYzLDk3LjUsODMxLjYzLDkzLjUsODI3LjYzLDk3LjUsODM2LjYzIiBzdHlsZT0ic3Ryb2tlOiMxODE4MTg7c3Ryb2tlLXdpZHRoOjE7Ii8+PHRleHQgZmlsbD0iIzAwMDAwMCIgZm9udC1mYW1pbHk9InNhbnMtc2VyaWYiIGZvbnQtc2l6ZT0iMTMiIGxlbmd0aEFkanVzdD0ic3BhY2luZyIgdGV4dExlbmd0aD0iOTcuNSIgeD0iOTguNSIgeT0iODA1LjI4OTEiPiYjMTA1OTsmIzEwODk7JiMxMDg3OyYjMTA3NzsmIzEwOTY7JiMxMDg1OyYjMTA3MjsmIzExMDM7ICYjMTA4NjsmIzEwODc7JiMxMDgzOyYjMTA3MjsmIzEwOTA7JiMxMDcyOzwvdGV4dD48L2c+PCEtLWxpbmsgPz8/Pz8/Pz8/Pz8/Pz8/Pz8/PyB0byAqZW5kKi0tPjxnIGNsYXNzPSJsaW5rIiBkYXRhLWVudGl0eS0xPSImIzEwNTU7JiMxMDg2OyYjMTA3NjsmIzEwOTA7JiMxMDc0OyYjMTA3NzsmIzEwODg7JiMxMDc4OyYjMTA3NjsmIzEwNzc7JiMxMDg1OyYjMTA4MDsmIzEwNzc7JiMxMDQ3OyYjMTA3MjsmIzEwODI7JiMxMDcyOyYjMTA3OTsmIzEwNzI7IiBkYXRhLWVudGl0eS0yPSIqZW5kKiIgZGF0YS1zb3VyY2UtbGluZT0iMTIiIGRhdGEtdWlkPSJsbmsxOCIgaWQ9ImxpbmtfJiMxMDU1OyYjMTA4NjsmIzEwNzY7JiMxMDkwOyYjMTA3NDsmIzEwNzc7JiMxMDg4OyYjMTA3ODsmIzEwNzY7JiMxMDc3OyYjMTA4NTsmIzEwODA7JiMxMDc3OyYjMTA0NzsmIzEwNzI7JiMxMDgyOyYjMTA3MjsmIzEwNzk7JiMxMDcyO18qZW5kKiI+PHBhdGggZD0iTTk3LjUsODg3LjQ2IEM5Ny41LDkwNy4wNCA5Ny41LDkyNy40OSA5Ny41LDk0MS44IiBmaWxsPSJub25lIiBpZD0iJiMxMDU1OyYjMTA4NjsmIzEwNzY7JiMxMDkwOyYjMTA3NDsmIzEwNzc7JiMxMDg4OyYjMTA3ODsmIzEwNzY7JiMxMDc3OyYjMTA4NTsmIzEwODA7JiMxMDc3OyYjMTA0NzsmIzEwNzI7JiMxMDgyOyYjMTA3MjsmIzEwNzk7JiMxMDcyOy10by0qZW5kKiIgc3R5bGU9InN0cm9rZTojMTgxODE4O3N0cm9rZS13aWR0aDoxOyIvPjxwb2x5Z29uIGZpbGw9IiMxODE4MTgiIHBvaW50cz0iOTcuNSw5NDcuOCwxMDEuNSw5MzguOCw5Ny41LDk0Mi44LDkzLjUsOTM4LjgsOTcuNSw5NDcuOCIgc3R5bGU9InN0cm9rZTojMTgxODE4O3N0cm9rZS13aWR0aDoxOyIvPjwvZz48IS0tU1JDPVtiTDh6Slc5MTVFeGQ1Qy1BbjhHQk01WFBNN1czT3A2OUFzdVloNWRNR2dpTFpKNzFRQThhOVhHSXpHQjNvaWc4aTVwWHBPdHlQYU9XNDBwSUpFUXotVnhVc290SFJYSTc1cjRqYUlUS0pzR0lxNjRlQXg2aVlldEpNNVFnYWV3ZFczcnY3ZnFiR2ZIZTlwV0FRdTRkckNOLXZXNkxvemw0N1BEb09JdnZZQkUxLW5EX2ktQUNIcnBtNXgtd2RhQWJwT3JmWWxOV29udFUwQ3JPc0l2ZGo0TnlROWhTbk1EQUY0Ml9tSmJfczk4clF4NjJsaklYbkpiSzVBQmIyM0taQUVsTUhibHBXMTFJNE0yX1pzOEQ1TVZRVFg3eHExZnZ1SE9HTlJTQzNWdVQ4SHRjY09CQ2JMWldFOWFOUy1zUUctVTNuVTV5WFdlczBRMEp4WTE4UWFDV1pZT1JsTFdhY05rbktpZFJ5VFgtQ0prT2Jvd3VYbzlwNWhyOXlsdzQ5a084VmpicGI0LUdfZVp6WmJzRTBSZ3JtdmU3Zjl2OVlOX0FNNFZ5Z1p5MF0tLT48L2c+PC9zdmc+;" vertex="1" parent="1">
            <mxGeometry x="1062" y="2775" width="236" height="976" as="geometry" />
          </mxCell>
        </UserObject>
        <mxCell id="r7MdP9-WpG419sBYxyx1-5" value="Просмотр Главной Страницы" style="swimlane;fontStyle=1;align=center;verticalAlign=middle;childLayout=stackLayout;horizontal=1;startSize=30;horizontalStack=0;resizeParent=0;resizeLast=1;container=0;collapsible=0;rounded=1;arcSize=30;swimlaneFillColor=none;dropTarget=0;" vertex="1" parent="1">
          <mxGeometry x="-632" y="3847" width="196" height="83" as="geometry" />
        </mxCell>
        <mxCell id="r7MdP9-WpG419sBYxyx1-8" value="Просмотр Деталей Товара" style="swimlane;fontStyle=1;align=center;verticalAlign=middle;childLayout=stackLayout;horizontal=1;startSize=30;horizontalStack=0;resizeParent=0;resizeLast=1;container=0;collapsible=0;rounded=1;arcSize=30;swimlaneFillColor=none;dropTarget=0;" vertex="1" parent="1">
          <mxGeometry x="-132" y="3847" width="196" height="83" as="geometry" />
        </mxCell>
        <mxCell id="r7MdP9-WpG419sBYxyx1-10" value="Просмотр Товаров" style="swimlane;fontStyle=1;align=center;verticalAlign=middle;childLayout=stackLayout;horizontal=1;startSize=30;horizontalStack=0;resizeParent=0;resizeLast=1;container=0;collapsible=0;rounded=1;arcSize=30;swimlaneFillColor=none;dropTarget=0;" vertex="1" parent="1">
          <mxGeometry x="-381" y="3847" width="196" height="83" as="geometry" />
        </mxCell>
        <mxCell id="r7MdP9-WpG419sBYxyx1-12" value="Корзина" style="swimlane;fontStyle=1;align=center;verticalAlign=middle;childLayout=stackLayout;horizontal=1;startSize=30;horizontalStack=0;resizeParent=0;resizeLast=1;container=0;collapsible=0;rounded=1;arcSize=30;swimlaneFillColor=none;dropTarget=0;" vertex="1" parent="1">
          <mxGeometry x="118" y="3847" width="196" height="83" as="geometry" />
        </mxCell>
        <mxCell id="r7MdP9-WpG419sBYxyx1-14" value="Подтверждение Заказа" style="swimlane;fontStyle=1;align=center;verticalAlign=middle;childLayout=stackLayout;horizontal=1;startSize=30;horizontalStack=0;resizeParent=0;resizeLast=1;container=0;collapsible=0;rounded=1;arcSize=30;swimlaneFillColor=none;dropTarget=0;" vertex="1" parent="1">
          <mxGeometry x="847" y="3847" width="196" height="83" as="geometry" />
        </mxCell>
        <mxCell id="r7MdP9-WpG419sBYxyx1-16" value="Оформление Заказа" style="swimlane;fontStyle=1;align=center;verticalAlign=middle;childLayout=stackLayout;horizontal=1;startSize=30;horizontalStack=0;resizeParent=0;resizeLast=1;container=0;collapsible=0;rounded=1;arcSize=30;swimlaneFillColor=none;dropTarget=0;" vertex="1" parent="1">
          <mxGeometry x="365" y="3847" width="196" height="83" as="geometry" />
        </mxCell>
        <mxCell id="r7MdP9-WpG419sBYxyx1-18" value="Оплата" style="swimlane;fontStyle=1;align=center;verticalAlign=middle;childLayout=stackLayout;horizontal=1;startSize=30;horizontalStack=0;resizeParent=0;resizeLast=1;container=0;collapsible=0;rounded=1;arcSize=30;swimlaneFillColor=none;dropTarget=0;" vertex="1" parent="1">
          <mxGeometry x="609" y="3847" width="196" height="83" as="geometry" />
        </mxCell>
        <mxCell id="r7MdP9-WpG419sBYxyx1-20" value="" style="edgeStyle=orthogonalEdgeStyle;html=1;verticalAlign=bottom;endArrow=open;rounded=0;entryX=0;entryY=0.5;entryDx=0;entryDy=0;exitX=1;exitY=0.5;exitDx=0;exitDy=0;" edge="1" parent="1" source="r7MdP9-WpG419sBYxyx1-5" target="r7MdP9-WpG419sBYxyx1-10">
          <mxGeometry relative="1" as="geometry">
            <mxPoint x="-413" y="4015" as="targetPoint" />
            <mxPoint x="-413" y="3957" as="sourcePoint" />
          </mxGeometry>
        </mxCell>
        <mxCell id="r7MdP9-WpG419sBYxyx1-26" value="" style="ellipse;html=1;shape=endState;fillColor=#000000;strokeColor=#000000;" vertex="1" parent="1">
          <mxGeometry x="1105" y="3873.5" width="30" height="30" as="geometry" />
        </mxCell>
        <mxCell id="r7MdP9-WpG419sBYxyx1-27" value="&lt;div&gt;&lt;font face=&quot;__styreneB_820c23, __styreneB_Fallback_820c23, ui-sans-serif, system-ui, -apple-system, BlinkMacSystemFont, Segoe UI, Roboto, Helvetica Neue, Arial, Noto Sans, sans-serif, Apple Color Emoji, Segoe UI Emoji, Segoe UI Symbol, Noto Color Emoji&quot; color=&quot;#141413&quot;&gt;&lt;span style=&quot;font-size: 19px; letter-spacing: -0.4px; white-space-collapse: preserve; background-color: rgb(240, 238, 230);&quot;&gt;&#39;&lt;/span&gt;&lt;span style=&quot;font-size: 19px; letter-spacing: -0.4px; white-space-collapse: preserve; background-color: light-dark(#ffffff, var(--ge-dark-color, #121212));&quot;&gt;Диаграмма состояний&lt;/span&gt;&lt;/font&gt;&lt;/div&gt;&lt;div&gt;&lt;font face=&quot;__styreneB_820c23, __styreneB_Fallback_820c23, ui-sans-serif, system-ui, -apple-system, BlinkMacSystemFont, Segoe UI, Roboto, Helvetica Neue, Arial, Noto Sans, sans-serif, Apple Color Emoji, Segoe UI Emoji, Segoe UI Symbol, Noto Color Emoji&quot; color=&quot;#141413&quot;&gt;&lt;span style=&quot;font-size: 19px; letter-spacing: -0.4px; white-space-collapse: preserve; background-color: light-dark(#ffffff, var(--ge-dark-color, #121212));&quot;&gt;[] --&amp;gt; ПросмотрГлавнойСтраницы&lt;/span&gt;&lt;/font&gt;&lt;/div&gt;&lt;div&gt;&lt;font face=&quot;__styreneB_820c23, __styreneB_Fallback_820c23, ui-sans-serif, system-ui, -apple-system, BlinkMacSystemFont, Segoe UI, Roboto, Helvetica Neue, Arial, Noto Sans, sans-serif, Apple Color Emoji, Segoe UI Emoji, Segoe UI Symbol, Noto Color Emoji&quot; color=&quot;#141413&quot;&gt;&lt;span style=&quot;font-size: 19px; letter-spacing: -0.4px; white-space-collapse: preserve; background-color: light-dark(#ffffff, var(--ge-dark-color, #121212));&quot;&gt;ПросмотрГлавнойСтраницы --&amp;gt; ПросмотрТоваров : Выбор категории&lt;/span&gt;&lt;/font&gt;&lt;/div&gt;&lt;div&gt;&lt;font face=&quot;__styreneB_820c23, __styreneB_Fallback_820c23, ui-sans-serif, system-ui, -apple-system, BlinkMacSystemFont, Segoe UI, Roboto, Helvetica Neue, Arial, Noto Sans, sans-serif, Apple Color Emoji, Segoe UI Emoji, Segoe UI Symbol, Noto Color Emoji&quot; color=&quot;#141413&quot;&gt;&lt;span style=&quot;font-size: 19px; letter-spacing: -0.4px; white-space-collapse: preserve; background-color: light-dark(#ffffff, var(--ge-dark-color, #121212));&quot;&gt;ПросмотрТоваров --&amp;gt; ПросмотрДеталейТовара : Клик на товар&lt;/span&gt;&lt;/font&gt;&lt;/div&gt;&lt;div&gt;&lt;font face=&quot;__styreneB_820c23, __styreneB_Fallback_820c23, ui-sans-serif, system-ui, -apple-system, BlinkMacSystemFont, Segoe UI, Roboto, Helvetica Neue, Arial, Noto Sans, sans-serif, Apple Color Emoji, Segoe UI Emoji, Segoe UI Symbol, Noto Color Emoji&quot; color=&quot;#141413&quot;&gt;&lt;span style=&quot;font-size: 19px; letter-spacing: -0.4px; white-space-collapse: preserve; background-color: light-dark(#ffffff, var(--ge-dark-color, #121212));&quot;&gt;ПросмотрДеталейТовара --&amp;gt; Корзина : Добавить в корзину&lt;/span&gt;&lt;/font&gt;&lt;/div&gt;&lt;div&gt;&lt;font face=&quot;__styreneB_820c23, __styreneB_Fallback_820c23, ui-sans-serif, system-ui, -apple-system, BlinkMacSystemFont, Segoe UI, Roboto, Helvetica Neue, Arial, Noto Sans, sans-serif, Apple Color Emoji, Segoe UI Emoji, Segoe UI Symbol, Noto Color Emoji&quot; color=&quot;#141413&quot;&gt;&lt;span style=&quot;font-size: 19px; letter-spacing: -0.4px; white-space-collapse: preserve; background-color: light-dark(#ffffff, var(--ge-dark-color, #121212));&quot;&gt;Корзина --&amp;gt; ОформлениеЗаказа : Перейти к оформлению&lt;/span&gt;&lt;/font&gt;&lt;/div&gt;&lt;div&gt;&lt;font face=&quot;__styreneB_820c23, __styreneB_Fallback_820c23, ui-sans-serif, system-ui, -apple-system, BlinkMacSystemFont, Segoe UI, Roboto, Helvetica Neue, Arial, Noto Sans, sans-serif, Apple Color Emoji, Segoe UI Emoji, Segoe UI Symbol, Noto Color Emoji&quot; color=&quot;#141413&quot;&gt;&lt;span style=&quot;font-size: 19px; letter-spacing: -0.4px; white-space-collapse: preserve; background-color: light-dark(#ffffff, var(--ge-dark-color, #121212));&quot;&gt;ОформлениеЗаказа --&amp;gt; Оплата : Подтвердить заказ&lt;/span&gt;&lt;/font&gt;&lt;/div&gt;&lt;div&gt;&lt;font face=&quot;__styreneB_820c23, __styreneB_Fallback_820c23, ui-sans-serif, system-ui, -apple-system, BlinkMacSystemFont, Segoe UI, Roboto, Helvetica Neue, Arial, Noto Sans, sans-serif, Apple Color Emoji, Segoe UI Emoji, Segoe UI Symbol, Noto Color Emoji&quot; color=&quot;#141413&quot;&gt;&lt;span style=&quot;font-size: 19px; letter-spacing: -0.4px; white-space-collapse: preserve; background-color: light-dark(#ffffff, var(--ge-dark-color, #121212));&quot;&gt;Оплата --&amp;gt; ПодтверждениеЗаказа : Успешная оплата&lt;/span&gt;&lt;/font&gt;&lt;/div&gt;&lt;div&gt;&lt;font face=&quot;__styreneB_820c23, __styreneB_Fallback_820c23, ui-sans-serif, system-ui, -apple-system, BlinkMacSystemFont, Segoe UI, Roboto, Helvetica Neue, Arial, Noto Sans, sans-serif, Apple Color Emoji, Segoe UI Emoji, Segoe UI Symbol, Noto Color Emoji&quot; color=&quot;#141413&quot;&gt;&lt;span style=&quot;font-size: 19px; letter-spacing: -0.4px; white-space-collapse: preserve; background-color: light-dark(#ffffff, var(--ge-dark-color, #121212));&quot;&gt;ПодтверждениеЗаказа --&amp;gt; []&lt;/span&gt;&lt;/font&gt;&lt;/div&gt;" style="text;whiteSpace=wrap;html=1;" vertex="1" parent="1">
          <mxGeometry x="-284" y="3165" width="610" height="374" as="geometry" />
        </mxCell>
        <mxCell id="r7MdP9-WpG419sBYxyx1-28" value="" style="edgeStyle=orthogonalEdgeStyle;html=1;verticalAlign=bottom;endArrow=open;rounded=0;entryX=0;entryY=0.5;entryDx=0;entryDy=0;exitX=1;exitY=0.5;exitDx=0;exitDy=0;" edge="1" parent="1" source="r7MdP9-WpG419sBYxyx1-10" target="r7MdP9-WpG419sBYxyx1-8">
          <mxGeometry relative="1" as="geometry">
            <mxPoint x="-109" y="3906" as="targetPoint" />
            <mxPoint x="-164" y="3906" as="sourcePoint" />
          </mxGeometry>
        </mxCell>
        <mxCell id="r7MdP9-WpG419sBYxyx1-29" value="" style="edgeStyle=orthogonalEdgeStyle;html=1;verticalAlign=bottom;endArrow=open;rounded=0;exitX=1;exitY=0.5;exitDx=0;exitDy=0;entryX=0;entryY=0.5;entryDx=0;entryDy=0;" edge="1" parent="1" source="r7MdP9-WpG419sBYxyx1-8" target="r7MdP9-WpG419sBYxyx1-12">
          <mxGeometry relative="1" as="geometry">
            <mxPoint x="94" y="3863" as="targetPoint" />
            <mxPoint x="82" y="3988" as="sourcePoint" />
          </mxGeometry>
        </mxCell>
        <mxCell id="r7MdP9-WpG419sBYxyx1-30" value="" style="edgeStyle=orthogonalEdgeStyle;html=1;verticalAlign=bottom;endArrow=open;rounded=0;entryX=0;entryY=0.5;entryDx=0;entryDy=0;exitX=1;exitY=0.5;exitDx=0;exitDy=0;" edge="1" parent="1" source="r7MdP9-WpG419sBYxyx1-12" target="r7MdP9-WpG419sBYxyx1-16">
          <mxGeometry relative="1" as="geometry">
            <mxPoint x="236" y="4046" as="targetPoint" />
            <mxPoint x="169" y="3996" as="sourcePoint" />
          </mxGeometry>
        </mxCell>
        <mxCell id="r7MdP9-WpG419sBYxyx1-31" value="" style="edgeStyle=orthogonalEdgeStyle;html=1;verticalAlign=bottom;endArrow=open;rounded=0;entryX=0;entryY=0.5;entryDx=0;entryDy=0;exitX=1;exitY=0.5;exitDx=0;exitDy=0;" edge="1" parent="1" source="r7MdP9-WpG419sBYxyx1-16" target="r7MdP9-WpG419sBYxyx1-18">
          <mxGeometry relative="1" as="geometry">
            <mxPoint x="503" y="4005" as="targetPoint" />
            <mxPoint x="448" y="4005" as="sourcePoint" />
          </mxGeometry>
        </mxCell>
        <mxCell id="r7MdP9-WpG419sBYxyx1-32" value="" style="edgeStyle=orthogonalEdgeStyle;html=1;verticalAlign=bottom;endArrow=open;rounded=0;entryX=0;entryY=0.5;entryDx=0;entryDy=0;exitX=1;exitY=0.5;exitDx=0;exitDy=0;" edge="1" parent="1" source="r7MdP9-WpG419sBYxyx1-18" target="r7MdP9-WpG419sBYxyx1-14">
          <mxGeometry relative="1" as="geometry">
            <mxPoint x="603" y="3984" as="targetPoint" />
            <mxPoint x="548" y="3984" as="sourcePoint" />
          </mxGeometry>
        </mxCell>
        <mxCell id="r7MdP9-WpG419sBYxyx1-34" value="" style="edgeStyle=orthogonalEdgeStyle;html=1;verticalAlign=bottom;endArrow=open;strokeColor=#000000;rounded=0;entryX=0;entryY=0.5;entryDx=0;entryDy=0;exitX=1;exitY=0.5;exitDx=0;exitDy=0;" edge="1" parent="1" source="r7MdP9-WpG419sBYxyx1-14" target="r7MdP9-WpG419sBYxyx1-26">
          <mxGeometry relative="1" as="geometry">
            <mxPoint x="968" y="4060" as="targetPoint" />
            <mxPoint x="913" y="4060" as="sourcePoint" />
          </mxGeometry>
        </mxCell>
        <mxCell id="r7MdP9-WpG419sBYxyx1-35" value="" style="ellipse;html=1;shape=startState;fillColor=#000000;strokeColor=#000000;" vertex="1" parent="1">
          <mxGeometry x="-747" y="3874" width="30" height="30" as="geometry" />
        </mxCell>
        <mxCell id="r7MdP9-WpG419sBYxyx1-36" value="" style="edgeStyle=orthogonalEdgeStyle;html=1;verticalAlign=bottom;endArrow=open;endSize=8;strokeColor=#000000;rounded=0;entryX=0;entryY=0.5;entryDx=0;entryDy=0;" edge="1" source="r7MdP9-WpG419sBYxyx1-35" parent="1" target="r7MdP9-WpG419sBYxyx1-5">
          <mxGeometry relative="1" as="geometry">
            <mxPoint x="-732" y="3964" as="targetPoint" />
          </mxGeometry>
        </mxCell>
        <mxCell id="r7MdP9-WpG419sBYxyx1-37" value="&lt;span style=&quot;color: rgb(20, 20, 19); font-family: __styreneB_820c23, __styreneB_Fallback_820c23, ui-sans-serif, system-ui, -apple-system, BlinkMacSystemFont, &amp;quot;Segoe UI&amp;quot;, Roboto, &amp;quot;Helvetica Neue&amp;quot;, Arial, &amp;quot;Noto Sans&amp;quot;, sans-serif, &amp;quot;Apple Color Emoji&amp;quot;, &amp;quot;Segoe UI Emoji&amp;quot;, &amp;quot;Segoe UI Symbol&amp;quot;, &amp;quot;Noto Color Emoji&amp;quot;; font-size: 19px; font-style: normal; font-variant-ligatures: normal; font-variant-caps: normal; font-weight: 400; letter-spacing: -0.4px; orphans: 2; text-align: left; text-indent: 0px; text-transform: none; widows: 2; word-spacing: 0px; -webkit-text-stroke-width: 0px; white-space: pre-wrap; background-color: rgb(255, 255, 255); text-decoration-thickness: initial; text-decoration-style: initial; text-decoration-color: initial; display: inline !important; float: none;&quot;&gt;Выбор категории&lt;/span&gt;" style="text;whiteSpace=wrap;html=1;" vertex="1" parent="1">
          <mxGeometry x="-470.99735064338245" y="3799.0024333639703" width="187" height="45" as="geometry" />
        </mxCell>
        <mxCell id="r7MdP9-WpG419sBYxyx1-38" value="&lt;span style=&quot;color: rgb(20, 20, 19); font-family: __styreneB_820c23, __styreneB_Fallback_820c23, ui-sans-serif, system-ui, -apple-system, BlinkMacSystemFont, &amp;quot;Segoe UI&amp;quot;, Roboto, &amp;quot;Helvetica Neue&amp;quot;, Arial, &amp;quot;Noto Sans&amp;quot;, sans-serif, &amp;quot;Apple Color Emoji&amp;quot;, &amp;quot;Segoe UI Emoji&amp;quot;, &amp;quot;Segoe UI Symbol&amp;quot;, &amp;quot;Noto Color Emoji&amp;quot;; font-size: 19px; font-style: normal; font-variant-ligatures: normal; font-variant-caps: normal; font-weight: 400; letter-spacing: -0.4px; orphans: 2; text-align: left; text-indent: 0px; text-transform: none; widows: 2; word-spacing: 0px; -webkit-text-stroke-width: 0px; white-space: pre-wrap; background-color: rgb(255, 255, 255); text-decoration-thickness: initial; text-decoration-style: initial; text-decoration-color: initial; display: inline !important; float: none;&quot;&gt;Клик на товар&lt;/span&gt;" style="text;whiteSpace=wrap;html=1;" vertex="1" parent="1">
          <mxGeometry x="-212.00205652573513" y="3799.0018451286765" width="156" height="45" as="geometry" />
        </mxCell>
        <mxCell id="r7MdP9-WpG419sBYxyx1-39" value="&lt;span style=&quot;color: rgb(20, 20, 19); font-family: __styreneB_820c23, __styreneB_Fallback_820c23, ui-sans-serif, system-ui, -apple-system, BlinkMacSystemFont, &amp;quot;Segoe UI&amp;quot;, Roboto, &amp;quot;Helvetica Neue&amp;quot;, Arial, &amp;quot;Noto Sans&amp;quot;, sans-serif, &amp;quot;Apple Color Emoji&amp;quot;, &amp;quot;Segoe UI Emoji&amp;quot;, &amp;quot;Segoe UI Symbol&amp;quot;, &amp;quot;Noto Color Emoji&amp;quot;; font-size: 19px; font-style: normal; font-variant-ligatures: normal; font-variant-caps: normal; font-weight: 400; letter-spacing: -0.4px; orphans: 2; text-align: left; text-indent: 0px; text-transform: none; widows: 2; word-spacing: 0px; -webkit-text-stroke-width: 0px; white-space: pre-wrap; background-color: rgb(255, 255, 255); text-decoration-thickness: initial; text-decoration-style: initial; text-decoration-color: initial; display: inline !important; float: none;&quot;&gt;Добавить в корзину&lt;/span&gt;" style="text;whiteSpace=wrap;html=1;" vertex="1" parent="1">
          <mxGeometry x="0.0008846507355855238" y="3799.000080422795" width="212" height="45" as="geometry" />
        </mxCell>
        <mxCell id="r7MdP9-WpG419sBYxyx1-40" value="&lt;span style=&quot;color: rgb(20, 20, 19); font-family: __styreneB_820c23, __styreneB_Fallback_820c23, ui-sans-serif, system-ui, -apple-system, BlinkMacSystemFont, &amp;quot;Segoe UI&amp;quot;, Roboto, &amp;quot;Helvetica Neue&amp;quot;, Arial, &amp;quot;Noto Sans&amp;quot;, sans-serif, &amp;quot;Apple Color Emoji&amp;quot;, &amp;quot;Segoe UI Emoji&amp;quot;, &amp;quot;Segoe UI Symbol&amp;quot;, &amp;quot;Noto Color Emoji&amp;quot;; font-size: 19px; font-style: normal; font-variant-ligatures: normal; font-variant-caps: normal; font-weight: 400; letter-spacing: -0.4px; orphans: 2; text-align: left; text-indent: 0px; text-transform: none; widows: 2; word-spacing: 0px; -webkit-text-stroke-width: 0px; white-space: pre-wrap; background-color: rgb(255, 255, 255); text-decoration-thickness: initial; text-decoration-style: initial; text-decoration-color: initial; display: inline !important; float: none;&quot;&gt;Перейти к оформлению&lt;/span&gt;" style="text;whiteSpace=wrap;html=1;" vertex="1" parent="1">
          <mxGeometry x="259.00147288602926" y="3798.9983157169117" width="250" height="45" as="geometry" />
        </mxCell>
        <mxCell id="r7MdP9-WpG419sBYxyx1-41" value="&lt;span style=&quot;color: rgb(20, 20, 19); font-family: __styreneB_820c23, __styreneB_Fallback_820c23, ui-sans-serif, system-ui, -apple-system, BlinkMacSystemFont, &amp;quot;Segoe UI&amp;quot;, Roboto, &amp;quot;Helvetica Neue&amp;quot;, Arial, &amp;quot;Noto Sans&amp;quot;, sans-serif, &amp;quot;Apple Color Emoji&amp;quot;, &amp;quot;Segoe UI Emoji&amp;quot;, &amp;quot;Segoe UI Symbol&amp;quot;, &amp;quot;Noto Color Emoji&amp;quot;; font-size: 19px; font-style: normal; font-variant-ligatures: normal; font-variant-caps: normal; font-weight: 400; letter-spacing: -0.4px; orphans: 2; text-align: left; text-indent: 0px; text-transform: none; widows: 2; word-spacing: 0px; -webkit-text-stroke-width: 0px; white-space: pre-wrap; background-color: rgb(255, 255, 255); text-decoration-thickness: initial; text-decoration-style: initial; text-decoration-color: initial; display: inline !important; float: none;&quot;&gt; Подтвердить заказ&lt;/span&gt;" style="text;whiteSpace=wrap;html=1;" vertex="1" parent="1">
          <mxGeometry x="530.998531709559" y="3799.0041980698534" width="205" height="45" as="geometry" />
        </mxCell>
        <mxCell id="r7MdP9-WpG419sBYxyx1-42" value="&lt;span style=&quot;color: rgb(20, 20, 19); font-family: __styreneB_820c23, __styreneB_Fallback_820c23, ui-sans-serif, system-ui, -apple-system, BlinkMacSystemFont, &amp;quot;Segoe UI&amp;quot;, Roboto, &amp;quot;Helvetica Neue&amp;quot;, Arial, &amp;quot;Noto Sans&amp;quot;, sans-serif, &amp;quot;Apple Color Emoji&amp;quot;, &amp;quot;Segoe UI Emoji&amp;quot;, &amp;quot;Segoe UI Symbol&amp;quot;, &amp;quot;Noto Color Emoji&amp;quot;; font-size: 19px; font-style: normal; font-variant-ligatures: normal; font-variant-caps: normal; font-weight: 400; letter-spacing: -0.4px; orphans: 2; text-align: left; text-indent: 0px; text-transform: none; widows: 2; word-spacing: 0px; -webkit-text-stroke-width: 0px; white-space: pre-wrap; background-color: rgb(255, 255, 255); text-decoration-thickness: initial; text-decoration-style: initial; text-decoration-color: initial; display: inline !important; float: none;&quot;&gt;Успешная оплата&lt;/span&gt;" style="text;whiteSpace=wrap;html=1;" vertex="1" parent="1">
          <mxGeometry x="759.0038258272059" y="3799.000668658088" width="186" height="45" as="geometry" />
        </mxCell>
      </root>
    </mxGraphModel>
  </diagram>
</mxfile>
